<svg width="106" height="69" viewBox="0 0 106 69" fill="none" xmlns="http://www.w3.org/2000/svg">
<path d="M0.851562 10.1562C2.3099 10.1979 3.51823 10.2292 4.47656 10.25C5.45573 10.25 6.2474 10.25 6.85156 10.25H8.50781H17.8203C17.862 10.6667 17.8932 11.0729 17.9141 11.4688C17.9557 11.8438 17.9766 12.1771 17.9766 12.4688C17.9766 12.8229 17.9661 13.1458 17.9453 13.4375C17.9245 13.7292 17.8932 14.0417 17.8516 14.375C17.8099 14.6667 17.7682 14.9792 17.7266 15.3125C17.6849 15.6458 17.612 15.9896 17.5078 16.3438C17.2161 15.2188 16.8203 14.3646 16.3203 13.7812C15.8411 13.1979 15.3516 12.7708 14.8516 12.5C14.2682 12.1875 13.6536 12.0208 13.0078 12C12.1536 12.0417 11.487 12.1146 11.0078 12.2188C10.5286 12.3229 10.1536 12.4688 9.88281 12.6562C9.61198 12.8438 9.40365 13.0625 9.25781 13.3125C9.13281 13.5417 8.9974 13.8021 8.85156 14.0938C8.72656 14.3438 8.61198 14.7292 8.50781 15.25C8.40365 15.6875 8.29948 16.2812 8.19531 17.0312C8.11198 17.7812 8.01823 18.75 7.91406 19.9375C8.47656 19.7708 8.92448 19.6146 9.25781 19.4688C9.61198 19.3229 9.89323 19.1979 10.1016 19.0938C10.3307 18.9688 10.4974 18.8542 10.6016 18.75C10.6849 18.625 10.8099 18.3958 10.9766 18.0625C11.1016 17.7708 11.2682 17.375 11.4766 16.875C11.7057 16.375 11.9766 15.6875 12.2891 14.8125C12.3307 15.7708 12.3516 16.5729 12.3516 17.2188C12.3516 17.8438 12.362 18.3542 12.3828 18.75C12.3828 19.2083 12.3932 19.5729 12.4141 19.8438V21.0312C12.4141 21.4688 12.4141 22.0625 12.4141 22.8125C12.4349 23.5417 12.4661 24.4688 12.5078 25.5938C12.2578 24.8229 12.0286 24.2188 11.8203 23.7812C11.6328 23.3229 11.4661 22.9792 11.3203 22.75C11.1536 22.4792 11.0078 22.2917 10.8828 22.1875C10.737 22.1458 10.5391 22.1042 10.2891 22.0625C10.0599 22.0417 9.76823 22.0312 9.41406 22.0312C9.08073 22.0312 8.65365 22.0833 8.13281 22.1875C8.07031 23.3333 8.0599 24.2604 8.10156 24.9688C8.16406 25.6562 8.2474 26.1875 8.35156 26.5625C8.45573 27 8.58073 27.3125 8.72656 27.5C8.91406 27.6875 9.28906 27.8438 9.85156 27.9688C10.4141 28.0729 11.0495 28.1146 11.7578 28.0938C12.487 28.0521 13.2266 27.9271 13.9766 27.7188C14.7266 27.5104 15.3932 27.1667 15.9766 26.6875C16.4141 26.2917 16.8828 25.7917 17.3828 25.1875C17.7995 24.6667 18.2578 24.0104 18.7578 23.2188C19.2786 22.4271 19.7891 21.4688 20.2891 20.3438C20.2057 21.2812 20.1432 22.0625 20.1016 22.6875C20.0807 23.2917 20.0495 23.7812 20.0078 24.1562C19.9661 24.5938 19.9349 24.9271 19.9141 25.1562C19.9141 25.4062 19.8828 25.7604 19.8203 26.2188C19.7786 26.6146 19.7057 27.1562 19.6016 27.8438C19.5182 28.5104 19.4036 29.3646 19.2578 30.4062C18.2786 30.4271 17.3516 30.4479 16.4766 30.4688C15.6016 30.4688 14.8307 30.4792 14.1641 30.5C13.3724 30.5208 12.6432 30.5417 11.9766 30.5625C11.2891 30.5625 10.5286 30.5938 9.69531 30.6562C8.96615 30.6979 8.10156 30.7604 7.10156 30.8438C6.1224 30.9271 5.03906 31.0417 3.85156 31.1875C3.95573 29.7708 4.02865 28.4375 4.07031 27.1875C4.13281 25.9167 4.17448 24.8021 4.19531 23.8438C4.21615 22.7188 4.21615 21.6771 4.19531 20.7188C4.29948 18.3229 4.25781 16.3854 4.07031 14.9062C3.88281 13.4271 3.66406 12.4792 3.41406 12.0625C3.28906 11.9167 3.11198 11.7396 2.88281 11.5312C2.69531 11.3646 2.4349 11.1667 2.10156 10.9375C1.76823 10.7083 1.35156 10.4479 0.851562 10.1562ZM39.1953 20.4062C38.9453 20.3646 38.6328 20.3333 38.2578 20.3125C37.9036 20.2917 37.5599 20.2812 37.2266 20.2812C36.8516 20.2812 36.4557 20.2917 36.0391 20.3125C35.6016 20.3333 35.1641 20.3542 34.7266 20.375C34.3516 20.3958 33.9245 20.4271 33.4453 20.4688C32.987 20.4896 32.5391 20.5208 32.1016 20.5625C32.2682 20.4792 32.4141 20.3646 32.5391 20.2188C32.6849 20.0729 32.8099 19.9271 32.9141 19.7812C33.0182 19.6146 33.112 19.4375 33.1953 19.25C33.2995 18.9375 33.2891 18.5625 33.1641 18.125C33.0391 17.6667 32.8099 17.25 32.4766 16.875C32.1641 16.5 31.7578 16.2083 31.2578 16C30.7786 15.7708 30.2474 15.7188 29.6641 15.8438C29.0391 15.9896 28.4766 16.2083 27.9766 16.5C27.4974 16.7917 27.0911 17.1979 26.7578 17.7188C26.4453 18.2188 26.2161 18.8438 26.0703 19.5938C25.9453 20.3229 25.9141 21.1979 25.9766 22.2188C26.0599 23.4896 26.2682 24.5 26.6016 25.25C26.9349 26 27.3411 26.5625 27.8203 26.9375C28.2995 27.3125 28.8203 27.5417 29.3828 27.625C29.9661 27.6875 30.5391 27.6875 31.1016 27.625C31.4974 27.5417 31.862 27.3646 32.1953 27.0938C32.4661 26.8646 32.7161 26.5312 32.9453 26.0938C33.1745 25.6562 33.2786 25.0521 33.2578 24.2812L37.0703 24.125C36.6328 25.3542 36.1016 26.3333 35.4766 27.0625C34.8516 27.7708 34.2474 28.3229 33.6641 28.7188C32.9766 29.1771 32.2891 29.4896 31.6016 29.6562C30.7474 29.8021 29.987 29.8646 29.3203 29.8438C28.6536 29.8021 28.0495 29.6979 27.5078 29.5312C26.9661 29.3646 26.4661 29.1562 26.0078 28.9062C25.5495 28.6562 25.112 28.3854 24.6953 28.0938C24.4245 27.9062 24.1224 27.5938 23.7891 27.1562C23.4557 26.7188 23.1432 26.1979 22.8516 25.5938C22.5599 24.9688 22.3203 24.2812 22.1328 23.5312C21.9453 22.7812 21.8724 22.0104 21.9141 21.2188C21.9557 20.4062 22.1432 19.5938 22.4766 18.7812C22.8099 17.9688 23.3411 17.1875 24.0703 16.4375C25.1745 15.3125 26.3516 14.5833 27.6016 14.25C28.8724 13.8958 30.0703 13.8021 31.1953 13.9688C32.3203 14.1146 33.3203 14.4375 34.1953 14.9375C35.0703 15.4375 35.6849 15.9792 36.0391 16.5625C36.3932 17.1458 36.6536 17.5938 36.8203 17.9062C37.0078 18.1979 37.1432 18.4271 37.2266 18.5938C37.3307 18.7396 37.4141 18.8542 37.4766 18.9375C37.5599 19 37.6745 19.0938 37.8203 19.2188C37.9245 19.3229 38.0495 19.4375 38.1953 19.5625C38.3203 19.6667 38.4661 19.7917 38.6328 19.9375C38.7995 20.0833 38.987 20.2396 39.1953 20.4062ZM38.5703 7.8125C39.0495 7.89583 39.487 7.95833 39.8828 8C40.2786 8.02083 40.612 8.04167 40.8828 8.0625C41.1953 8.08333 41.4661 8.09375 41.6953 8.09375C42.0078 8.07292 42.3724 8.04167 42.7891 8C43.1432 7.95833 43.5703 7.90625 44.0703 7.84375C44.5911 7.78125 45.1849 7.69792 45.8516 7.59375C45.5391 7.76042 45.2786 7.92708 45.0703 8.09375C44.862 8.23958 44.6953 8.39583 44.5703 8.5625C44.4245 8.75 44.3099 8.92708 44.2266 9.09375C44.1224 9.36458 44.0078 9.92708 43.8828 10.7812C43.7578 11.5104 43.6016 12.5938 43.4141 14.0312C43.2474 15.4688 43.0286 17.4167 42.7578 19.875C43.5078 19.125 44.2161 18.5625 44.8828 18.1875C45.5703 17.7917 46.1745 17.5104 46.6953 17.3438C47.2995 17.1562 47.862 17.0625 48.3828 17.0625C49.0286 17.125 49.6849 17.3333 50.3516 17.6875C51.0391 18.0208 51.6745 18.4167 52.2578 18.875C52.862 19.3333 53.3828 19.8229 53.8203 20.3438C54.2786 20.8646 54.6016 21.3229 54.7891 21.7188C54.9141 21.9896 54.9766 22.3438 54.9766 22.7812C54.9766 23.1979 54.9349 23.6562 54.8516 24.1562C54.7682 24.6562 54.6536 25.1667 54.5078 25.6875C54.362 26.2083 54.2161 26.6979 54.0703 27.1562C53.9453 27.6146 53.8307 28.0208 53.7266 28.375C53.6224 28.7083 53.5599 28.9479 53.5391 29.0938C53.4974 29.4062 53.5182 29.7083 53.6016 30C53.6641 30.25 53.7891 30.5208 53.9766 30.8125C54.1641 31.0833 54.4453 31.3125 54.8203 31.5C54.5286 31.4583 54.2161 31.4271 53.8828 31.4062C53.5703 31.3646 53.2682 31.3333 52.9766 31.3125C52.6432 31.2917 52.3099 31.2812 51.9766 31.2812H50.8516C50.4974 31.2812 50.0911 31.2917 49.6328 31.3125C49.1745 31.3125 48.6745 31.3229 48.1328 31.3438C48.4245 31.2396 48.6745 31.1042 48.8828 30.9375C49.0911 30.75 49.2682 30.5729 49.4141 30.4062C49.5807 30.2188 49.7266 30.0208 49.8516 29.8125C49.9349 29.6458 50.0391 29.3333 50.1641 28.875C50.2891 28.3958 50.4036 27.8542 50.5078 27.25C50.612 26.625 50.6849 25.9688 50.7266 25.2812C50.7891 24.5938 50.7995 23.9375 50.7578 23.3125C50.737 22.6667 50.6432 22.0938 50.4766 21.5938C50.3307 21.0938 50.1016 20.7292 49.7891 20.5C48.8516 19.7917 47.9974 19.4479 47.2266 19.4688C46.4766 19.4688 45.7578 19.7708 45.0703 20.375C44.8203 20.6042 44.5807 20.8333 44.3516 21.0625C44.1432 21.2708 43.9141 21.5208 43.6641 21.8125C43.4141 22.0833 43.1849 22.3646 42.9766 22.6562C42.9766 22.9688 42.987 23.3125 43.0078 23.6875C43.0286 24.0625 43.0495 24.4271 43.0703 24.7812C43.0911 25.1771 43.1224 25.5729 43.1641 25.9688C43.2057 26.5729 43.2682 27.1667 43.3516 27.75C43.4141 28.25 43.4974 28.8021 43.6016 29.4062C43.7057 29.9896 43.8411 30.5208 44.0078 31C43.737 30.9583 43.4557 30.9479 43.1641 30.9688C42.8724 30.9688 42.5911 30.9688 42.3203 30.9688C42.0078 30.9896 41.7057 31 41.4141 31C41.1432 31.0208 40.862 31.0521 40.5703 31.0938C40.3203 31.1354 40.0495 31.1771 39.7578 31.2188C39.4661 31.2396 39.1849 31.2812 38.9141 31.3438C39.1641 30.8646 39.3724 30.3958 39.5391 29.9375C39.7057 29.4583 39.8411 29.0417 39.9453 28.6875C40.0703 28.2708 40.1745 27.8646 40.2578 27.4688C40.3203 27.1562 40.362 26.5625 40.3828 25.6875C40.4245 24.7917 40.4557 23.7708 40.4766 22.625C40.4974 21.4583 40.5078 20.2292 40.5078 18.9375C40.5078 17.6458 40.4974 16.4167 40.4766 15.25C40.4557 14.0833 40.4141 13.0625 40.3516 12.1875C40.3099 11.3125 40.2578 10.7083 40.1953 10.375C40.112 10.0417 39.9974 9.70833 39.8516 9.375C39.7266 9.08333 39.5599 8.80208 39.3516 8.53125C39.1432 8.23958 38.8828 8 38.5703 7.8125ZM64.9141 17.5C65.4557 17.5 66.0182 17.6042 66.6016 17.8125C67.1849 18 67.7474 18.25 68.2891 18.5625C68.8307 18.8542 69.3203 19.1771 69.7578 19.5312C70.2161 19.8646 70.5911 20.1875 70.8828 20.5C71.4036 21.0625 71.7578 21.8229 71.9453 22.7812C72.1536 23.7188 72.1953 24.6875 72.0703 25.6875C71.9453 26.6667 71.6536 27.5938 71.1953 28.4688C70.737 29.3438 70.1016 29.9896 69.2891 30.4062C68.7057 30.6979 68.1328 30.9271 67.5703 31.0938C67.0078 31.2604 66.4661 31.3854 65.9453 31.4688C65.4245 31.5521 64.9349 31.5938 64.4766 31.5938C64.0182 31.5938 63.6224 31.5833 63.2891 31.5625C62.6641 31.5208 62.0078 31.3021 61.3203 30.9062C60.6536 30.5104 60.0182 30.0208 59.4141 29.4375C58.8307 28.8542 58.3307 28.2188 57.9141 27.5312C57.4974 26.8229 57.2474 26.1562 57.1641 25.5312C57.0391 24.6771 57.0182 23.7812 57.1016 22.8438C57.1849 21.9062 57.487 21.0417 58.0078 20.25C58.5495 19.4583 59.362 18.8021 60.4453 18.2812C61.5495 17.7604 63.0391 17.5 64.9141 17.5ZM63.8828 29.625C64.112 29.6667 64.4245 29.6146 64.8203 29.4688C65.2161 29.3021 65.6016 29.0417 65.9766 28.6875C66.3724 28.3333 66.7161 27.8854 67.0078 27.3438C67.3203 26.7812 67.5078 26.1042 67.5703 25.3125C67.6328 24.5417 67.6328 23.8333 67.5703 23.1875C67.5286 22.5417 67.4349 21.9792 67.2891 21.5C67.1432 21 66.9766 20.5938 66.7891 20.2812C66.6016 19.9688 66.4036 19.75 66.1953 19.625C65.8411 19.4375 65.4141 19.2917 64.9141 19.1875C64.4141 19.0625 63.987 19.0833 63.6328 19.25C63.4661 19.3333 63.2578 19.5104 63.0078 19.7812C62.7578 20.0521 62.5078 20.3958 62.2578 20.8125C62.0078 21.2083 61.7786 21.6667 61.5703 22.1875C61.3828 22.7083 61.2474 23.25 61.1641 23.8125C61.0807 24.375 61.0599 24.9792 61.1016 25.625C61.1641 26.2708 61.2995 26.8854 61.5078 27.4688C61.7161 28.0312 62.0078 28.5208 62.3828 28.9375C62.7786 29.3333 63.2786 29.5625 63.8828 29.625ZM81.6953 26.4688C82.2786 26.4688 82.8203 26.4062 83.3203 26.2812C83.737 26.1771 84.1328 26.0104 84.5078 25.7812C84.9036 25.5312 85.1641 25.1667 85.2891 24.6875C85.7057 24.7708 86.0599 24.8438 86.3516 24.9062C86.6432 24.9479 86.8932 24.9896 87.1016 25.0312C87.3307 25.0938 87.5286 25.1354 87.6953 25.1562C87.862 25.1979 88.0599 25.2396 88.2891 25.2812C88.4974 25.3229 88.7474 25.375 89.0391 25.4375C89.3516 25.4792 89.7161 25.5417 90.1328 25.625C89.8203 25.5833 89.4974 25.6146 89.1641 25.7188C88.8516 25.8229 88.5495 25.9375 88.2578 26.0625C87.9245 26.2083 87.612 26.3854 87.3203 26.5938C87.1328 26.7188 86.9141 26.9062 86.6641 27.1562C86.4349 27.4062 86.1016 27.6458 85.6641 27.875C85.2266 28.1042 84.6432 28.3021 83.9141 28.4688C83.2057 28.6146 82.2891 28.6667 81.1641 28.625C79.8099 28.5833 78.6745 28.3438 77.7578 27.9062C76.8411 27.4479 76.1016 26.8958 75.5391 26.25C74.9766 25.5833 74.5703 24.8646 74.3203 24.0938C74.0703 23.3229 73.9349 22.6042 73.9141 21.9375C73.8932 21.2708 74.0911 20.5729 74.5078 19.8438C74.9245 19.1146 75.5078 18.4479 76.2578 17.8438C77.0286 17.2396 77.9557 16.75 79.0391 16.375C80.1224 15.9792 81.3099 15.7812 82.6016 15.7812C83.3516 15.7812 84.0391 15.875 84.6641 16.0625C85.3099 16.2292 85.8932 16.4583 86.4141 16.75C86.9557 17.0417 87.4245 17.375 87.8203 17.75C88.2161 18.1042 88.5495 18.4688 88.8203 18.8438C89.0911 19.2396 89.3203 19.6562 89.5078 20.0938C89.6745 20.4688 89.8099 20.8958 89.9141 21.375C90.0182 21.8542 90.0495 22.3438 90.0078 22.8438C88.4245 22.8854 87.1432 22.9167 86.1641 22.9375C85.2057 22.9583 84.4557 22.9688 83.9141 22.9688H82.5078H81.4453C81.0703 22.9688 80.5807 22.9792 79.9766 23C79.3724 23.0208 78.6328 23.0521 77.7578 23.0938C77.862 23.9271 78.1224 24.5729 78.5391 25.0312C78.9766 25.4688 79.4349 25.8021 79.9141 26.0312C80.4557 26.2812 81.0495 26.4271 81.6953 26.4688ZM78.8828 20.8438C79.5495 20.8854 80.1016 20.9167 80.5391 20.9375C80.9974 20.9583 81.3724 20.9792 81.6641 21C81.9766 21.0208 82.2266 21.0312 82.4141 21.0312H83.1953C83.7161 21.0312 84.6849 21 86.1016 20.9375C86.0391 20.0208 85.8411 19.3229 85.5078 18.8438C85.1953 18.3646 84.862 18.0104 84.5078 17.7812C84.0911 17.5312 83.6328 17.3854 83.1328 17.3438C81.7786 17.3646 80.7682 17.6458 80.1016 18.1875C79.4557 18.7292 79.0495 19.6146 78.8828 20.8438ZM105.039 13.6562C104.852 14.1146 104.685 14.5312 104.539 14.9062C104.414 15.2812 104.299 15.6146 104.195 15.9062C104.091 16.2396 103.997 16.5312 103.914 16.7812C103.831 17.0729 103.737 17.4062 103.633 17.7812C103.529 18.1146 103.393 18.5312 103.227 19.0312C103.081 19.5104 102.904 20.0833 102.695 20.75C102.529 19.75 102.227 18.9583 101.789 18.375C101.352 17.7708 100.904 17.3021 100.445 16.9688C99.9036 16.5938 99.3203 16.3229 98.6953 16.1562C97.5703 15.9688 96.7578 15.9896 96.2578 16.2188C95.7578 16.4479 95.4245 16.7396 95.2578 17.0938C95.1745 17.2396 95.0807 17.4271 94.9766 17.6562C94.8932 17.8646 94.8203 18.0833 94.7578 18.3125C94.7161 18.5417 94.7057 18.7708 94.7266 19C94.7474 19.2292 94.8411 19.4167 95.0078 19.5625C95.112 19.6667 95.3828 19.8125 95.8203 20C96.2578 20.1667 96.7786 20.3646 97.3828 20.5938C98.0078 20.8021 98.6641 21.0312 99.3516 21.2812C100.06 21.5312 100.727 21.7812 101.352 22.0312C101.977 22.2812 102.518 22.5312 102.977 22.7812C103.435 23.0312 103.737 23.2604 103.883 23.4688C104.008 23.6771 104.143 23.9583 104.289 24.3125C104.456 24.6458 104.57 25.0208 104.633 25.4375C104.716 25.8333 104.737 26.25 104.695 26.6875C104.674 27.1042 104.56 27.5208 104.352 27.9375C104.143 28.3542 103.81 28.7396 103.352 29.0938C102.914 29.4479 102.32 29.7396 101.57 29.9688C100.695 30.2396 99.8516 30.3125 99.0391 30.1875C98.2266 30.0625 97.4766 29.875 96.7891 29.625C96.1224 29.375 95.5391 29.1354 95.0391 28.9062C94.5391 28.6562 94.1849 28.5521 93.9766 28.5938C93.7474 28.6354 93.487 28.75 93.1953 28.9375C92.9036 29.125 92.6224 29.3229 92.3516 29.5312C92.1016 29.7188 91.8828 29.8958 91.6953 30.0625C91.5078 30.2083 91.4141 30.2604 91.4141 30.2188C91.4141 30.1771 91.4453 30.0521 91.5078 29.8438C91.5911 29.6354 91.6745 29.3854 91.7578 29.0938C91.862 28.7812 91.9557 28.4479 92.0391 28.0938C92.1432 27.7188 92.2161 27.3646 92.2578 27.0312C92.2995 26.7604 92.3516 26.4271 92.4141 26.0312C92.4557 25.6771 92.5078 25.25 92.5703 24.75C92.6536 24.2292 92.7474 23.6042 92.8516 22.875C92.9557 23.4167 93.1016 23.8854 93.2891 24.2812C93.4974 24.6771 93.6953 25.0208 93.8828 25.3125C94.112 25.6458 94.3307 25.9271 94.5391 26.1562C94.8516 26.4479 95.2161 26.7188 95.6328 26.9688C96.0703 27.2188 96.5078 27.4375 96.9453 27.625C97.3828 27.7917 97.7995 27.8958 98.1953 27.9375C98.5911 27.9792 98.9245 27.9375 99.1953 27.8125C99.4661 27.6875 99.6953 27.4583 99.8828 27.125C100.091 26.7917 100.237 26.4271 100.32 26.0312C100.404 25.6354 100.435 25.2604 100.414 24.9062C100.393 24.5312 100.299 24.2292 100.133 24C100.008 23.8542 99.7161 23.6667 99.2578 23.4375C98.8203 23.2083 98.2891 22.9583 97.6641 22.6875C97.0599 22.4167 96.4141 22.1354 95.7266 21.8438C95.0599 21.5521 94.4245 21.2604 93.8203 20.9688C93.237 20.6562 92.7474 20.3646 92.3516 20.0938C91.9766 19.8021 91.7682 19.5417 91.7266 19.3125C91.6849 18.9792 91.6536 18.6146 91.6328 18.2188C91.612 17.8021 91.6328 17.3958 91.6953 17C91.7786 16.5833 91.9245 16.1875 92.1328 15.8125C92.362 15.4375 92.6953 15.125 93.1328 14.875C93.4245 14.7083 93.8099 14.5833 94.2891 14.5C94.7682 14.4167 95.2995 14.375 95.8828 14.375C96.4661 14.3542 97.0703 14.375 97.6953 14.4375C98.3203 14.4792 98.9141 14.5417 99.4766 14.625C100.06 14.6875 100.581 14.7708 101.039 14.875C101.518 14.9792 101.883 15.0729 102.133 15.1562C102.424 15.2604 102.737 15.2708 103.07 15.1875C103.362 15.125 103.674 14.9896 104.008 14.7812C104.341 14.5729 104.685 14.1979 105.039 13.6562Z" fill="black"/>
<path d="M35.1133 37.296C36.1549 37.3585 37.0299 37.4106 37.7383 37.4523C38.4674 37.4731 39.0716 37.4939 39.5508 37.5148C40.0924 37.5356 40.5508 37.5356 40.9258 37.5148C41.3008 37.4939 41.8112 37.4419 42.457 37.3585C42.9987 37.296 43.7174 37.2023 44.6133 37.0773C45.5299 36.9314 46.6654 36.7439 48.0195 36.5148C47.5404 36.9939 47.1654 37.4314 46.8945 37.8273C46.6445 38.2023 46.4466 38.5252 46.3008 38.796C46.1341 39.1294 46.0195 39.4106 45.957 39.6398C45.9154 39.8481 45.957 40.3689 46.082 41.2023C46.207 42.0356 46.3841 43.0252 46.6133 44.171C46.8424 45.296 47.0924 46.5044 47.3633 47.796C47.6341 49.0669 47.9049 50.2648 48.1758 51.3898C48.4466 52.4939 48.6862 53.4419 48.8945 54.2335C49.1237 55.0044 49.2904 55.4627 49.3945 55.6085C49.707 56.046 49.9049 56.3377 49.9883 56.4835C50.0716 56.6085 50.2174 56.7231 50.4258 56.8273C50.5091 56.8689 50.6445 56.9314 50.832 57.0148C50.9987 57.0981 51.2174 57.2023 51.4883 57.3273C51.7799 57.4523 52.1445 57.5981 52.582 57.7648C51.7695 57.8064 51.0716 57.8377 50.4883 57.8585C49.9049 57.8585 49.4258 57.8689 49.0508 57.8898C48.6133 57.9106 48.2383 57.9314 47.9258 57.9523C47.6133 57.9523 47.2383 57.9731 46.8008 58.0148C46.4258 58.0564 45.9362 58.0981 45.332 58.1398C44.7487 58.1814 44.0612 58.2231 43.2695 58.2648C43.6862 57.9731 44.0195 57.7127 44.2695 57.4835C44.5404 57.2335 44.7487 57.0252 44.8945 56.8585C45.0612 56.6502 45.1758 56.4627 45.2383 56.296C45.2799 56.1085 45.3112 55.8273 45.332 55.4523C45.3529 55.1189 45.3529 54.6814 45.332 54.1398C45.3112 53.5773 45.2591 52.8481 45.1758 51.9523L36.957 52.796C36.7487 53.1502 36.5924 53.4627 36.4883 53.7335C36.3841 53.9835 36.3112 54.2023 36.2695 54.3898C36.207 54.6189 36.1862 54.8064 36.207 54.9523C36.2487 55.1189 36.3216 55.3169 36.4258 55.546C36.5299 55.7544 36.6758 56.0044 36.8633 56.296C37.0716 56.5669 37.3737 56.8898 37.7695 57.2648C37.2487 57.2439 36.7174 57.2335 36.1758 57.2335C35.6341 57.2335 35.1341 57.2439 34.6758 57.2648C34.1341 57.2856 33.6029 57.3064 33.082 57.3273C32.5612 57.3481 31.9674 57.3794 31.3008 57.421C30.7383 57.4627 30.082 57.5148 29.332 57.5773C28.5612 57.6189 27.7383 57.6814 26.8633 57.7648C27.4049 57.5148 27.8633 57.2648 28.2383 57.0148C28.6133 56.7439 28.9258 56.4939 29.1758 56.2648C29.4674 56.0148 29.7174 55.7752 29.9258 55.546C30.0716 55.3377 30.3633 54.8585 30.8008 54.1085C31.2383 53.3377 31.7279 52.4314 32.2695 51.3898C32.832 50.3481 33.4154 49.2335 34.0195 48.046C34.6445 46.8585 35.207 45.7439 35.707 44.7023C36.207 43.6398 36.6133 42.7231 36.9258 41.9523C37.2383 41.1814 37.3945 40.6814 37.3945 40.4523C37.3529 40.1814 37.2487 39.8794 37.082 39.546C36.9362 39.2544 36.707 38.921 36.3945 38.546C36.1029 38.171 35.6758 37.7544 35.1133 37.296ZM44.8008 49.6398C44.6758 48.9106 44.5612 48.2856 44.457 47.7648C44.3529 47.2231 44.2695 46.7752 44.207 46.421C44.1237 46.0044 44.0612 45.6398 44.0195 45.3273C43.957 45.0356 43.8841 44.6606 43.8008 44.2023C43.7174 43.8064 43.6133 43.3169 43.4883 42.7335C43.3841 42.1294 43.2487 41.4106 43.082 40.5773C41.8945 42.9523 40.9674 44.796 40.3008 46.1085C39.6549 47.4002 39.1862 48.3481 38.8945 48.9523C38.5404 49.6606 38.3424 50.0773 38.3008 50.2023L44.8008 49.6398ZM64.8945 40.6085C64.707 41.0669 64.5404 41.4835 64.3945 41.8585C64.2695 42.2335 64.1549 42.5669 64.0508 42.8585C63.9466 43.1919 63.8529 43.4835 63.7695 43.7335C63.6862 44.0252 63.5924 44.3585 63.4883 44.7335C63.3841 45.0669 63.2487 45.4835 63.082 45.9835C62.9362 46.4627 62.7591 47.0356 62.5508 47.7023C62.3841 46.7023 62.082 45.9106 61.6445 45.3273C61.207 44.7231 60.7591 44.2544 60.3008 43.921C59.7591 43.546 59.1758 43.2752 58.5508 43.1085C57.4258 42.921 56.6133 42.9419 56.1133 43.171C55.6133 43.4002 55.2799 43.6919 55.1133 44.046C55.0299 44.1919 54.9362 44.3794 54.832 44.6085C54.7487 44.8169 54.6758 45.0356 54.6133 45.2648C54.5716 45.4939 54.5612 45.7231 54.582 45.9523C54.6029 46.1814 54.6966 46.3689 54.8633 46.5148C54.9674 46.6189 55.2383 46.7648 55.6758 46.9523C56.1133 47.1189 56.6341 47.3169 57.2383 47.546C57.8633 47.7544 58.5195 47.9835 59.207 48.2335C59.9154 48.4835 60.582 48.7335 61.207 48.9835C61.832 49.2335 62.3737 49.4835 62.832 49.7335C63.2904 49.9835 63.5924 50.2127 63.7383 50.421C63.8633 50.6294 63.9987 50.9106 64.1445 51.2648C64.3112 51.5981 64.4258 51.9731 64.4883 52.3898C64.5716 52.7856 64.5924 53.2023 64.5508 53.6398C64.5299 54.0564 64.4154 54.4731 64.207 54.8898C63.9987 55.3064 63.6654 55.6919 63.207 56.046C62.7695 56.4002 62.1758 56.6919 61.4258 56.921C60.5508 57.1919 59.707 57.2648 58.8945 57.1398C58.082 57.0148 57.332 56.8273 56.6445 56.5773C55.9779 56.3273 55.3945 56.0877 54.8945 55.8585C54.3945 55.6085 54.0404 55.5044 53.832 55.546C53.6029 55.5877 53.3424 55.7023 53.0508 55.8898C52.7591 56.0773 52.4779 56.2752 52.207 56.4835C51.957 56.671 51.7383 56.8481 51.5508 57.0148C51.3633 57.1606 51.2695 57.2127 51.2695 57.171C51.2695 57.1294 51.3008 57.0044 51.3633 56.796C51.4466 56.5877 51.5299 56.3377 51.6133 56.046C51.7174 55.7335 51.8112 55.4002 51.8945 55.046C51.9987 54.671 52.0716 54.3169 52.1133 53.9835C52.1549 53.7127 52.207 53.3794 52.2695 52.9835C52.3112 52.6294 52.3633 52.2023 52.4258 51.7023C52.5091 51.1814 52.6029 50.5564 52.707 49.8273C52.8112 50.3689 52.957 50.8377 53.1445 51.2335C53.3529 51.6294 53.5508 51.9731 53.7383 52.2648C53.9674 52.5981 54.1862 52.8794 54.3945 53.1085C54.707 53.4002 55.0716 53.671 55.4883 53.921C55.9258 54.171 56.3633 54.3898 56.8008 54.5773C57.2383 54.7439 57.6549 54.8481 58.0508 54.8898C58.4466 54.9314 58.7799 54.8898 59.0508 54.7648C59.3216 54.6398 59.5508 54.4106 59.7383 54.0773C59.9466 53.7439 60.0924 53.3794 60.1758 52.9835C60.2591 52.5877 60.2904 52.2127 60.2695 51.8585C60.2487 51.4835 60.1549 51.1814 59.9883 50.9523C59.8633 50.8064 59.5716 50.6189 59.1133 50.3898C58.6758 50.1606 58.1445 49.9106 57.5195 49.6398C56.9154 49.3689 56.2695 49.0877 55.582 48.796C54.9154 48.5044 54.2799 48.2127 53.6758 47.921C53.0924 47.6085 52.6029 47.3169 52.207 47.046C51.832 46.7544 51.6237 46.4939 51.582 46.2648C51.5404 45.9314 51.5091 45.5669 51.4883 45.171C51.4674 44.7544 51.4883 44.3481 51.5508 43.9523C51.6341 43.5356 51.7799 43.1398 51.9883 42.7648C52.2174 42.3898 52.5508 42.0773 52.9883 41.8273C53.2799 41.6606 53.6654 41.5356 54.1445 41.4523C54.6237 41.3689 55.1549 41.3273 55.7383 41.3273C56.3216 41.3064 56.9258 41.3273 57.5508 41.3898C58.1758 41.4314 58.7695 41.4939 59.332 41.5773C59.9154 41.6398 60.4362 41.7231 60.8945 41.8273C61.3737 41.9314 61.7383 42.0252 61.9883 42.1085C62.2799 42.2127 62.5924 42.2231 62.9258 42.1398C63.2174 42.0773 63.5299 41.9419 63.8633 41.7335C64.1966 41.5252 64.5404 41.1502 64.8945 40.6085ZM66.1758 44.0773C66.7174 44.1814 67.1862 44.2648 67.582 44.3273C67.9987 44.3689 68.3529 44.4106 68.6445 44.4523C68.9779 44.4939 69.2695 44.5252 69.5195 44.546C69.7695 44.5669 70.0612 44.5877 70.3945 44.6085C70.957 44.6294 71.7487 44.6294 72.7695 44.6085C72.1654 44.5669 71.6862 44.7231 71.332 45.0773C70.9987 45.4106 70.7487 45.796 70.582 46.2335C70.3737 46.7544 70.2591 47.3585 70.2383 48.046C70.1966 48.9627 70.2174 49.796 70.3008 50.546C70.4049 51.2752 70.582 51.9002 70.832 52.421C71.1029 52.921 71.457 53.296 71.8945 53.546C72.332 53.7752 72.8945 53.8377 73.582 53.7335C74.2695 53.6294 74.7904 53.3898 75.1445 53.0148C75.5195 52.6189 75.7904 52.1398 75.957 51.5773C76.1237 50.9939 76.2174 50.3377 76.2383 49.6085C76.2799 48.8794 76.3112 48.1189 76.332 47.3273C76.332 46.5356 76.3216 45.9731 76.3008 45.6398C76.3008 45.2856 76.2904 45.0564 76.2695 44.9523C76.2487 44.8481 76.2174 44.8064 76.1758 44.8273C76.1341 44.8273 76.082 44.7752 76.0195 44.671C75.9779 44.5877 75.9154 44.5044 75.832 44.421C75.7695 44.3377 75.6862 44.2439 75.582 44.1398C75.4779 44.0148 75.3633 43.8898 75.2383 43.7648C75.7799 43.7856 76.2591 43.8064 76.6758 43.8273C77.1133 43.8273 77.4779 43.8377 77.7695 43.8585C78.1029 43.8794 78.3945 43.9002 78.6445 43.921C78.8737 43.9419 79.1758 43.9731 79.5508 44.0148C79.8633 44.0564 80.2695 44.0981 80.7695 44.1398C81.2695 44.1814 81.8633 44.2439 82.5508 44.3273C82.0716 44.4314 81.6862 44.5877 81.3945 44.796C81.1029 45.0044 80.8737 45.2127 80.707 45.421C80.5195 45.6502 80.3841 45.9002 80.3008 46.171C80.2383 46.5252 80.2383 47.0669 80.3008 47.796C80.3424 48.4419 80.4466 49.3273 80.6133 50.4523C80.7799 51.5773 81.0404 53.0564 81.3945 54.8898L78.9258 56.3585L78.4258 52.2023C77.8216 53.2231 77.1758 54.0148 76.4883 54.5773C75.8216 55.1189 75.1966 55.5148 74.6133 55.7648C73.9258 56.0564 73.2591 56.2231 72.6133 56.2648C71.7591 56.2648 71.0195 56.2127 70.3945 56.1085C69.7904 55.9835 69.2695 55.8273 68.832 55.6398C68.3945 55.4523 68.0404 55.2439 67.7695 55.0148C67.5195 54.7648 67.332 54.5148 67.207 54.2648C66.9154 53.7439 66.7591 53.0773 66.7383 52.2648C66.7174 51.4314 66.7487 50.6085 66.832 49.796C66.9154 48.9627 67.0091 48.2023 67.1133 47.5148C67.2174 46.8273 67.2487 46.3585 67.207 46.1085C67.1654 45.921 67.1029 45.7127 67.0195 45.4835C66.9362 45.296 66.832 45.0877 66.707 44.8585C66.582 44.6085 66.4049 44.3481 66.1758 44.0773ZM83.9883 55.0148C84.1341 54.3273 84.2383 53.7231 84.3008 53.2023C84.3841 52.6606 84.4466 52.2127 84.4883 51.8585C84.5299 51.4419 84.5508 51.0877 84.5508 50.796C84.5299 50.4419 84.5091 50.0252 84.4883 49.546C84.4883 49.046 84.4674 48.5564 84.4258 48.0773C84.4049 47.5773 84.3737 47.1398 84.332 46.7648C84.2904 46.3689 84.2383 46.0877 84.1758 45.921C84.0924 45.7544 83.9779 45.5773 83.832 45.3898C83.5404 45.0356 83.1133 44.6919 82.5508 44.3585C83.0299 44.2544 83.4362 44.171 83.7695 44.1085C84.1237 44.0252 84.4154 43.9523 84.6445 43.8898C84.8945 43.8064 85.1133 43.7335 85.3008 43.671C85.4674 43.6085 85.6654 43.546 85.8945 43.4835C86.082 43.4419 86.3112 43.3898 86.582 43.3273C86.8529 43.2648 87.1654 43.1919 87.5195 43.1085L87.4258 45.9523C88.0924 45.1606 88.7695 44.5669 89.457 44.171C90.1445 43.7752 90.7904 43.4939 91.3945 43.3273C92.082 43.1189 92.7591 43.0148 93.4258 43.0148C94.2591 43.0564 95.0299 43.1919 95.7383 43.421C96.4674 43.6502 97.0924 43.921 97.6133 44.2335C98.1549 44.5252 98.5924 44.8377 98.9258 45.171C99.2591 45.5044 99.457 45.796 99.5195 46.046C99.7695 46.8585 99.832 47.6085 99.707 48.296C99.582 48.9627 99.4154 49.6189 99.207 50.2648C99.0195 50.8898 98.8529 51.5148 98.707 52.1398C98.582 52.7648 98.6341 53.4419 98.8633 54.171C98.9466 54.3585 99.0299 54.546 99.1133 54.7335C99.1966 54.9002 99.3008 55.0669 99.4258 55.2335C99.5508 55.4002 99.6966 55.5356 99.8633 55.6398C99.6341 55.6189 99.4049 55.6085 99.1758 55.6085C98.9466 55.5877 98.7383 55.5669 98.5508 55.546C98.3216 55.5252 98.1133 55.5044 97.9258 55.4835C97.7174 55.4627 97.4362 55.4523 97.082 55.4523C96.4779 55.4523 95.5404 55.4835 94.2695 55.546C94.457 55.1085 94.6029 54.7439 94.707 54.4523C94.832 54.1398 94.9362 53.8898 95.0195 53.7023C95.1029 53.4731 95.1654 53.296 95.207 53.171C95.457 52.5669 95.6029 51.8794 95.6445 51.1085C95.707 50.3377 95.6549 49.5564 95.4883 48.7648C95.4258 48.4939 95.3216 48.171 95.1758 47.796C95.0299 47.421 94.832 47.0564 94.582 46.7023C94.3529 46.3481 94.0716 46.046 93.7383 45.796C93.4258 45.546 93.0612 45.4002 92.6445 45.3585C92.2279 45.3169 91.7591 45.421 91.2383 45.671C90.7383 45.921 90.1966 46.3794 89.6133 47.046C89.1758 47.6085 88.832 48.296 88.582 49.1085C88.3529 49.796 88.1966 50.6606 88.1133 51.7023C88.0299 52.7231 88.1549 53.921 88.4883 55.296C88.1966 55.2544 87.9258 55.2335 87.6758 55.2335C87.4258 55.2127 87.2174 55.1919 87.0508 55.171C86.8424 55.1502 86.6549 55.1294 86.4883 55.1085C86.3008 55.1085 86.0924 55.0981 85.8633 55.0773C85.6549 55.0773 85.3945 55.0773 85.082 55.0773C84.7695 55.0564 84.4049 55.0356 83.9883 55.0148Z" fill="#24BE74"/>
<path d="M16.6836 39.7023C17.0221 39.7023 17.3737 39.7674 17.7383 39.8976C18.1029 40.0148 18.4544 40.171 18.793 40.3663C19.1315 40.5486 19.4375 40.7504 19.7109 40.9718C19.9974 41.1801 20.2318 41.382 20.4141 41.5773C20.7396 41.9288 20.9609 42.4041 21.0781 43.0031C21.2083 43.589 21.2344 44.1945 21.1562 44.8195C21.0781 45.4314 20.8958 46.0109 20.6094 46.5577C20.3229 47.1046 19.9258 47.5083 19.418 47.7687C19.0534 47.951 18.6953 48.0942 18.3438 48.1984C17.9922 48.3025 17.6536 48.3807 17.3281 48.4327C17.0026 48.4848 16.6966 48.5109 16.4102 48.5109C16.1237 48.5109 15.8763 48.5044 15.668 48.4913C15.2773 48.4653 14.8672 48.3286 14.4375 48.0812C14.0208 47.8338 13.6237 47.5278 13.2461 47.1632C12.8815 46.7986 12.569 46.4015 12.3086 45.9718C12.0482 45.5291 11.8919 45.1124 11.8398 44.7218C11.7617 44.1879 11.7487 43.6281 11.8008 43.0421C11.8529 42.4562 12.0417 41.9158 12.3672 41.421C12.7057 40.9262 13.2135 40.5161 13.8906 40.1906C14.5807 39.865 15.5117 39.7023 16.6836 39.7023ZM16.0391 47.2804C16.1823 47.3064 16.3776 47.2739 16.625 47.1827C16.8724 47.0786 17.1133 46.9158 17.3477 46.6945C17.5951 46.4731 17.8099 46.1932 17.9922 45.8546C18.1875 45.5031 18.3047 45.0799 18.3438 44.5851C18.3828 44.1033 18.3828 43.6606 18.3438 43.257C18.3177 42.8533 18.2591 42.5017 18.168 42.2023C18.0768 41.8898 17.9727 41.6359 17.8555 41.4406C17.7383 41.2452 17.6146 41.1085 17.4844 41.0304C17.263 40.9132 16.9961 40.8221 16.6836 40.757C16.3711 40.6788 16.1042 40.6919 15.8828 40.796C15.7786 40.8481 15.6484 40.9588 15.4922 41.1281C15.3359 41.2973 15.1797 41.5122 15.0234 41.7726C14.8672 42.02 14.724 42.3064 14.5938 42.632C14.4766 42.9575 14.3919 43.296 14.3398 43.6476C14.2878 43.9991 14.2747 44.3767 14.3008 44.7804C14.3398 45.184 14.4245 45.5682 14.5547 45.9327C14.6849 46.2843 14.8672 46.5903 15.1016 46.8507C15.349 47.0981 15.6615 47.2413 16.0391 47.2804ZM22.9531 49.1554C23.2135 48.9731 23.4219 48.7322 23.5781 48.4327C23.7344 48.1333 23.8516 47.8403 23.9297 47.5538C24.0208 47.2153 24.0794 46.8637 24.1055 46.4991C24.1055 46.2778 24.0924 45.9262 24.0664 45.4445C24.0404 45.0408 24.0013 44.4874 23.9492 43.7843C23.8971 43.0682 23.819 42.1437 23.7148 41.0109C23.5716 41.0239 23.4479 41.0369 23.3438 41.0499C23.2396 41.0499 23.1549 41.0499 23.0898 41.0499H22.875C22.8099 41.0499 22.7318 41.0564 22.6406 41.0695C22.5625 41.0825 22.4583 41.102 22.3281 41.1281C22.2109 41.1541 22.0677 41.1866 21.8984 41.2257C21.9245 41.1215 21.9375 41.0174 21.9375 40.9132C21.9505 40.796 21.9635 40.6919 21.9766 40.6007C21.9896 40.4965 21.9961 40.3989 21.9961 40.3077V40.0148C21.9961 39.9236 21.9961 39.826 21.9961 39.7218C22.0091 39.6176 22.0221 39.5135 22.0352 39.4093L23.5781 39.4484C23.513 38.8885 23.487 38.3872 23.5 37.9445C23.513 37.4887 23.5326 37.0981 23.5586 36.7726C23.5977 36.395 23.6497 36.0629 23.7148 35.7765C23.806 35.4249 23.9297 35.0994 24.0859 34.7999C24.2422 34.5004 24.457 34.2465 24.7305 34.0382C25.0039 33.8299 25.3424 33.6736 25.7461 33.5695C26.1497 33.4523 26.638 33.3937 27.2109 33.3937C27.862 33.4067 28.3763 33.4913 28.7539 33.6476C29.1315 33.7908 29.4115 33.9796 29.5938 34.214C29.776 34.4353 29.8802 34.6892 29.9062 34.9757C29.9323 35.2622 29.9258 35.5421 29.8867 35.8156C29.8607 36.076 29.8151 36.3169 29.75 36.5382C29.6979 36.7596 29.6784 36.9223 29.6914 37.0265C29.7044 37.1046 29.737 37.2088 29.7891 37.339C29.8281 37.4432 29.8867 37.5734 29.9648 37.7296C30.056 37.8859 30.1862 38.0616 30.3555 38.257C30.1471 38.2309 29.9388 38.2114 29.7305 38.1984C29.5221 38.1723 29.3268 38.1528 29.1445 38.1398C28.9362 38.1267 28.7344 38.1202 28.5391 38.1202C28.3438 38.1333 28.1419 38.1463 27.9336 38.1593C27.7513 38.1853 27.556 38.2114 27.3477 38.2374C27.1393 38.2504 26.944 38.2895 26.7617 38.3546C27.0221 38.1723 27.224 37.9835 27.3672 37.7882C27.5104 37.5929 27.6211 37.4171 27.6992 37.2609C27.7904 37.0786 27.849 36.8963 27.875 36.714C27.888 36.4926 27.875 36.2452 27.8359 35.9718C27.8099 35.6853 27.7513 35.4249 27.6602 35.1906C27.569 34.9562 27.4583 34.7674 27.3281 34.6241C27.1979 34.4679 27.0417 34.4093 26.8594 34.4484C26.5859 34.5525 26.332 34.8064 26.0977 35.2101C25.9023 35.5486 25.7135 36.0629 25.5312 36.7531C25.349 37.4301 25.2318 38.3741 25.1797 39.5851C25.4271 39.6111 25.6549 39.6307 25.8633 39.6437C26.0846 39.6437 26.2799 39.6502 26.4492 39.6632C26.6445 39.6762 26.8268 39.6827 26.9961 39.6827C27.1654 39.6827 27.3542 39.6762 27.5625 39.6632C27.7448 39.6502 27.9596 39.6437 28.207 39.6437C28.4544 39.6307 28.7279 39.6111 29.0273 39.5851L28.9883 40.6007C28.7539 40.6267 28.526 40.6463 28.3047 40.6593C28.0833 40.6723 27.888 40.6853 27.7188 40.6984C27.5234 40.7114 27.3411 40.7244 27.1719 40.7374C26.9896 40.7504 26.8008 40.7635 26.6055 40.7765C26.4362 40.7895 26.2409 40.809 26.0195 40.8351C25.8112 40.8611 25.5898 40.8872 25.3555 40.9132C25.5378 42.3846 25.694 43.576 25.8242 44.4874C25.9674 45.3859 26.0911 46.0825 26.1953 46.5773C26.2995 47.1632 26.3906 47.5799 26.4688 47.8273C26.5469 48.0356 26.638 48.2179 26.7422 48.3741C26.8333 48.5174 26.944 48.6541 27.0742 48.7843C27.2044 48.9145 27.3542 48.9991 27.5234 49.0382C27.1068 48.9731 26.7487 48.921 26.4492 48.882C26.1497 48.8559 25.8958 48.8364 25.6875 48.8234C25.4531 48.8103 25.2513 48.8038 25.082 48.8038C24.9258 48.8169 24.737 48.8364 24.5156 48.8624C24.138 48.9015 23.6172 48.9991 22.9531 49.1554Z" fill="var(--backgroundColor)"/>
</svg>
