<svg width="106" height="69" viewBox="0 0 106 69" fill="none" xmlns="http://www.w3.org/2000/svg">
<path d="M0.851562 10.204C2.3099 10.2456 3.51823 10.2769 4.47656 10.2977C5.45573 10.2977 6.2474 10.2977 6.85156 10.2977H8.50781H17.8203C17.862 10.7144 17.8932 11.1206 17.9141 11.5165C17.9557 11.8915 17.9766 12.2248 17.9766 12.5165C17.9766 12.8706 17.9661 13.1936 17.9453 13.4852C17.9245 13.7769 17.8932 14.0894 17.8516 14.4227C17.8099 14.7144 17.7682 15.0269 17.7266 15.3602C17.6849 15.6936 17.612 16.0373 17.5078 16.3915C17.2161 15.2665 16.8203 14.4123 16.3203 13.829C15.8411 13.2456 15.3516 12.8186 14.8516 12.5477C14.2682 12.2352 13.6536 12.0686 13.0078 12.0477C12.1536 12.0894 11.487 12.1623 11.0078 12.2665C10.5286 12.3706 10.1536 12.5165 9.88281 12.704C9.61198 12.8915 9.40365 13.1102 9.25781 13.3602C9.13281 13.5894 8.9974 13.8498 8.85156 14.1415C8.72656 14.3915 8.61198 14.7769 8.50781 15.2977C8.40365 15.7352 8.29948 16.329 8.19531 17.079C8.11198 17.829 8.01823 18.7977 7.91406 19.9852C8.47656 19.8186 8.92448 19.6623 9.25781 19.5165C9.61198 19.3706 9.89323 19.2456 10.1016 19.1415C10.3307 19.0165 10.4974 18.9019 10.6016 18.7977C10.6849 18.6727 10.8099 18.4436 10.9766 18.1102C11.1016 17.8186 11.2682 17.4227 11.4766 16.9227C11.7057 16.4227 11.9766 15.7352 12.2891 14.8602C12.3307 15.8186 12.3516 16.6206 12.3516 17.2665C12.3516 17.8915 12.362 18.4019 12.3828 18.7977C12.3828 19.2561 12.3932 19.6206 12.4141 19.8915V21.079C12.4141 21.5165 12.4141 22.1102 12.4141 22.8602C12.4349 23.5894 12.4661 24.5165 12.5078 25.6415C12.2578 24.8706 12.0286 24.2665 11.8203 23.829C11.6328 23.3706 11.4661 23.0269 11.3203 22.7977C11.1536 22.5269 11.0078 22.3394 10.8828 22.2352C10.737 22.1936 10.5391 22.1519 10.2891 22.1102C10.0599 22.0894 9.76823 22.079 9.41406 22.079C9.08073 22.079 8.65365 22.1311 8.13281 22.2352C8.07031 23.3811 8.0599 24.3081 8.10156 25.0165C8.16406 25.704 8.2474 26.2352 8.35156 26.6102C8.45573 27.0477 8.58073 27.3602 8.72656 27.5477C8.91406 27.7352 9.28906 27.8915 9.85156 28.0165C10.4141 28.1206 11.0495 28.1623 11.7578 28.1415C12.487 28.0998 13.2266 27.9748 13.9766 27.7665C14.7266 27.5581 15.3932 27.2144 15.9766 26.7352C16.4141 26.3394 16.8828 25.8394 17.3828 25.2352C17.7995 24.7144 18.2578 24.0581 18.7578 23.2665C19.2786 22.4748 19.7891 21.5165 20.2891 20.3915C20.2057 21.329 20.1432 22.1102 20.1016 22.7352C20.0807 23.3394 20.0495 23.829 20.0078 24.204C19.9661 24.6415 19.9349 24.9748 19.9141 25.204C19.9141 25.454 19.8828 25.8081 19.8203 26.2665C19.7786 26.6623 19.7057 27.204 19.6016 27.8915C19.5182 28.5581 19.4036 29.4123 19.2578 30.454C18.2786 30.4748 17.3516 30.4956 16.4766 30.5165C15.6016 30.5165 14.8307 30.5269 14.1641 30.5477C13.3724 30.5686 12.6432 30.5894 11.9766 30.6102C11.2891 30.6102 10.5286 30.6415 9.69531 30.704C8.96615 30.7456 8.10156 30.8081 7.10156 30.8915C6.1224 30.9748 5.03906 31.0894 3.85156 31.2352C3.95573 29.8186 4.02865 28.4852 4.07031 27.2352C4.13281 25.9644 4.17448 24.8498 4.19531 23.8915C4.21615 22.7665 4.21615 21.7248 4.19531 20.7665C4.29948 18.3706 4.25781 16.4331 4.07031 14.954C3.88281 13.4748 3.66406 12.5269 3.41406 12.1102C3.28906 11.9644 3.11198 11.7873 2.88281 11.579C2.69531 11.4123 2.4349 11.2144 2.10156 10.9852C1.76823 10.7561 1.35156 10.4956 0.851562 10.204ZM39.1953 20.454C38.9453 20.4123 38.6328 20.3811 38.2578 20.3602C37.9036 20.3394 37.5599 20.329 37.2266 20.329C36.8516 20.329 36.4557 20.3394 36.0391 20.3602C35.6016 20.3811 35.1641 20.4019 34.7266 20.4227C34.3516 20.4436 33.9245 20.4748 33.4453 20.5165C32.987 20.5373 32.5391 20.5686 32.1016 20.6102C32.2682 20.5269 32.4141 20.4123 32.5391 20.2665C32.6849 20.1206 32.8099 19.9748 32.9141 19.829C33.0182 19.6623 33.112 19.4852 33.1953 19.2977C33.2995 18.9852 33.2891 18.6102 33.1641 18.1727C33.0391 17.7144 32.8099 17.2977 32.4766 16.9227C32.1641 16.5477 31.7578 16.2561 31.2578 16.0477C30.7786 15.8186 30.2474 15.7665 29.6641 15.8915C29.0391 16.0373 28.4766 16.2561 27.9766 16.5477C27.4974 16.8394 27.0911 17.2456 26.7578 17.7665C26.4453 18.2665 26.2161 18.8915 26.0703 19.6415C25.9453 20.3706 25.9141 21.2456 25.9766 22.2665C26.0599 23.5373 26.2682 24.5477 26.6016 25.2977C26.9349 26.0477 27.3411 26.6102 27.8203 26.9852C28.2995 27.3602 28.8203 27.5894 29.3828 27.6727C29.9661 27.7352 30.5391 27.7352 31.1016 27.6727C31.4974 27.5894 31.862 27.4123 32.1953 27.1415C32.4661 26.9123 32.7161 26.579 32.9453 26.1415C33.1745 25.704 33.2786 25.0998 33.2578 24.329L37.0703 24.1727C36.6328 25.4019 36.1016 26.3811 35.4766 27.1102C34.8516 27.8186 34.2474 28.3706 33.6641 28.7665C32.9766 29.2248 32.2891 29.5373 31.6016 29.704C30.7474 29.8498 29.987 29.9123 29.3203 29.8915C28.6536 29.8498 28.0495 29.7456 27.5078 29.579C26.9661 29.4123 26.4661 29.204 26.0078 28.954C25.5495 28.704 25.112 28.4331 24.6953 28.1415C24.4245 27.954 24.1224 27.6415 23.7891 27.204C23.4557 26.7665 23.1432 26.2456 22.8516 25.6415C22.5599 25.0165 22.3203 24.329 22.1328 23.579C21.9453 22.829 21.8724 22.0581 21.9141 21.2665C21.9557 20.454 22.1432 19.6415 22.4766 18.829C22.8099 18.0165 23.3411 17.2352 24.0703 16.4852C25.1745 15.3602 26.3516 14.6311 27.6016 14.2977C28.8724 13.9436 30.0703 13.8498 31.1953 14.0165C32.3203 14.1623 33.3203 14.4852 34.1953 14.9852C35.0703 15.4852 35.6849 16.0269 36.0391 16.6102C36.3932 17.1936 36.6536 17.6415 36.8203 17.954C37.0078 18.2456 37.1432 18.4748 37.2266 18.6415C37.3307 18.7873 37.4141 18.9019 37.4766 18.9852C37.5599 19.0477 37.6745 19.1415 37.8203 19.2665C37.9245 19.3706 38.0495 19.4852 38.1953 19.6102C38.3203 19.7144 38.4661 19.8394 38.6328 19.9852C38.7995 20.1311 38.987 20.2873 39.1953 20.454ZM38.5703 7.86023C39.0495 7.94356 39.487 8.00606 39.8828 8.04773C40.2786 8.06856 40.612 8.0894 40.8828 8.11023C41.1953 8.13106 41.4661 8.14148 41.6953 8.14148C42.0078 8.12065 42.3724 8.0894 42.7891 8.04773C43.1432 8.00606 43.5703 7.95398 44.0703 7.89148C44.5911 7.82898 45.1849 7.74565 45.8516 7.64148C45.5391 7.80815 45.2786 7.97481 45.0703 8.14148C44.862 8.28731 44.6953 8.44356 44.5703 8.61023C44.4245 8.79773 44.3099 8.97481 44.2266 9.14148C44.1224 9.41231 44.0078 9.97481 43.8828 10.829C43.7578 11.5581 43.6016 12.6415 43.4141 14.079C43.2474 15.5165 43.0286 17.4644 42.7578 19.9227C43.5078 19.1727 44.2161 18.6102 44.8828 18.2352C45.5703 17.8394 46.1745 17.5581 46.6953 17.3915C47.2995 17.204 47.862 17.1102 48.3828 17.1102C49.0286 17.1727 49.6849 17.3811 50.3516 17.7352C51.0391 18.0686 51.6745 18.4644 52.2578 18.9227C52.862 19.3811 53.3828 19.8706 53.8203 20.3915C54.2786 20.9123 54.6016 21.3706 54.7891 21.7665C54.9141 22.0373 54.9766 22.3915 54.9766 22.829C54.9766 23.2456 54.9349 23.704 54.8516 24.204C54.7682 24.704 54.6536 25.2144 54.5078 25.7352C54.362 26.2561 54.2161 26.7456 54.0703 27.204C53.9453 27.6623 53.8307 28.0686 53.7266 28.4227C53.6224 28.7561 53.5599 28.9956 53.5391 29.1415C53.4974 29.454 53.5182 29.7561 53.6016 30.0477C53.6641 30.2977 53.7891 30.5686 53.9766 30.8602C54.1641 31.1311 54.4453 31.3602 54.8203 31.5477C54.5286 31.5061 54.2161 31.4748 53.8828 31.454C53.5703 31.4123 53.2682 31.3811 52.9766 31.3602C52.6432 31.3394 52.3099 31.329 51.9766 31.329H50.8516C50.4974 31.329 50.0911 31.3394 49.6328 31.3602C49.1745 31.3602 48.6745 31.3706 48.1328 31.3915C48.4245 31.2873 48.6745 31.1519 48.8828 30.9852C49.0911 30.7977 49.2682 30.6206 49.4141 30.454C49.5807 30.2665 49.7266 30.0686 49.8516 29.8602C49.9349 29.6936 50.0391 29.3811 50.1641 28.9227C50.2891 28.4436 50.4036 27.9019 50.5078 27.2977C50.612 26.6727 50.6849 26.0165 50.7266 25.329C50.7891 24.6415 50.7995 23.9852 50.7578 23.3602C50.737 22.7144 50.6432 22.1415 50.4766 21.6415C50.3307 21.1415 50.1016 20.7769 49.7891 20.5477C48.8516 19.8394 47.9974 19.4956 47.2266 19.5165C46.4766 19.5165 45.7578 19.8186 45.0703 20.4227C44.8203 20.6519 44.5807 20.8811 44.3516 21.1102C44.1432 21.3186 43.9141 21.5686 43.6641 21.8602C43.4141 22.1311 43.1849 22.4123 42.9766 22.704C42.9766 23.0165 42.987 23.3602 43.0078 23.7352C43.0286 24.1102 43.0495 24.4748 43.0703 24.829C43.0911 25.2248 43.1224 25.6206 43.1641 26.0165C43.2057 26.6206 43.2682 27.2144 43.3516 27.7977C43.4141 28.2977 43.4974 28.8498 43.6016 29.454C43.7057 30.0373 43.8411 30.5686 44.0078 31.0477C43.737 31.0061 43.4557 30.9956 43.1641 31.0165C42.8724 31.0165 42.5911 31.0165 42.3203 31.0165C42.0078 31.0373 41.7057 31.0477 41.4141 31.0477C41.1432 31.0686 40.862 31.0998 40.5703 31.1415C40.3203 31.1831 40.0495 31.2248 39.7578 31.2665C39.4661 31.2873 39.1849 31.329 38.9141 31.3915C39.1641 30.9123 39.3724 30.4436 39.5391 29.9852C39.7057 29.5061 39.8411 29.0894 39.9453 28.7352C40.0703 28.3186 40.1745 27.9123 40.2578 27.5165C40.3203 27.204 40.362 26.6102 40.3828 25.7352C40.4245 24.8394 40.4557 23.8186 40.4766 22.6727C40.4974 21.5061 40.5078 20.2769 40.5078 18.9852C40.5078 17.6936 40.4974 16.4644 40.4766 15.2977C40.4557 14.1311 40.4141 13.1102 40.3516 12.2352C40.3099 11.3602 40.2578 10.7561 40.1953 10.4227C40.112 10.0894 39.9974 9.75606 39.8516 9.42273C39.7266 9.13106 39.5599 8.84981 39.3516 8.57898C39.1432 8.28731 38.8828 8.04773 38.5703 7.86023ZM64.9141 17.5477C65.4557 17.5477 66.0182 17.6519 66.6016 17.8602C67.1849 18.0477 67.7474 18.2977 68.2891 18.6102C68.8307 18.9019 69.3203 19.2248 69.7578 19.579C70.2161 19.9123 70.5911 20.2352 70.8828 20.5477C71.4036 21.1102 71.7578 21.8706 71.9453 22.829C72.1536 23.7665 72.1953 24.7352 72.0703 25.7352C71.9453 26.7144 71.6536 27.6415 71.1953 28.5165C70.737 29.3915 70.1016 30.0373 69.2891 30.454C68.7057 30.7456 68.1328 30.9748 67.5703 31.1415C67.0078 31.3081 66.4661 31.4331 65.9453 31.5165C65.4245 31.5998 64.9349 31.6415 64.4766 31.6415C64.0182 31.6415 63.6224 31.6311 63.2891 31.6102C62.6641 31.5686 62.0078 31.3498 61.3203 30.954C60.6536 30.5581 60.0182 30.0686 59.4141 29.4852C58.8307 28.9019 58.3307 28.2665 57.9141 27.579C57.4974 26.8706 57.2474 26.204 57.1641 25.579C57.0391 24.7248 57.0182 23.829 57.1016 22.8915C57.1849 21.954 57.487 21.0894 58.0078 20.2977C58.5495 19.5061 59.362 18.8498 60.4453 18.329C61.5495 17.8081 63.0391 17.5477 64.9141 17.5477ZM63.8828 29.6727C64.112 29.7144 64.4245 29.6623 64.8203 29.5165C65.2161 29.3498 65.6016 29.0894 65.9766 28.7352C66.3724 28.3811 66.7161 27.9331 67.0078 27.3915C67.3203 26.829 67.5078 26.1519 67.5703 25.3602C67.6328 24.5894 67.6328 23.8811 67.5703 23.2352C67.5286 22.5894 67.4349 22.0269 67.2891 21.5477C67.1432 21.0477 66.9766 20.6415 66.7891 20.329C66.6016 20.0165 66.4036 19.7977 66.1953 19.6727C65.8411 19.4852 65.4141 19.3394 64.9141 19.2352C64.4141 19.1102 63.987 19.1311 63.6328 19.2977C63.4661 19.3811 63.2578 19.5581 63.0078 19.829C62.7578 20.0998 62.5078 20.4436 62.2578 20.8602C62.0078 21.2561 61.7786 21.7144 61.5703 22.2352C61.3828 22.7561 61.2474 23.2977 61.1641 23.8602C61.0807 24.4227 61.0599 25.0269 61.1016 25.6727C61.1641 26.3186 61.2995 26.9331 61.5078 27.5165C61.7161 28.079 62.0078 28.5686 62.3828 28.9852C62.7786 29.3811 63.2786 29.6102 63.8828 29.6727ZM81.6953 26.5165C82.2786 26.5165 82.8203 26.454 83.3203 26.329C83.737 26.2248 84.1328 26.0581 84.5078 25.829C84.9036 25.579 85.1641 25.2144 85.2891 24.7352C85.7057 24.8186 86.0599 24.8915 86.3516 24.954C86.6432 24.9956 86.8932 25.0373 87.1016 25.079C87.3307 25.1415 87.5286 25.1831 87.6953 25.204C87.862 25.2456 88.0599 25.2873 88.2891 25.329C88.4974 25.3706 88.7474 25.4227 89.0391 25.4852C89.3516 25.5269 89.7161 25.5894 90.1328 25.6727C89.8203 25.6311 89.4974 25.6623 89.1641 25.7665C88.8516 25.8706 88.5495 25.9852 88.2578 26.1102C87.9245 26.2561 87.612 26.4331 87.3203 26.6415C87.1328 26.7665 86.9141 26.954 86.6641 27.204C86.4349 27.454 86.1016 27.6936 85.6641 27.9227C85.2266 28.1519 84.6432 28.3498 83.9141 28.5165C83.2057 28.6623 82.2891 28.7144 81.1641 28.6727C79.8099 28.6311 78.6745 28.3915 77.7578 27.954C76.8411 27.4956 76.1016 26.9436 75.5391 26.2977C74.9766 25.6311 74.5703 24.9123 74.3203 24.1415C74.0703 23.3706 73.9349 22.6519 73.9141 21.9852C73.8932 21.3186 74.0911 20.6206 74.5078 19.8915C74.9245 19.1623 75.5078 18.4956 76.2578 17.8915C77.0286 17.2873 77.9557 16.7977 79.0391 16.4227C80.1224 16.0269 81.3099 15.829 82.6016 15.829C83.3516 15.829 84.0391 15.9227 84.6641 16.1102C85.3099 16.2769 85.8932 16.5061 86.4141 16.7977C86.9557 17.0894 87.4245 17.4227 87.8203 17.7977C88.2161 18.1519 88.5495 18.5165 88.8203 18.8915C89.0911 19.2873 89.3203 19.704 89.5078 20.1415C89.6745 20.5165 89.8099 20.9436 89.9141 21.4227C90.0182 21.9019 90.0495 22.3915 90.0078 22.8915C88.4245 22.9331 87.1432 22.9644 86.1641 22.9852C85.2057 23.0061 84.4557 23.0165 83.9141 23.0165H82.5078H81.4453C81.0703 23.0165 80.5807 23.0269 79.9766 23.0477C79.3724 23.0686 78.6328 23.0998 77.7578 23.1415C77.862 23.9748 78.1224 24.6206 78.5391 25.079C78.9766 25.5165 79.4349 25.8498 79.9141 26.079C80.4557 26.329 81.0495 26.4748 81.6953 26.5165ZM78.8828 20.8915C79.5495 20.9331 80.1016 20.9644 80.5391 20.9852C80.9974 21.0061 81.3724 21.0269 81.6641 21.0477C81.9766 21.0686 82.2266 21.079 82.4141 21.079H83.1953C83.7161 21.079 84.6849 21.0477 86.1016 20.9852C86.0391 20.0686 85.8411 19.3706 85.5078 18.8915C85.1953 18.4123 84.862 18.0581 84.5078 17.829C84.0911 17.579 83.6328 17.4331 83.1328 17.3915C81.7786 17.4123 80.7682 17.6936 80.1016 18.2352C79.4557 18.7769 79.0495 19.6623 78.8828 20.8915ZM105.039 13.704C104.852 14.1623 104.685 14.579 104.539 14.954C104.414 15.329 104.299 15.6623 104.195 15.954C104.091 16.2873 103.997 16.579 103.914 16.829C103.831 17.1206 103.737 17.454 103.633 17.829C103.529 18.1623 103.393 18.579 103.227 19.079C103.081 19.5581 102.904 20.1311 102.695 20.7977C102.529 19.7977 102.227 19.0061 101.789 18.4227C101.352 17.8186 100.904 17.3498 100.445 17.0165C99.9036 16.6415 99.3203 16.3706 98.6953 16.204C97.5703 16.0165 96.7578 16.0373 96.2578 16.2665C95.7578 16.4956 95.4245 16.7873 95.2578 17.1415C95.1745 17.2873 95.0807 17.4748 94.9766 17.704C94.8932 17.9123 94.8203 18.1311 94.7578 18.3602C94.7161 18.5894 94.7057 18.8186 94.7266 19.0477C94.7474 19.2769 94.8411 19.4644 95.0078 19.6102C95.112 19.7144 95.3828 19.8602 95.8203 20.0477C96.2578 20.2144 96.7786 20.4123 97.3828 20.6415C98.0078 20.8498 98.6641 21.079 99.3516 21.329C100.06 21.579 100.727 21.829 101.352 22.079C101.977 22.329 102.518 22.579 102.977 22.829C103.435 23.079 103.737 23.3081 103.883 23.5165C104.008 23.7248 104.143 24.0061 104.289 24.3602C104.456 24.6936 104.57 25.0686 104.633 25.4852C104.716 25.8811 104.737 26.2977 104.695 26.7352C104.674 27.1519 104.56 27.5686 104.352 27.9852C104.143 28.4019 103.81 28.7873 103.352 29.1415C102.914 29.4956 102.32 29.7873 101.57 30.0165C100.695 30.2873 99.8516 30.3602 99.0391 30.2352C98.2266 30.1102 97.4766 29.9227 96.7891 29.6727C96.1224 29.4227 95.5391 29.1831 95.0391 28.954C94.5391 28.704 94.1849 28.5998 93.9766 28.6415C93.7474 28.6831 93.487 28.7977 93.1953 28.9852C92.9036 29.1727 92.6224 29.3706 92.3516 29.579C92.1016 29.7665 91.8828 29.9436 91.6953 30.1102C91.5078 30.2561 91.4141 30.3081 91.4141 30.2665C91.4141 30.2248 91.4453 30.0998 91.5078 29.8915C91.5911 29.6831 91.6745 29.4331 91.7578 29.1415C91.862 28.829 91.9557 28.4956 92.0391 28.1415C92.1432 27.7665 92.2161 27.4123 92.2578 27.079C92.2995 26.8081 92.3516 26.4748 92.4141 26.079C92.4557 25.7248 92.5078 25.2977 92.5703 24.7977C92.6536 24.2769 92.7474 23.6519 92.8516 22.9227C92.9557 23.4644 93.1016 23.9331 93.2891 24.329C93.4974 24.7248 93.6953 25.0686 93.8828 25.3602C94.112 25.6936 94.3307 25.9748 94.5391 26.204C94.8516 26.4956 95.2161 26.7665 95.6328 27.0165C96.0703 27.2665 96.5078 27.4852 96.9453 27.6727C97.3828 27.8394 97.7995 27.9436 98.1953 27.9852C98.5911 28.0269 98.9245 27.9852 99.1953 27.8602C99.4661 27.7352 99.6953 27.5061 99.8828 27.1727C100.091 26.8394 100.237 26.4748 100.32 26.079C100.404 25.6831 100.435 25.3081 100.414 24.954C100.393 24.579 100.299 24.2769 100.133 24.0477C100.008 23.9019 99.7161 23.7144 99.2578 23.4852C98.8203 23.2561 98.2891 23.0061 97.6641 22.7352C97.0599 22.4644 96.4141 22.1831 95.7266 21.8915C95.0599 21.5998 94.4245 21.3081 93.8203 21.0165C93.237 20.704 92.7474 20.4123 92.3516 20.1415C91.9766 19.8498 91.7682 19.5894 91.7266 19.3602C91.6849 19.0269 91.6536 18.6623 91.6328 18.2665C91.612 17.8498 91.6328 17.4436 91.6953 17.0477C91.7786 16.6311 91.9245 16.2352 92.1328 15.8602C92.362 15.4852 92.6953 15.1727 93.1328 14.9227C93.4245 14.7561 93.8099 14.6311 94.2891 14.5477C94.7682 14.4644 95.2995 14.4227 95.8828 14.4227C96.4661 14.4019 97.0703 14.4227 97.6953 14.4852C98.3203 14.5269 98.9141 14.5894 99.4766 14.6727C100.06 14.7352 100.581 14.8186 101.039 14.9227C101.518 15.0269 101.883 15.1206 102.133 15.204C102.424 15.3081 102.737 15.3186 103.07 15.2352C103.362 15.1727 103.674 15.0373 104.008 14.829C104.341 14.6206 104.685 14.2456 105.039 13.704Z" fill="white"/>
<path d="M35.1133 37.3438C36.1549 37.4062 37.0299 37.4583 37.7383 37.5C38.4674 37.5208 39.0716 37.5417 39.5508 37.5625C40.0924 37.5833 40.5508 37.5833 40.9258 37.5625C41.3008 37.5417 41.8112 37.4896 42.457 37.4062C42.9987 37.3438 43.7174 37.25 44.6133 37.125C45.5299 36.9792 46.6654 36.7917 48.0195 36.5625C47.5404 37.0417 47.1654 37.4792 46.8945 37.875C46.6445 38.25 46.4466 38.5729 46.3008 38.8438C46.1341 39.1771 46.0195 39.4583 45.957 39.6875C45.9154 39.8958 45.957 40.4167 46.082 41.25C46.207 42.0833 46.3841 43.0729 46.6133 44.2188C46.8424 45.3438 47.0924 46.5521 47.3633 47.8438C47.6341 49.1146 47.9049 50.3125 48.1758 51.4375C48.4466 52.5417 48.6862 53.4896 48.8945 54.2812C49.1237 55.0521 49.2904 55.5104 49.3945 55.6562C49.707 56.0938 49.9049 56.3854 49.9883 56.5312C50.0716 56.6562 50.2174 56.7708 50.4258 56.875C50.5091 56.9167 50.6445 56.9792 50.832 57.0625C50.9987 57.1458 51.2174 57.25 51.4883 57.375C51.7799 57.5 52.1445 57.6458 52.582 57.8125C51.7695 57.8542 51.0716 57.8854 50.4883 57.9062C49.9049 57.9062 49.4258 57.9167 49.0508 57.9375C48.6133 57.9583 48.2383 57.9792 47.9258 58C47.6133 58 47.2383 58.0208 46.8008 58.0625C46.4258 58.1042 45.9362 58.1458 45.332 58.1875C44.7487 58.2292 44.0612 58.2708 43.2695 58.3125C43.6862 58.0208 44.0195 57.7604 44.2695 57.5312C44.5404 57.2812 44.7487 57.0729 44.8945 56.9062C45.0612 56.6979 45.1758 56.5104 45.2383 56.3438C45.2799 56.1562 45.3112 55.875 45.332 55.5C45.3529 55.1667 45.3529 54.7292 45.332 54.1875C45.3112 53.625 45.2591 52.8958 45.1758 52L36.957 52.8438C36.7487 53.1979 36.5924 53.5104 36.4883 53.7812C36.3841 54.0312 36.3112 54.25 36.2695 54.4375C36.207 54.6667 36.1862 54.8542 36.207 55C36.2487 55.1667 36.3216 55.3646 36.4258 55.5938C36.5299 55.8021 36.6758 56.0521 36.8633 56.3438C37.0716 56.6146 37.3737 56.9375 37.7695 57.3125C37.2487 57.2917 36.7174 57.2812 36.1758 57.2812C35.6341 57.2812 35.1341 57.2917 34.6758 57.3125C34.1341 57.3333 33.6029 57.3542 33.082 57.375C32.5612 57.3958 31.9674 57.4271 31.3008 57.4688C30.7383 57.5104 30.082 57.5625 29.332 57.625C28.5612 57.6667 27.7383 57.7292 26.8633 57.8125C27.4049 57.5625 27.8633 57.3125 28.2383 57.0625C28.6133 56.7917 28.9258 56.5417 29.1758 56.3125C29.4674 56.0625 29.7174 55.8229 29.9258 55.5938C30.0716 55.3854 30.3633 54.9062 30.8008 54.1562C31.2383 53.3854 31.7279 52.4792 32.2695 51.4375C32.832 50.3958 33.4154 49.2812 34.0195 48.0938C34.6445 46.9062 35.207 45.7917 35.707 44.75C36.207 43.6875 36.6133 42.7708 36.9258 42C37.2383 41.2292 37.3945 40.7292 37.3945 40.5C37.3529 40.2292 37.2487 39.9271 37.082 39.5938C36.9362 39.3021 36.707 38.9688 36.3945 38.5938C36.1029 38.2188 35.6758 37.8021 35.1133 37.3438ZM44.8008 49.6875C44.6758 48.9583 44.5612 48.3333 44.457 47.8125C44.3529 47.2708 44.2695 46.8229 44.207 46.4688C44.1237 46.0521 44.0612 45.6875 44.0195 45.375C43.957 45.0833 43.8841 44.7083 43.8008 44.25C43.7174 43.8542 43.6133 43.3646 43.4883 42.7812C43.3841 42.1771 43.2487 41.4583 43.082 40.625C41.8945 43 40.9674 44.8438 40.3008 46.1562C39.6549 47.4479 39.1862 48.3958 38.8945 49C38.5404 49.7083 38.3424 50.125 38.3008 50.25L44.8008 49.6875ZM64.8945 40.6562C64.707 41.1146 64.5404 41.5312 64.3945 41.9062C64.2695 42.2812 64.1549 42.6146 64.0508 42.9062C63.9466 43.2396 63.8529 43.5312 63.7695 43.7812C63.6862 44.0729 63.5924 44.4062 63.4883 44.7812C63.3841 45.1146 63.2487 45.5312 63.082 46.0312C62.9362 46.5104 62.7591 47.0833 62.5508 47.75C62.3841 46.75 62.082 45.9583 61.6445 45.375C61.207 44.7708 60.7591 44.3021 60.3008 43.9688C59.7591 43.5938 59.1758 43.3229 58.5508 43.1562C57.4258 42.9688 56.6133 42.9896 56.1133 43.2188C55.6133 43.4479 55.2799 43.7396 55.1133 44.0938C55.0299 44.2396 54.9362 44.4271 54.832 44.6562C54.7487 44.8646 54.6758 45.0833 54.6133 45.3125C54.5716 45.5417 54.5612 45.7708 54.582 46C54.6029 46.2292 54.6966 46.4167 54.8633 46.5625C54.9674 46.6667 55.2383 46.8125 55.6758 47C56.1133 47.1667 56.6341 47.3646 57.2383 47.5938C57.8633 47.8021 58.5195 48.0312 59.207 48.2812C59.9154 48.5312 60.582 48.7812 61.207 49.0312C61.832 49.2812 62.3737 49.5312 62.832 49.7812C63.2904 50.0312 63.5924 50.2604 63.7383 50.4688C63.8633 50.6771 63.9987 50.9583 64.1445 51.3125C64.3112 51.6458 64.4258 52.0208 64.4883 52.4375C64.5716 52.8333 64.5924 53.25 64.5508 53.6875C64.5299 54.1042 64.4154 54.5208 64.207 54.9375C63.9987 55.3542 63.6654 55.7396 63.207 56.0938C62.7695 56.4479 62.1758 56.7396 61.4258 56.9688C60.5508 57.2396 59.707 57.3125 58.8945 57.1875C58.082 57.0625 57.332 56.875 56.6445 56.625C55.9779 56.375 55.3945 56.1354 54.8945 55.9062C54.3945 55.6562 54.0404 55.5521 53.832 55.5938C53.6029 55.6354 53.3424 55.75 53.0508 55.9375C52.7591 56.125 52.4779 56.3229 52.207 56.5312C51.957 56.7188 51.7383 56.8958 51.5508 57.0625C51.3633 57.2083 51.2695 57.2604 51.2695 57.2188C51.2695 57.1771 51.3008 57.0521 51.3633 56.8438C51.4466 56.6354 51.5299 56.3854 51.6133 56.0938C51.7174 55.7812 51.8112 55.4479 51.8945 55.0938C51.9987 54.7188 52.0716 54.3646 52.1133 54.0312C52.1549 53.7604 52.207 53.4271 52.2695 53.0312C52.3112 52.6771 52.3633 52.25 52.4258 51.75C52.5091 51.2292 52.6029 50.6042 52.707 49.875C52.8112 50.4167 52.957 50.8854 53.1445 51.2812C53.3529 51.6771 53.5508 52.0208 53.7383 52.3125C53.9674 52.6458 54.1862 52.9271 54.3945 53.1562C54.707 53.4479 55.0716 53.7188 55.4883 53.9688C55.9258 54.2188 56.3633 54.4375 56.8008 54.625C57.2383 54.7917 57.6549 54.8958 58.0508 54.9375C58.4466 54.9792 58.7799 54.9375 59.0508 54.8125C59.3216 54.6875 59.5508 54.4583 59.7383 54.125C59.9466 53.7917 60.0924 53.4271 60.1758 53.0312C60.2591 52.6354 60.2904 52.2604 60.2695 51.9062C60.2487 51.5312 60.1549 51.2292 59.9883 51C59.8633 50.8542 59.5716 50.6667 59.1133 50.4375C58.6758 50.2083 58.1445 49.9583 57.5195 49.6875C56.9154 49.4167 56.2695 49.1354 55.582 48.8438C54.9154 48.5521 54.2799 48.2604 53.6758 47.9688C53.0924 47.6562 52.6029 47.3646 52.207 47.0938C51.832 46.8021 51.6237 46.5417 51.582 46.3125C51.5404 45.9792 51.5091 45.6146 51.4883 45.2188C51.4674 44.8021 51.4883 44.3958 51.5508 44C51.6341 43.5833 51.7799 43.1875 51.9883 42.8125C52.2174 42.4375 52.5508 42.125 52.9883 41.875C53.2799 41.7083 53.6654 41.5833 54.1445 41.5C54.6237 41.4167 55.1549 41.375 55.7383 41.375C56.3216 41.3542 56.9258 41.375 57.5508 41.4375C58.1758 41.4792 58.7695 41.5417 59.332 41.625C59.9154 41.6875 60.4362 41.7708 60.8945 41.875C61.3737 41.9792 61.7383 42.0729 61.9883 42.1562C62.2799 42.2604 62.5924 42.2708 62.9258 42.1875C63.2174 42.125 63.5299 41.9896 63.8633 41.7812C64.1966 41.5729 64.5404 41.1979 64.8945 40.6562ZM66.1758 44.125C66.7174 44.2292 67.1862 44.3125 67.582 44.375C67.9987 44.4167 68.3529 44.4583 68.6445 44.5C68.9779 44.5417 69.2695 44.5729 69.5195 44.5938C69.7695 44.6146 70.0612 44.6354 70.3945 44.6562C70.957 44.6771 71.7487 44.6771 72.7695 44.6562C72.1654 44.6146 71.6862 44.7708 71.332 45.125C70.9987 45.4583 70.7487 45.8438 70.582 46.2812C70.3737 46.8021 70.2591 47.4062 70.2383 48.0938C70.1966 49.0104 70.2174 49.8438 70.3008 50.5938C70.4049 51.3229 70.582 51.9479 70.832 52.4688C71.1029 52.9688 71.457 53.3438 71.8945 53.5938C72.332 53.8229 72.8945 53.8854 73.582 53.7812C74.2695 53.6771 74.7904 53.4375 75.1445 53.0625C75.5195 52.6667 75.7904 52.1875 75.957 51.625C76.1237 51.0417 76.2174 50.3854 76.2383 49.6562C76.2799 48.9271 76.3112 48.1667 76.332 47.375C76.332 46.5833 76.3216 46.0208 76.3008 45.6875C76.3008 45.3333 76.2904 45.1042 76.2695 45C76.2487 44.8958 76.2174 44.8542 76.1758 44.875C76.1341 44.875 76.082 44.8229 76.0195 44.7188C75.9779 44.6354 75.9154 44.5521 75.832 44.4688C75.7695 44.3854 75.6862 44.2917 75.582 44.1875C75.4779 44.0625 75.3633 43.9375 75.2383 43.8125C75.7799 43.8333 76.2591 43.8542 76.6758 43.875C77.1133 43.875 77.4779 43.8854 77.7695 43.9062C78.1029 43.9271 78.3945 43.9479 78.6445 43.9688C78.8737 43.9896 79.1758 44.0208 79.5508 44.0625C79.8633 44.1042 80.2695 44.1458 80.7695 44.1875C81.2695 44.2292 81.8633 44.2917 82.5508 44.375C82.0716 44.4792 81.6862 44.6354 81.3945 44.8438C81.1029 45.0521 80.8737 45.2604 80.707 45.4688C80.5195 45.6979 80.3841 45.9479 80.3008 46.2188C80.2383 46.5729 80.2383 47.1146 80.3008 47.8438C80.3424 48.4896 80.4466 49.375 80.6133 50.5C80.7799 51.625 81.0404 53.1042 81.3945 54.9375L78.9258 56.4062L78.4258 52.25C77.8216 53.2708 77.1758 54.0625 76.4883 54.625C75.8216 55.1667 75.1966 55.5625 74.6133 55.8125C73.9258 56.1042 73.2591 56.2708 72.6133 56.3125C71.7591 56.3125 71.0195 56.2604 70.3945 56.1562C69.7904 56.0312 69.2695 55.875 68.832 55.6875C68.3945 55.5 68.0404 55.2917 67.7695 55.0625C67.5195 54.8125 67.332 54.5625 67.207 54.3125C66.9154 53.7917 66.7591 53.125 66.7383 52.3125C66.7174 51.4792 66.7487 50.6562 66.832 49.8438C66.9154 49.0104 67.0091 48.25 67.1133 47.5625C67.2174 46.875 67.2487 46.4062 67.207 46.1562C67.1654 45.9688 67.1029 45.7604 67.0195 45.5312C66.9362 45.3438 66.832 45.1354 66.707 44.9062C66.582 44.6562 66.4049 44.3958 66.1758 44.125ZM83.9883 55.0625C84.1341 54.375 84.2383 53.7708 84.3008 53.25C84.3841 52.7083 84.4466 52.2604 84.4883 51.9062C84.5299 51.4896 84.5508 51.1354 84.5508 50.8438C84.5299 50.4896 84.5091 50.0729 84.4883 49.5938C84.4883 49.0938 84.4674 48.6042 84.4258 48.125C84.4049 47.625 84.3737 47.1875 84.332 46.8125C84.2904 46.4167 84.2383 46.1354 84.1758 45.9688C84.0924 45.8021 83.9779 45.625 83.832 45.4375C83.5404 45.0833 83.1133 44.7396 82.5508 44.4062C83.0299 44.3021 83.4362 44.2188 83.7695 44.1562C84.1237 44.0729 84.4154 44 84.6445 43.9375C84.8945 43.8542 85.1133 43.7812 85.3008 43.7188C85.4674 43.6562 85.6654 43.5938 85.8945 43.5312C86.082 43.4896 86.3112 43.4375 86.582 43.375C86.8529 43.3125 87.1654 43.2396 87.5195 43.1562L87.4258 46C88.0924 45.2083 88.7695 44.6146 89.457 44.2188C90.1445 43.8229 90.7904 43.5417 91.3945 43.375C92.082 43.1667 92.7591 43.0625 93.4258 43.0625C94.2591 43.1042 95.0299 43.2396 95.7383 43.4688C96.4674 43.6979 97.0924 43.9688 97.6133 44.2812C98.1549 44.5729 98.5924 44.8854 98.9258 45.2188C99.2591 45.5521 99.457 45.8438 99.5195 46.0938C99.7695 46.9062 99.832 47.6562 99.707 48.3438C99.582 49.0104 99.4154 49.6667 99.207 50.3125C99.0195 50.9375 98.8529 51.5625 98.707 52.1875C98.582 52.8125 98.6341 53.4896 98.8633 54.2188C98.9466 54.4062 99.0299 54.5938 99.1133 54.7812C99.1966 54.9479 99.3008 55.1146 99.4258 55.2812C99.5508 55.4479 99.6966 55.5833 99.8633 55.6875C99.6341 55.6667 99.4049 55.6562 99.1758 55.6562C98.9466 55.6354 98.7383 55.6146 98.5508 55.5938C98.3216 55.5729 98.1133 55.5521 97.9258 55.5312C97.7174 55.5104 97.4362 55.5 97.082 55.5C96.4779 55.5 95.5404 55.5312 94.2695 55.5938C94.457 55.1562 94.6029 54.7917 94.707 54.5C94.832 54.1875 94.9362 53.9375 95.0195 53.75C95.1029 53.5208 95.1654 53.3438 95.207 53.2188C95.457 52.6146 95.6029 51.9271 95.6445 51.1562C95.707 50.3854 95.6549 49.6042 95.4883 48.8125C95.4258 48.5417 95.3216 48.2188 95.1758 47.8438C95.0299 47.4688 94.832 47.1042 94.582 46.75C94.3529 46.3958 94.0716 46.0938 93.7383 45.8438C93.4258 45.5938 93.0612 45.4479 92.6445 45.4062C92.2279 45.3646 91.7591 45.4688 91.2383 45.7188C90.7383 45.9688 90.1966 46.4271 89.6133 47.0938C89.1758 47.6562 88.832 48.3438 88.582 49.1562C88.3529 49.8438 88.1966 50.7083 88.1133 51.75C88.0299 52.7708 88.1549 53.9688 88.4883 55.3438C88.1966 55.3021 87.9258 55.2812 87.6758 55.2812C87.4258 55.2604 87.2174 55.2396 87.0508 55.2188C86.8424 55.1979 86.6549 55.1771 86.4883 55.1562C86.3008 55.1562 86.0924 55.1458 85.8633 55.125C85.6549 55.125 85.3945 55.125 85.082 55.125C84.7695 55.1042 84.4049 55.0833 83.9883 55.0625Z" fill="#24BE74"/>
<path d="M16.6836 39.75C17.0221 39.75 17.3737 39.8151 17.7383 39.9453C18.1029 40.0625 18.4544 40.2188 18.793 40.4141C19.1315 40.5964 19.4375 40.7982 19.7109 41.0195C19.9974 41.2279 20.2318 41.4297 20.4141 41.625C20.7396 41.9766 20.9609 42.4518 21.0781 43.0508C21.2083 43.6367 21.2344 44.2422 21.1562 44.8672C21.0781 45.4792 20.8958 46.0586 20.6094 46.6055C20.3229 47.1523 19.9258 47.556 19.418 47.8164C19.0534 47.9987 18.6953 48.1419 18.3438 48.2461C17.9922 48.3503 17.6536 48.4284 17.3281 48.4805C17.0026 48.5326 16.6966 48.5586 16.4102 48.5586C16.1237 48.5586 15.8763 48.5521 15.668 48.5391C15.2773 48.513 14.8672 48.3763 14.4375 48.1289C14.0208 47.8815 13.6237 47.5755 13.2461 47.2109C12.8815 46.8464 12.569 46.4492 12.3086 46.0195C12.0482 45.5768 11.8919 45.1602 11.8398 44.7695C11.7617 44.2357 11.7487 43.6758 11.8008 43.0898C11.8529 42.5039 12.0417 41.9635 12.3672 41.4688C12.7057 40.974 13.2135 40.5638 13.8906 40.2383C14.5807 39.9128 15.5117 39.75 16.6836 39.75ZM16.0391 47.3281C16.1823 47.3542 16.3776 47.3216 16.625 47.2305C16.8724 47.1263 17.1133 46.9635 17.3477 46.7422C17.5951 46.5208 17.8099 46.2409 17.9922 45.9023C18.1875 45.5508 18.3047 45.1276 18.3438 44.6328C18.3828 44.151 18.3828 43.7083 18.3438 43.3047C18.3177 42.901 18.2591 42.5495 18.168 42.25C18.0768 41.9375 17.9727 41.6836 17.8555 41.4883C17.7383 41.293 17.6146 41.1562 17.4844 41.0781C17.263 40.9609 16.9961 40.8698 16.6836 40.8047C16.3711 40.7266 16.1042 40.7396 15.8828 40.8438C15.7786 40.8958 15.6484 41.0065 15.4922 41.1758C15.3359 41.3451 15.1797 41.5599 15.0234 41.8203C14.8672 42.0677 14.724 42.3542 14.5938 42.6797C14.4766 43.0052 14.3919 43.3438 14.3398 43.6953C14.2878 44.0469 14.2747 44.4245 14.3008 44.8281C14.3398 45.2318 14.4245 45.6159 14.5547 45.9805C14.6849 46.332 14.8672 46.638 15.1016 46.8984C15.349 47.1458 15.6615 47.2891 16.0391 47.3281ZM22.9531 49.2031C23.2135 49.0208 23.4219 48.7799 23.5781 48.4805C23.7344 48.181 23.8516 47.888 23.9297 47.6016C24.0208 47.263 24.0794 46.9115 24.1055 46.5469C24.1055 46.3255 24.0924 45.974 24.0664 45.4922C24.0404 45.0885 24.0013 44.5352 23.9492 43.832C23.8971 43.1159 23.819 42.1914 23.7148 41.0586C23.5716 41.0716 23.4479 41.0846 23.3438 41.0977C23.2396 41.0977 23.1549 41.0977 23.0898 41.0977H22.875C22.8099 41.0977 22.7318 41.1042 22.6406 41.1172C22.5625 41.1302 22.4583 41.1497 22.3281 41.1758C22.2109 41.2018 22.0677 41.2344 21.8984 41.2734C21.9245 41.1693 21.9375 41.0651 21.9375 40.9609C21.9505 40.8438 21.9635 40.7396 21.9766 40.6484C21.9896 40.5443 21.9961 40.4466 21.9961 40.3555V40.0625C21.9961 39.9714 21.9961 39.8737 21.9961 39.7695C22.0091 39.6654 22.0221 39.5612 22.0352 39.457L23.5781 39.4961C23.513 38.9362 23.487 38.4349 23.5 37.9922C23.513 37.5365 23.5326 37.1458 23.5586 36.8203C23.5977 36.4427 23.6497 36.1107 23.7148 35.8242C23.806 35.4727 23.9297 35.1471 24.0859 34.8477C24.2422 34.5482 24.457 34.2943 24.7305 34.0859C25.0039 33.8776 25.3424 33.7214 25.7461 33.6172C26.1497 33.5 26.638 33.4414 27.2109 33.4414C27.862 33.4544 28.3763 33.5391 28.7539 33.6953C29.1315 33.8385 29.4115 34.0273 29.5938 34.2617C29.776 34.4831 29.8802 34.737 29.9062 35.0234C29.9323 35.3099 29.9258 35.5898 29.8867 35.8633C29.8607 36.1237 29.8151 36.3646 29.75 36.5859C29.6979 36.8073 29.6784 36.9701 29.6914 37.0742C29.7044 37.1523 29.737 37.2565 29.7891 37.3867C29.8281 37.4909 29.8867 37.6211 29.9648 37.7773C30.056 37.9336 30.1862 38.1094 30.3555 38.3047C30.1471 38.2786 29.9388 38.2591 29.7305 38.2461C29.5221 38.2201 29.3268 38.2005 29.1445 38.1875C28.9362 38.1745 28.7344 38.168 28.5391 38.168C28.3438 38.181 28.1419 38.194 27.9336 38.207C27.7513 38.2331 27.556 38.2591 27.3477 38.2852C27.1393 38.2982 26.944 38.3372 26.7617 38.4023C27.0221 38.2201 27.224 38.0312 27.3672 37.8359C27.5104 37.6406 27.6211 37.4648 27.6992 37.3086C27.7904 37.1263 27.849 36.944 27.875 36.7617C27.888 36.5404 27.875 36.293 27.8359 36.0195C27.8099 35.7331 27.7513 35.4727 27.6602 35.2383C27.569 35.0039 27.4583 34.8151 27.3281 34.6719C27.1979 34.5156 27.0417 34.457 26.8594 34.4961C26.5859 34.6003 26.332 34.8542 26.0977 35.2578C25.9023 35.5964 25.7135 36.1107 25.5312 36.8008C25.349 37.4779 25.2318 38.4219 25.1797 39.6328C25.4271 39.6589 25.6549 39.6784 25.8633 39.6914C26.0846 39.6914 26.2799 39.6979 26.4492 39.7109C26.6445 39.724 26.8268 39.7305 26.9961 39.7305C27.1654 39.7305 27.3542 39.724 27.5625 39.7109C27.7448 39.6979 27.9596 39.6914 28.207 39.6914C28.4544 39.6784 28.7279 39.6589 29.0273 39.6328L28.9883 40.6484C28.7539 40.6745 28.526 40.694 28.3047 40.707C28.0833 40.7201 27.888 40.7331 27.7188 40.7461C27.5234 40.7591 27.3411 40.7721 27.1719 40.7852C26.9896 40.7982 26.8008 40.8112 26.6055 40.8242C26.4362 40.8372 26.2409 40.8568 26.0195 40.8828C25.8112 40.9089 25.5898 40.9349 25.3555 40.9609C25.5378 42.4323 25.694 43.6237 25.8242 44.5352C25.9674 45.4336 26.0911 46.1302 26.1953 46.625C26.2995 47.2109 26.3906 47.6276 26.4688 47.875C26.5469 48.0833 26.638 48.2656 26.7422 48.4219C26.8333 48.5651 26.944 48.7018 27.0742 48.832C27.2044 48.9622 27.3542 49.0469 27.5234 49.0859C27.1068 49.0208 26.7487 48.9688 26.4492 48.9297C26.1497 48.9036 25.8958 48.8841 25.6875 48.8711C25.4531 48.8581 25.2513 48.8516 25.082 48.8516C24.9258 48.8646 24.737 48.8841 24.5156 48.9102C24.138 48.9492 23.6172 49.0469 22.9531 49.2031Z" fill="#A5A8AB"/>
</svg>
