<svg width="594" height="670" viewBox="0 0 594 670" fill="none" xmlns="http://www.w3.org/2000/svg">
<path d="M297.5 302.998C328.75 302.729 354 277.313 354 246C354 214.52 328.48 189 297 189C265.52 189 240 214.52 240 246C240 262.666 247.153 277.662 258.557 288.085C264.296 293.331 268.977 299.982 269.629 307.73C272.257 339.003 276 394.354 276 439C276 503.5 270 587.5 256.5 608.5C270.167 623.833 297.5 657.6 297.5 670V302.998Z" fill="#161616"/>
<path d="M296.5 302.998C265.25 302.729 240 277.313 240 246C240 214.52 265.52 189 297 189C328.48 189 354 214.52 354 246C354 262.666 346.847 277.662 335.443 288.085C329.704 293.331 325.023 299.982 324.371 307.73C321.743 339.003 318 394.354 318 439C318 503.5 324 587.5 337.5 608.5C323.833 623.833 296.5 657.6 296.5 670V302.998Z" fill="#161616"/>
<path d="M297.5 302.998C328.75 302.729 354 277.313 354 246C354 214.52 328.48 189 297 189C265.52 189 240 214.52 240 246C240 262.666 247.153 277.662 258.557 288.085C264.296 293.331 268.977 299.982 269.629 307.73C272.257 339.003 276 394.354 276 439C276 503.5 270 587.5 256.5 608.5C270.167 623.833 297.5 657.6 297.5 670V302.998Z" fill="#161616"/>
<path d="M296.5 302.998C265.25 302.729 240 277.313 240 246C240 214.52 265.52 189 297 189C328.48 189 354 214.52 354 246C354 262.666 346.847 277.662 335.443 288.085C329.704 293.331 325.023 299.982 324.371 307.73C321.743 339.003 318 394.354 318 439C318 503.5 324 587.5 337.5 608.5C323.833 623.833 296.5 657.6 296.5 670V302.998Z" fill="#161616"/>
<path fill-rule="evenodd" clip-rule="evenodd" d="M334.486 408.776C408.668 391.763 464 325.343 464 246C464 153.768 389.232 79 297 79C204.768 79 130 153.768 130 246C130 325.343 185.332 391.763 259.514 408.776C259.163 396.94 258.645 384.899 258.035 373.201C203.593 356.545 164 305.896 164 246C164 172.546 223.546 113 297 113C370.454 113 430 172.546 430 246C430 305.896 390.407 356.545 335.965 373.201C335.355 384.899 334.837 396.94 334.486 408.776ZM318.398 411.642C318.709 400.177 319.181 388.487 319.748 377.062C317.681 377.418 315.598 377.727 313.5 377.987V412.195C315.14 412.034 316.773 411.85 318.398 411.642ZM297.5 412.999V378.999C297.333 379 297.167 379 297 379C296.833 379 296.667 379 296.5 378.999V412.999C296.667 413 296.833 413 297 413C297.167 413 297.333 413 297.5 412.999ZM280.5 412.195V377.987C278.402 377.727 276.319 377.418 274.252 377.062C274.819 388.487 275.291 400.177 275.602 411.642C277.227 411.85 278.86 412.034 280.5 412.195ZM273.425 361.645C273.097 355.95 272.753 350.385 272.401 345.014C275.061 345.673 277.762 346.227 280.5 346.672V362.856C278.118 362.522 275.759 362.118 273.425 361.645ZM257.129 357.094C256.762 350.998 256.378 345.078 255.99 339.421C220.078 323.633 195 287.745 195 246C195 189.667 240.667 144 297 144C353.333 144 399 189.667 399 246C399 287.745 373.922 323.633 338.01 339.421C337.622 345.078 337.238 350.998 336.871 357.094C382.421 340.744 415 297.177 415 246C415 180.83 362.17 128 297 128C231.83 128 179 180.83 179 246C179 297.177 211.579 340.744 257.129 357.094ZM320.575 361.645C320.903 355.95 321.247 350.385 321.599 345.014C318.939 345.673 316.238 346.227 313.5 346.672V362.856C315.882 362.522 318.241 362.118 320.575 361.645ZM297.5 363.999V347.999C297.333 348 297.167 348 297 348C296.833 348 296.667 348 296.5 347.999V363.999C296.667 364 296.833 364 297 364C297.167 364 297.333 364 297.5 363.999Z" fill="#161616"/>
<path d="M50.0004 195C74.4004 197.4 99.8337 212.667 109.5 220C109.5 167.5 85.5 164.5 50.0004 158.5C21.6007 153.7 4.83383 144.833 0.000375497 141C-0.499624 192.5 19.5004 192 50.0004 195Z" fill="#161616"/>
<path d="M25.0002 27.5C-13.7998 85.9 52.5002 109.5 90.5002 114C164.5 126.4 158 160.167 145.5 175.5L202 125.5C196.667 113.167 170.8 86.7 110 79.5C49.2 72.3 28.0001 41.8333 25.0002 27.5Z" fill="#161616"/>
<path d="M69.9997 282.5C95.1997 275.7 114.166 285.333 120.5 291C120.5 256 99.5 250.5 67 254.5C41 257.7 29.1664 250.167 26.4997 246C25.4997 266.5 38.4997 291 69.9997 282.5Z" fill="#161616"/>
<path d="M94 330C79.6 340.8 67.3333 340.167 63 338.5C66.5 358 82.5 364 101 349.5C115.8 337.9 133.833 341 141 344C133 324 112 316.5 94 330Z" fill="#161616"/>
<path d="M136.048 387.177C126.427 399.434 116.028 401.652 112.031 401.23C119.326 416.751 134.049 418.183 146.27 401.914C156.046 388.898 171.82 387.45 178.485 388.353C167.314 373.422 148.074 371.855 136.048 387.177Z" fill="#161616"/>
<path d="M457.469 387.177C467.09 399.434 477.489 401.652 481.486 401.23C474.19 416.751 459.467 418.183 447.247 401.914C437.47 388.898 421.697 387.45 415.032 388.353C426.202 373.422 445.442 371.855 457.469 387.177Z" fill="#161616"/>
<path d="M544 195C519.6 197.4 494.166 212.667 484.5 220C484.5 167.5 508.5 164.5 544 158.5C572.399 153.7 589.166 144.833 594 141C594.5 192.5 574.5 192 544 195Z" fill="#161616"/>
<path d="M569 27.5C607.8 85.9 541.5 109.5 503.5 114C429.5 126.4 436 160.167 448.5 175.5L392 125.5C397.333 113.167 423.2 86.7 484 79.5C544.8 72.3 566 41.8333 569 27.5Z" fill="#161616"/>
<path d="M524 282.5C498.8 275.7 479.834 285.333 473.5 291C473.5 256 494.5 250.5 527 254.5C553 257.7 564.834 250.167 567.5 246C568.5 266.5 555.5 291 524 282.5Z" fill="#161616"/>
<path d="M500 330C514.4 340.8 526.667 340.167 531 338.5C527.5 358 511.5 364 493 349.5C478.2 337.9 460.167 341 453 344C461 324 482 316.5 500 330Z" fill="#161616"/>
<path d="M174 43.8448C228.246 46.3502 237.128 81.5827 234.5 91.5L297 101V0L264.673 50.1083C224.304 28.8122 187.404 37.0592 174 43.8448Z" fill="#161616"/>
<path d="M420 43.8448C365.754 46.3502 356.872 81.5827 359.5 91.5L297 101V0L329.327 50.1083C369.696 28.8122 406.596 37.0592 420 43.8448Z" fill="#161616"/>
<path d="M225 475.5C225 509.5 256.667 544.333 272.5 557.5C277.333 557.5 288 553.6 292 538C297 518.5 279 441.5 279 475.5C279 502.7 243 486.833 225 475.5Z" fill="#161616"/>
<path d="M368.878 475.5C368.878 509.5 337.211 544.333 321.378 557.5C316.545 557.5 305.878 553.6 301.878 538C296.878 518.5 314.878 441.5 314.878 475.5C314.878 502.7 350.878 486.833 368.878 475.5Z" fill="#161616"/>
<path fill-rule="evenodd" clip-rule="evenodd" d="M172.109 380.359C168.43 386.942 159.902 391.317 143 389.5C143.833 410.5 152.7 462.2 181.5 501C199.501 476.275 209.497 456.509 214.689 442.211C206.291 425.276 192.541 403.741 172.109 380.359ZM235.993 450.977C234.214 445.328 228.685 431.383 220.393 419.28C209.823 401.457 194.888 380.947 174.84 359.533L171.253 355.701C171.009 355.116 170.757 354.547 170.5 354L250 406.5C250.167 414 247.6 433.399 236.001 450.999C235.998 450.991 235.995 450.984 235.993 450.977Z" fill="#161616"/>
<path fill-rule="evenodd" clip-rule="evenodd" d="M421.898 380.359C425.578 386.942 434.106 391.317 451.008 389.5C450.174 410.5 441.308 462.2 412.508 501C394.506 476.275 384.511 456.509 379.319 442.211C387.717 425.276 401.467 403.741 421.898 380.359ZM358.015 450.977C359.794 445.328 365.323 431.383 373.615 419.28C384.185 401.457 399.12 380.947 419.168 359.533L422.754 355.701C422.999 355.116 423.251 354.547 423.508 354L344.008 406.5C343.841 414 346.408 433.399 358.007 450.999C358.01 450.991 358.012 450.984 358.015 450.977Z" fill="#161616"/>
</svg>
