<svg width="24" height="25" viewBox="0 0 24 25" fill="none" xmlns="http://www.w3.org/2000/svg">
<g id="tabler:shield-filled" clip-path="url(#clip0_372_6253)">
<g id="Group">
<path id="Vector" d="M11.8834 2.98307L11.9974 2.97607L12.1154 2.98307L12.1744 2.99107L12.2354 3.00407L12.3464 3.03807C12.4231 3.06634 12.496 3.10396 12.5634 3.15007L12.6674 3.23207L12.9224 3.45007C14.9397 5.12564 17.4893 6.02538 20.1114 5.98707L20.4534 5.97707C20.677 5.96687 20.8976 6.03198 21.0798 6.16197C21.262 6.29197 21.3953 6.47933 21.4584 6.69407C21.9498 8.36565 22.1002 10.119 21.9006 11.8498C21.701 13.5806 21.1555 15.2537 20.2965 16.7696C19.4376 18.2854 18.2827 19.6131 16.9005 20.6738C15.5182 21.7346 13.9369 22.5066 12.2504 22.9441C12.0858 22.9868 11.913 22.9868 11.7484 22.9441C10.0618 22.5067 8.48038 21.7347 7.09804 20.6741C5.7157 19.6134 4.56069 18.2857 3.70163 16.7698C2.84257 15.254 2.29701 13.5809 2.09735 11.85C1.89769 10.1191 2.04802 8.36572 2.53941 6.69407C2.60252 6.47933 2.73585 6.29197 2.91805 6.16197C3.10026 6.03198 3.32081 5.96687 3.54441 5.97707C6.28187 6.10221 8.96747 5.20106 11.0754 3.45007L11.3384 3.22507L11.4344 3.15007C11.5019 3.10396 11.5747 3.06634 11.6514 3.03807L11.7634 3.00407C11.8026 2.99461 11.8433 2.98759 11.8834 2.98307Z" fill="black"/>
</g>
</g>
<defs>
<clipPath id="clip0_372_6253">
<rect width="24" height="24" fill="white" transform="translate(0 0.976074)"/>
</clipPath>
</defs>
</svg>
