<svg width="664" height="668" viewBox="0 0 664 668" fill="none" xmlns="http://www.w3.org/2000/svg">
<path fill-rule="evenodd" clip-rule="evenodd" d="M287.678 375.736C287.678 390.619 284.199 425.286 270.284 444.888C265.786 431.68 253.373 402.057 235.978 376.313L185.185 426.919C190.768 433.187 196.01 438.615 200.237 442.712C143.167 459.788 80.9669 509.368 57.0005 532.024L115.98 442.712H99.129L142.943 355.084C143.947 367.534 151.867 382.839 161.942 397.533L182.583 378.412C162.023 356.182 129.597 311.679 126 268.524C135.662 277.794 157.312 294.142 180.084 300.213C178.721 296.72 177.623 293.074 176.792 289.161C175.359 282.413 175.67 275.061 175.988 267.531C176.354 258.857 176.731 249.948 174.462 241.461L110.357 240.727L104.475 234.845L91.0404 233.093C89.9265 235.798 89.048 237.859 88.5 239.024C85.3 245.824 78.8333 247.857 76 248.024L80.5 259.024C66.5 245.024 21 228.857 0 222.524C57.2 223.324 99.1667 192.524 113 177.024C109.608 185.877 104.334 199.545 99.4911 211.897L115.298 208.493L141.169 209.73L141 209.664C153.502 178.99 181.333 115.465 192.639 106.753C194.39 105.404 196.642 103.601 199.252 101.472L196.171 98.3326V91.3811L187.464 80.1111C173.197 90.9318 158.789 100.024 154.106 100.024C151.008 71.5848 146.671 13.8472 154.106 10.4099C160.134 7.62316 160.949 9.22606 163.144 13.5438C164.334 15.8831 165.928 19.0192 168.976 22.6858C176.573 31.8241 200.802 39.0793 214.612 43.2145C216.571 43.8011 218.321 44.3249 219.783 44.7824C225.16 46.4646 214.248 58.1364 199.744 70.3206L218.232 82.205L219.995 84.1375C231.429 74.4479 243.362 64.1867 250.799 57.7479C282.688 31.2489 325.292 1.81519 336.598 0.0727867C350.731 -2.10522 412.696 45.2244 419.219 57.7479C422.513 64.0733 437.681 77.0981 452.657 88.902L458.769 82.205L468.868 75.7136C451.325 61.7959 436.048 46.7127 442.218 44.7824C443.68 44.3249 445.43 43.8011 447.389 43.2145C461.199 39.0792 485.428 31.8241 493.025 22.6858C496.073 19.0192 497.667 15.8831 498.857 13.5438C501.052 9.22605 501.867 7.62316 507.895 10.4099C515.33 13.8472 510.993 71.5848 507.895 100.024C504.272 100.024 494.828 94.5819 484.132 87.1075L480.83 91.3811V98.3326L474.115 105.174C474.87 105.724 475.597 106.251 476.293 106.753C501.691 126.054 530.127 168.595 535.526 189.113L556.845 193.705C557.993 186.756 558.688 180.833 559 177.024C578.201 191.024 637 197.191 664 198.524C638.401 200.524 575.334 221.691 547 232.024C549.454 225.697 551.487 218.782 553.144 211.977L538.824 213.845L532.942 219.727L522.344 219.848C506.997 230.853 503.698 259.222 502.626 303.065C529.09 298.453 555.046 275.621 565.417 263.85C565.446 305.673 538.785 351 520.182 375.559L538.013 391.753L552.922 414.832L574 390.524C587.5 426.857 622.8 508.424 656 544.024C624.5 518.857 551.6 467.224 512 462.024L535.567 434.846L523.786 425.79H513.008L459.095 373.131C454.633 377.361 450.601 381.781 447.484 386.626C431.721 411.129 415.414 451.966 410.522 471.024C402.55 461.223 386.388 437.483 385.518 420.93C384.694 405.24 394.497 394.246 403.076 384.625C405.81 381.559 408.42 378.632 410.522 375.736C411.712 374.097 414.052 371.483 417.205 367.96C421.529 363.129 427.382 356.59 433.894 348.516L412.522 327.641C399.79 337.146 385.074 344.142 369.109 347.895C369.309 342.315 369.633 337.064 370.054 332.157C381.52 328.919 392.173 323.745 401.639 317.011L398.761 314.199L391 281.024L426.357 292.14C438.105 275.408 445 255.021 445 233.024C445 228.868 444.754 224.77 444.276 220.742L409.651 221.139L387.299 207.257L414.828 192.904L436.45 191.87C431.768 181.139 425.31 171.361 417.449 162.905L408.503 172.019L387 177.024L394.82 152.276L399.27 147.4C382.894 136.425 363.195 130.024 342 130.024C318.937 130.024 297.644 137.604 280.477 150.409L282.181 152.276L290 177.024L268.498 172.019L263.232 166.654C250.785 181.411 242.41 199.713 239.838 219.83L256 228.257L239.155 238.719C240.722 267.466 254.076 293.076 274.469 310.798L280 309.024L278.78 314.345C287.141 320.855 296.532 326.103 306.668 329.804C307.603 335.376 308.334 340.883 308.879 346.312C296.699 342.757 285.334 337.291 275.13 330.261L273.036 339.392L260.194 352.187C269.309 360.879 277.631 367.599 283.488 372.327L283.488 372.327L283.488 372.327L283.493 372.331C285.081 373.613 286.487 374.748 287.678 375.736ZM236.913 326.594C236.802 326.451 236.69 326.307 236.579 326.163C234.36 321.943 231.51 317.744 227.947 314.08C214.952 294.31 204.522 270.188 202.241 241.779L224.339 242.032C226.512 270.814 239.009 296.713 258.137 316.036L245.567 320.067L237.588 327.458C237.363 327.171 237.138 326.883 236.913 326.594ZM225.564 213.765C229.16 191.862 238.787 171.988 252.684 155.907L234.226 137.103C217.356 157.942 206.04 183.989 202.76 212.675L225.564 213.765ZM270.322 139.282C290.192 124.065 315.04 115.024 342 115.024C367.094 115.024 390.358 122.857 409.482 136.211L429.323 114.47C402.302 97.3296 369.193 87.1509 336.598 87.1509C304.527 87.1509 274.999 99.0753 251.805 118.992L270.322 139.282ZM452.34 191.111C446.8 176.535 438.456 163.342 427.966 152.19L449.845 129.9C468.394 146.414 481.919 166.81 487.061 189.45L452.34 191.111ZM459.351 220.57C459.78 224.662 460 228.817 460 233.024C460 258.428 451.973 281.956 438.316 301.212L456.106 317.368C472.135 291.504 486.696 258.412 489.017 220.23L459.351 220.57ZM353.179 335.424C354.142 317.245 357.309 303.488 360.674 291.731C361.432 290.504 362.207 289.267 363 288.024C368.532 279.352 373.17 272.961 376.9 267.82C385.645 255.768 389.402 250.59 388 239.024C386 222.524 359.5 180.524 342.5 183.524C328.9 185.924 301.167 227.524 289 248.024C293.503 253.02 299.988 261.263 306.836 271.732C316.136 294.874 321.582 315.704 324.205 334.492C324.114 334.476 324.023 334.46 323.931 334.444C323.809 334.423 323.687 334.401 323.566 334.379C324.296 339.596 324.86 344.755 325.272 349.847C325.44 349.871 325.608 349.895 325.776 349.918C328.907 399.608 311.991 433.733 298.003 458.297L296.421 458.024C298.121 473.543 293.019 498.125 259 472.297C266.598 497.445 287.644 552.703 311.048 572.549C334.453 592.396 352.778 643.802 359.014 667.024C365.024 633.04 383.235 560.179 408 540.604C393.146 538.339 366.566 521.506 379.085 472.297L374.626 471.527L375 471.024C358.958 417.029 353.346 378.978 352.91 350.526L353.018 350.516C353.162 345.207 353.414 340.151 353.754 335.361L353.562 335.382L353.367 335.404L353.179 335.424Z" fill="#161616"/>
</svg>
