<svg width="620" height="622" viewBox="0 0 620 622" fill="none" xmlns="http://www.w3.org/2000/svg">
<path fill-rule="evenodd" clip-rule="evenodd" d="M268.739 350.774C268.739 364.629 265.5 396.903 252.546 415.151C248.358 402.856 236.802 375.278 220.609 351.311L173.322 398.423C178.519 404.259 183.399 409.311 187.334 413.125C134.204 429.022 76.2978 475.18 53.9859 496.272L108.894 413.125H93.2061L133.995 331.547C134.93 343.137 142.303 357.386 151.683 371.066L170.899 353.265C151.759 332.569 121.571 291.139 118.223 250.963C127.218 259.593 147.373 274.812 168.573 280.464C167.304 277.212 166.282 273.818 165.508 270.175C164.174 263.893 164.463 257.048 164.759 250.039C165.101 241.963 165.451 233.669 163.339 225.768L103.661 225.085L98.1845 219.609L85.6774 217.977C84.6403 220.496 83.8225 222.415 83.3123 223.499C80.3332 229.83 74.313 231.723 71.6752 231.878L75.8646 242.118C62.8311 229.085 20.4722 214.034 0.921875 208.138C54.1731 208.883 93.2426 180.209 106.121 165.779C102.963 174.022 98.0529 186.746 93.5446 198.245L108.261 195.076L132.344 196.227L132.187 196.166C143.826 167.61 169.735 108.47 180.261 100.359C181.891 99.1031 183.987 97.4253 186.417 95.4426L183.549 92.5203V86.0487L175.444 75.5567C162.161 85.6305 148.748 94.0949 144.388 94.0949C141.504 67.619 137.466 13.8673 144.388 10.6674C150 8.07297 150.759 9.56521 152.802 13.5849C153.91 15.7627 155.394 18.6823 158.232 22.0958C165.304 30.6032 187.861 37.3575 200.717 41.2073L200.718 41.2075C202.542 41.7535 204.17 42.2411 205.531 42.6669C210.537 44.2331 200.379 55.0991 186.875 66.4421L204.087 77.5061L205.729 79.3051C216.373 70.2845 227.482 60.7316 234.406 54.7374C264.094 30.0677 303.756 2.66595 314.282 1.04384C327.439 -0.983809 385.127 43.0784 391.199 54.7374C394.266 60.6261 408.387 72.7518 422.329 83.7407L428.019 77.5061L437.421 71.4628C421.089 58.5059 406.866 44.464 412.611 42.6669C413.972 42.2411 415.6 41.7535 417.423 41.2075L417.424 41.2073C430.281 37.3575 452.838 30.6032 459.91 22.0958C462.748 18.6823 464.232 15.7627 465.339 13.5849C467.383 9.56521 468.142 8.07297 473.754 10.6674C480.676 13.8673 476.638 67.619 473.754 94.0949C470.38 94.0949 461.589 89.0285 451.631 82.0702L448.557 86.0487V92.5203L442.306 98.8891C443.008 99.4011 443.685 99.8919 444.333 100.359C467.978 118.328 494.451 157.932 499.477 177.034L519.325 181.309C520.393 174.839 521.041 169.325 521.331 165.779C539.206 178.813 593.947 184.554 619.083 185.795C595.25 187.657 536.537 207.362 510.16 216.982C512.444 211.092 514.337 204.655 515.879 198.319L502.548 200.058L497.072 205.534L487.205 205.647C472.918 215.892 469.847 242.303 468.848 283.119C493.485 278.826 517.649 257.57 527.304 246.611C527.332 285.547 502.511 327.745 485.193 350.609L501.793 365.684L515.672 387.17L535.295 364.54C547.864 398.365 580.727 474.301 611.635 507.444C582.309 484.014 514.442 435.945 477.576 431.104L499.515 405.803L488.548 397.372H478.514L428.323 348.348C424.168 352.286 420.415 356.401 417.513 360.912C402.838 383.723 387.657 421.741 383.103 439.483C375.681 430.359 360.635 408.257 359.825 392.847C359.058 378.24 368.184 368.005 376.17 359.049C378.716 356.194 381.146 353.469 383.103 350.774C384.21 349.248 386.389 346.814 389.324 343.534L389.325 343.534L389.325 343.533C393.351 339.036 398.799 332.949 404.862 325.433L384.965 305.999C373.112 314.848 359.412 321.36 344.549 324.855C344.735 319.66 345.038 314.771 345.429 310.203C356.103 307.188 366.021 302.372 374.834 296.103L372.153 293.485L364.929 262.6L397.845 272.949C408.782 257.371 415.202 238.392 415.202 217.913C415.202 214.044 414.972 210.229 414.527 206.48L382.292 206.849L361.483 193.925L387.111 180.563L407.242 179.601C402.883 169.61 396.871 160.507 389.552 152.635L381.223 161.12L361.205 165.779L368.484 142.74L372.628 138.2C357.382 127.983 339.043 122.024 319.312 122.024C297.841 122.024 278.018 129.081 262.036 141.002L263.622 142.74L270.901 165.779L250.883 161.12L245.981 156.125C234.394 169.863 226.597 186.902 224.202 205.63L239.249 213.475L223.567 223.215C225.025 249.978 237.458 273.82 256.442 290.318L261.592 288.667L260.456 293.62C268.24 299.68 276.983 304.566 286.419 308.012C287.289 313.199 287.97 318.326 288.477 323.381C277.138 320.071 266.558 314.982 257.058 308.437L255.109 316.939L243.153 328.85C251.638 336.942 259.387 343.198 264.839 347.6C266.318 348.795 267.629 349.853 268.739 350.774ZM222.107 305.828C221.793 305.429 221.48 305.027 221.168 304.622C219.102 300.694 216.449 296.785 213.132 293.374C201.034 274.969 191.324 252.512 189.2 226.064L209.774 226.3C211.796 253.094 223.431 277.205 241.238 295.194L229.536 298.947L222.107 305.828ZM210.914 199.984C214.261 179.593 223.224 161.092 236.161 146.121L218.978 128.615C203.271 148.014 192.737 172.264 189.683 198.969L210.914 199.984ZM252.581 130.643C271.08 116.477 294.213 108.059 319.312 108.059C342.673 108.059 364.331 115.351 382.134 127.784L400.605 107.544C375.45 91.5866 344.627 82.1105 314.282 82.1105C284.425 82.1105 256.936 93.2118 235.342 111.753L252.581 130.643ZM422.034 178.893C416.877 165.324 409.109 153.042 399.343 142.66L419.711 121.908C436.979 137.282 449.571 156.27 454.358 177.348L422.034 178.893ZM428.561 206.319C428.961 210.129 429.166 213.997 429.166 217.913C429.166 241.563 421.693 263.468 408.978 281.394L425.539 296.434C440.463 272.357 454.018 241.549 456.178 206.003L428.561 206.319ZM329.718 313.245C330.615 296.32 333.563 283.513 336.696 272.568C337.401 271.425 338.123 270.274 338.862 269.116C344.012 261.043 348.329 255.093 351.802 250.307C359.943 239.088 363.441 234.267 362.136 223.499C360.274 208.138 335.603 169.038 319.777 171.831C307.116 174.065 281.297 212.793 269.97 231.878C274.162 236.529 280.199 244.202 286.575 253.949C295.232 275.493 300.302 294.885 302.745 312.377C302.546 312.342 302.348 312.307 302.15 312.271C302.829 317.128 303.355 321.931 303.739 326.672C303.895 326.694 304.051 326.716 304.207 326.737C307.122 372.997 291.374 404.766 278.351 427.635L276.878 427.38C278.462 441.828 273.711 464.713 242.041 440.668C249.114 464.08 268.707 515.523 290.496 533.999C312.285 552.476 329.345 600.333 335.151 621.952C340.746 590.315 357.7 522.483 380.755 504.26C366.926 502.151 342.181 486.48 353.836 440.668L349.685 439.952L350.033 439.483C335.099 389.216 329.874 353.791 329.467 327.304L329.569 327.295C329.703 322.351 329.938 317.645 330.255 313.185C330.076 313.205 329.897 313.225 329.718 313.245Z" fill="#24BE74"/>
</svg>
