<svg width="128" height="47" viewBox="0 0 128 47" fill="none" xmlns="http://www.w3.org/2000/svg">
<g id="Vector">
<g id="Vector_2">
<path d="M0.128 20.032C0.512 19.9467 0.832 19.84 1.088 19.712C1.36533 19.584 1.64267 19.3813 1.92 19.104V2.24C1.536 1.87733 0.896 1.54667 0 1.248L0.128 0H6.976C9.92 0 12.2987 0.373334 14.112 1.12C15.9467 1.86667 17.3013 3.02934 18.176 4.608C19.0507 6.16533 19.488 8.192 19.488 10.688C19.488 13.184 19.0507 15.2107 18.176 16.768C17.3013 18.3253 15.9253 19.4773 14.048 20.224C12.192 20.9707 9.77067 21.344 6.784 21.344H0L0.128 20.032ZM7.904 19.36C10.208 19.36 11.872 18.6667 12.896 17.28C13.9413 15.8933 14.464 13.6853 14.464 10.656C14.464 7.60533 13.9627 5.39733 12.96 4.032C11.9573 2.66667 10.304 1.984 8 1.984H6.656V19.232C6.99733 19.3173 7.41333 19.36 7.904 19.36Z" fill="white"/>
<path d="M27.618 21.568C26.1673 21.568 25.0047 21.1307 24.13 20.256C23.2553 19.3813 22.818 18.176 22.818 16.64V10.016C22.818 9.248 22.6687 8.72533 22.37 8.448C22.0927 8.14933 21.5807 7.97867 20.834 7.936L20.93 6.688C21.25 6.624 21.826 6.528 22.658 6.4C24.9407 6.016 26.3167 5.74933 26.786 5.6L27.33 5.888V16.352C27.33 18.4 27.9913 19.424 29.314 19.424C29.8687 19.424 30.402 19.264 30.914 18.944C31.4473 18.624 31.874 18.1973 32.194 17.664V10.016C32.194 9.248 32.0447 8.72533 31.746 8.448C31.4473 8.14933 30.9247 7.97867 30.178 7.936L30.274 6.688C30.594 6.624 31.17 6.528 32.002 6.4C34.2847 6.016 35.6607 5.74933 36.13 5.6L36.706 5.888V19.36C36.898 19.5307 37.2073 19.7013 37.634 19.872C38.0607 20.0213 38.4873 20.1387 38.914 20.224L38.818 21.344H32.706L32.386 19.296C31.81 20 31.106 20.5547 30.274 20.96C29.4633 21.3653 28.578 21.568 27.618 21.568Z" fill="white"/>
<path d="M40.974 20.032C41.3793 19.9467 41.6887 19.8507 41.902 19.744C42.1367 19.6373 42.3927 19.4667 42.67 19.232V10.016C42.67 9.248 42.5207 8.72533 42.222 8.448C41.9233 8.14933 41.4007 7.97867 40.654 7.936L40.75 6.688L41.806 6.496C44.0673 6.112 45.5393 5.81333 46.222 5.6L46.798 5.888L47.054 7.744C47.63 7.06133 48.3127 6.53867 49.102 6.176C49.9127 5.792 50.798 5.6 51.758 5.6C53.2087 5.6 54.3607 6.03733 55.214 6.912C56.0887 7.78667 56.526 8.992 56.526 10.528V19.232C57.0593 19.6373 57.742 19.9253 58.574 20.096L58.446 21.344H50.35L50.446 20.096C51.086 19.968 51.6087 19.68 52.014 19.232V10.816C52.014 9.77067 51.8433 9.00267 51.502 8.512C51.182 8 50.6913 7.744 50.03 7.744C49.4753 7.744 48.9313 7.904 48.398 8.224C47.886 8.544 47.4807 8.97067 47.182 9.504V19.232C47.6727 19.616 48.3127 19.904 49.102 20.096L48.974 21.344H40.878L40.974 20.032Z" fill="white"/>
<path d="M67.5505 28.352C65.0332 28.352 63.0918 28 61.7265 27.296C60.3612 26.6133 59.6785 25.6213 59.6785 24.32C59.6785 23.488 59.8812 22.7413 60.2865 22.08C60.6918 21.4187 61.3212 20.8 62.1745 20.224C61.8545 19.712 61.6945 19.072 61.6945 18.304L64.4785 16.352C63.1772 15.9893 62.1638 15.3707 61.4385 14.496C60.7132 13.6 60.3505 12.5227 60.3505 11.264C60.3505 9.472 60.9265 8.08533 62.0785 7.104C63.2518 6.10133 64.8945 5.6 67.0065 5.6C68.7132 5.6 70.1318 5.952 71.2625 6.656C71.5612 6.4 71.7105 6.05867 71.7105 5.632C71.7105 5.20533 71.4545 4.85333 70.9425 4.576C70.9425 4.21333 71.1025 3.89333 71.4225 3.616C71.7638 3.33867 72.1585 3.2 72.6065 3.2C73.1398 3.2 73.5665 3.36 73.8865 3.68C74.2278 3.97867 74.3985 4.37333 74.3985 4.864C74.3985 5.39733 74.2065 5.93067 73.8225 6.464C73.4598 6.976 73.0012 7.37067 72.4465 7.648C73.2358 8.608 73.6305 9.81333 73.6305 11.264C73.6305 12.9067 73.0332 14.2187 71.8385 15.2C70.6438 16.16 69.0332 16.64 67.0065 16.64H66.4945L65.4065 18.016C65.4278 18.2507 65.5772 18.4213 65.8545 18.528C66.1532 18.6133 66.6225 18.656 67.2625 18.656H68.6065C70.7398 18.656 72.3505 19.072 73.4385 19.904C74.5478 20.7147 75.1025 21.9093 75.1025 23.488C75.1025 25.0453 74.4518 26.24 73.1505 27.072C71.8492 27.9253 69.9825 28.352 67.5505 28.352ZM67.0065 15.072C67.9025 15.072 68.5212 14.8053 68.8625 14.272C69.2038 13.7173 69.3745 12.7147 69.3745 11.264C69.3745 9.83467 69.1825 8.8 68.7985 8.16C68.4358 7.52 67.8385 7.2 67.0065 7.2C66.2598 7.2 65.7158 7.52 65.3745 8.16C65.0332 8.8 64.8625 9.83467 64.8625 11.264C64.8625 12.3093 64.9158 13.0987 65.0225 13.632C65.1505 14.1653 65.3638 14.5387 65.6625 14.752C65.9612 14.9653 66.4092 15.072 67.0065 15.072ZM67.5505 26.56C68.8518 26.56 69.8118 26.336 70.4305 25.888C71.0705 25.4613 71.3905 24.7787 71.3905 23.84C71.3905 22.176 70.2065 21.344 67.8385 21.344H64.9265C64.5425 21.728 64.2652 22.112 64.0945 22.496C63.9238 22.9013 63.8385 23.3493 63.8385 23.84C63.8385 24.7787 64.1372 25.4613 64.7345 25.888C65.3318 26.336 66.2705 26.56 67.5505 26.56Z" fill="white"/>
<path d="M83.2647 21.568C80.7901 21.568 78.9234 20.8747 77.6647 19.488C76.4274 18.08 75.8087 16.16 75.8087 13.728C75.8087 11.1893 76.4701 9.20533 77.7927 7.776C79.1154 6.32533 81.0247 5.6 83.5208 5.6C85.9101 5.6 87.6061 6.15467 88.6087 7.264C89.6114 8.37333 90.1768 10.0267 90.3047 12.224L89.4088 13.568H80.3848V14.08C80.3848 15.872 80.6407 17.2053 81.1527 18.08C81.6647 18.9333 82.6248 19.36 84.0328 19.36C84.8434 19.36 85.6328 19.2213 86.4007 18.944C87.1901 18.6453 87.8728 18.1973 88.4488 17.6L89.7288 18.848C88.8541 19.7227 87.9368 20.3947 86.9768 20.864C86.0381 21.3333 84.8008 21.568 83.2647 21.568ZM85.7607 12.032C85.7607 10.3253 85.5901 9.088 85.2487 8.32C84.9074 7.552 84.2888 7.168 83.3928 7.168C81.4514 7.168 80.4488 8.87467 80.3848 12.288L85.7607 12.032Z" fill="white"/>
<path d="M99.895 21.568C97.3563 21.568 95.4363 20.896 94.135 19.552C92.855 18.208 92.215 16.2347 92.215 13.632C92.215 11.008 92.855 9.01333 94.135 7.648C95.4363 6.28267 97.3563 5.6 99.895 5.6C102.434 5.6 104.343 6.28267 105.623 7.648C106.924 9.01333 107.575 10.9973 107.575 13.6C107.575 16.2027 106.924 18.1867 105.623 19.552C104.343 20.896 102.434 21.568 99.895 21.568ZM99.895 19.776C100.94 19.776 101.698 19.296 102.167 18.336C102.636 17.3547 102.871 15.776 102.871 13.6C102.871 11.424 102.636 9.84534 102.167 8.864C101.698 7.88267 100.94 7.392 99.895 7.392C98.8497 7.392 98.0923 7.88267 97.623 8.864C97.1537 9.84534 96.919 11.424 96.919 13.6C96.919 15.776 97.1537 17.3547 97.623 18.336C98.0923 19.296 98.8497 19.776 99.895 19.776Z" fill="white"/>
<path d="M109.568 20.032C109.973 19.9467 110.282 19.8507 110.496 19.744C110.73 19.6373 110.986 19.4667 111.264 19.232V10.016C111.264 9.248 111.114 8.72533 110.816 8.448C110.517 8.14933 109.994 7.97867 109.248 7.936L109.344 6.688L110.4 6.496C112.661 6.112 114.133 5.81333 114.816 5.6L115.392 5.888L115.648 7.744C116.224 7.06133 116.906 6.53867 117.696 6.176C118.506 5.792 119.392 5.6 120.352 5.6C121.802 5.6 122.954 6.03733 123.808 6.912C124.682 7.78667 125.12 8.992 125.12 10.528V19.232C125.653 19.6373 126.336 19.9253 127.168 20.096L127.04 21.344H118.944L119.04 20.096C119.68 19.968 120.202 19.68 120.608 19.232V10.816C120.608 9.77067 120.437 9.00267 120.096 8.512C119.776 8 119.285 7.744 118.624 7.744C118.069 7.744 117.525 7.904 116.992 8.224C116.48 8.544 116.074 8.97067 115.776 9.504V19.232C116.266 19.616 116.906 19.904 117.696 20.096L117.568 21.344H109.472L109.568 20.032Z" fill="white"/>
<path d="M31.672 38.504C30.8827 38.504 30.1573 38.328 29.496 37.976C28.8347 37.6133 28.3067 37.0853 27.912 36.392C27.5173 35.6987 27.32 34.856 27.32 33.864C27.32 33.0427 27.432 32.2587 27.656 31.512C27.8907 30.7653 28.232 30.104 28.68 29.528C29.1387 28.9413 29.704 28.4773 30.376 28.136C31.048 27.7947 31.8213 27.624 32.696 27.624C33.4853 27.624 34.2053 27.8053 34.856 28.168C35.5067 28.5307 36.024 29.0587 36.408 29.752C36.8027 30.4347 37 31.272 37 32.264C37 33.0747 36.8827 33.8533 36.648 34.6C36.424 35.3467 36.088 36.0133 35.64 36.6C35.192 37.1867 34.6373 37.6507 33.976 37.992C33.3147 38.3333 32.5467 38.504 31.672 38.504ZM31.752 37.752C32.4773 37.752 33.112 37.6027 33.656 37.304C34.2107 36.9947 34.6693 36.584 35.032 36.072C35.4053 35.56 35.688 34.9787 35.88 34.328C36.072 33.6773 36.168 33.0053 36.168 32.312C36.168 31.4693 36.008 30.76 35.688 30.184C35.3787 29.5973 34.9573 29.1493 34.424 28.84C33.8907 28.5307 33.2827 28.376 32.6 28.376C31.8747 28.376 31.2347 28.5307 30.68 28.84C30.1253 29.1387 29.6613 29.544 29.288 30.056C28.9147 30.568 28.632 31.1493 28.44 31.8C28.248 32.44 28.152 33.112 28.152 33.816C28.152 34.6587 28.3067 35.3733 28.616 35.96C28.936 36.536 29.368 36.9787 29.912 37.288C30.456 37.5973 31.0693 37.752 31.752 37.752Z" fill="white"/>
<path d="M38.6726 38.344L40.8646 28.872C40.982 28.3707 41.1526 27.9493 41.3766 27.608C41.6113 27.2667 41.9046 27.0107 42.2566 26.84C42.6086 26.6693 43.0246 26.584 43.5046 26.584C43.7713 26.584 44.0166 26.6213 44.2406 26.696C44.4753 26.76 44.662 26.856 44.8006 26.984L44.5126 27.64C44.406 27.5333 44.262 27.4533 44.0806 27.4C43.8993 27.336 43.7073 27.304 43.5046 27.304C42.9606 27.304 42.5393 27.4533 42.2406 27.752C41.9526 28.04 41.734 28.504 41.5846 29.144L41.3126 30.344L41.2486 30.632L39.4726 38.344H38.6726ZM38.7366 31.032L38.8966 30.344H43.9366L43.7766 31.032H38.7366Z" fill="white"/>
<path d="M43.104 45.064C43.6373 45.0427 44.0747 44.9467 44.416 44.776C44.7787 44.6053 45.0133 44.3813 45.12 44.104L51.872 25H55.2L62.016 43.784C62.144 44.1253 62.3573 44.4027 62.656 44.616C62.976 44.808 63.4347 44.9573 64.032 45.064L63.872 46.344H55.104L55.296 45.064C56.2773 44.9147 56.9173 44.648 57.216 44.264L55.712 39.688H49.12L47.584 44.104C48.1813 44.5947 49.088 44.9147 50.304 45.064L50.144 46.344H42.912L43.104 45.064ZM55.04 37.672L52.544 29.992L49.824 37.672H55.04Z" fill="#24BE74"/>
<path d="M70.5703 46.6C69.7383 46.6 68.7356 46.4293 67.5622 46.088C66.4102 45.7253 65.5249 45.3307 64.9062 44.904V41.384L68.2022 40.904C68.2236 41.608 68.2982 42.3547 68.4262 43.144C68.5756 43.912 68.7249 44.4347 68.8743 44.712C69.4716 44.904 70.0583 45 70.6342 45C71.2742 45 71.8076 44.7973 72.2343 44.392C72.6609 43.9867 72.8743 43.4747 72.8743 42.856C72.8743 42.216 72.6182 41.6613 72.1062 41.192C71.5942 40.7227 70.7409 40.2853 69.5462 39.88C67.9676 39.3467 66.8049 38.6853 66.0583 37.896C65.3116 37.0853 64.9382 36.072 64.9382 34.856C64.9382 33.512 65.4823 32.4667 66.5703 31.72C67.6796 30.952 69.2156 30.568 71.1783 30.568C72.2236 30.568 73.1942 30.7067 74.0902 30.984C74.9863 31.24 75.6902 31.6027 76.2022 32.072C76.7356 32.52 77.0023 33.0213 77.0023 33.576C77.0023 34.3227 76.7889 34.92 76.3623 35.368C75.9569 35.816 75.4129 36.04 74.7302 36.04C74.2822 36.04 73.8663 35.9547 73.4823 35.784C73.0983 35.592 72.7889 35.3253 72.5543 34.984C72.9809 34.5147 73.1943 34.0347 73.1943 33.544C73.1943 33.0747 73.0129 32.7013 72.6503 32.424C72.2876 32.1467 71.7969 32.008 71.1783 32.008C70.5596 32.008 70.0583 32.2107 69.6742 32.616C69.2902 33.0213 69.0983 33.5547 69.0983 34.216C69.0983 34.7707 69.3542 35.2507 69.8662 35.656C70.3783 36.04 71.3063 36.4667 72.6503 36.936C74.2076 37.4907 75.3382 38.1627 76.0423 38.952C76.7676 39.72 77.1302 40.6693 77.1302 41.8C77.1302 43.3147 76.5543 44.4987 75.4023 45.352C74.2503 46.184 72.6396 46.6 70.5703 46.6Z" fill="#24BE74"/>
<path d="M85.493 46.568C84.0423 46.568 82.8797 46.1307 82.005 45.256C81.1303 44.3813 80.693 43.176 80.693 41.64V35.016C80.693 34.248 80.5437 33.7253 80.245 33.448C79.9677 33.1493 79.4557 32.9787 78.709 32.936L78.805 31.688C79.125 31.624 79.701 31.528 80.533 31.4C82.8157 31.016 84.1917 30.7493 84.661 30.6L85.205 30.888V41.352C85.205 43.4 85.8663 44.424 87.189 44.424C87.7437 44.424 88.277 44.264 88.789 43.944C89.3223 43.624 89.749 43.1973 90.069 42.664V35.016C90.069 34.248 89.9197 33.7253 89.621 33.448C89.3223 33.1493 88.7997 32.9787 88.053 32.936L88.149 31.688C88.469 31.624 89.045 31.528 89.877 31.4C92.1597 31.016 93.5357 30.7493 94.005 30.6L94.581 30.888V44.36C94.773 44.5307 95.0823 44.7013 95.509 44.872C95.9357 45.0213 96.3623 45.1387 96.789 45.224L96.693 46.344H90.581L90.261 44.296C89.685 45 88.981 45.5547 88.149 45.96C87.3383 46.3653 86.453 46.568 85.493 46.568Z" fill="#24BE74"/>
<path d="M98.849 45.032C99.2543 44.9467 99.5637 44.8507 99.777 44.744C100.012 44.6373 100.268 44.4667 100.545 44.232V35.016C100.545 34.248 100.396 33.7253 100.097 33.448C99.7983 33.1493 99.2757 32.9787 98.529 32.936L98.625 31.688L99.681 31.496C101.942 31.112 103.414 30.8133 104.097 30.6L104.673 30.888L104.929 32.744C105.505 32.0613 106.188 31.5387 106.977 31.176C107.788 30.792 108.673 30.6 109.633 30.6C111.084 30.6 112.236 31.0373 113.089 31.912C113.964 32.7867 114.401 33.992 114.401 35.528V44.232C114.934 44.6373 115.617 44.9253 116.449 45.096L116.321 46.344H108.225L108.321 45.096C108.961 44.968 109.484 44.68 109.889 44.232V35.816C109.889 34.7707 109.718 34.0027 109.377 33.512C109.057 33 108.566 32.744 107.905 32.744C107.35 32.744 106.806 32.904 106.273 33.224C105.761 33.544 105.356 33.9707 105.057 34.504V44.232C105.548 44.616 106.188 44.904 106.977 45.096L106.849 46.344H98.753L98.849 45.032Z" fill="#24BE74"/>
</g>
</g>
</svg>
