<svg width="147" height="70" viewBox="0 0 147 70" fill="none" xmlns="http://www.w3.org/2000/svg">
<path d="M5.376 32.7577C5.696 32.0537 6.08 31.147 6.528 30.0377C6.976 28.9284 7.44533 27.7337 7.936 26.4537C8.42667 25.1524 8.928 23.8297 9.44 22.4857C9.952 21.1204 10.432 19.8297 10.88 18.6137C11.328 17.3977 11.712 16.3097 12.032 15.3497C12.3733 14.3897 12.6187 13.6537 12.768 13.1417C11.424 13.6964 10.272 14.539 9.312 15.6697C8.352 16.8004 7.62667 18.219 7.136 19.9257C6.64533 19.755 6.19733 19.4564 5.792 19.0297C5.38667 18.5817 5.12 18.027 4.992 17.3657C5.20533 16.3844 5.6 15.4884 6.176 14.6777C6.77333 13.867 7.52 13.1737 8.416 12.5977C9.312 12.0217 10.3467 11.5844 11.52 11.2857C12.6933 10.9657 13.952 10.8057 15.296 10.8057C17.0027 10.8057 18.5707 11.0617 20 11.5737C21.4293 12.0644 22.656 12.7577 23.68 13.6537C24.704 14.5497 25.504 15.627 26.08 16.8857C26.656 18.1444 26.944 19.5417 26.944 21.0777C26.944 23.1684 26.56 25.163 25.792 27.0617C25.024 28.9604 23.9787 30.635 22.656 32.0857C21.3547 33.5364 19.84 34.6884 18.112 35.5417C16.384 36.4164 14.5707 36.8537 12.672 36.8537C10.9227 36.8537 9.41867 36.5017 8.16 35.7977C6.92267 35.115 5.99467 34.1017 5.376 32.7577ZM16.672 12.4057C15.6053 12.4057 14.592 12.555 13.632 12.8537C14.5707 13.195 15.3493 13.5577 15.968 13.9417C16.5867 14.3044 17.0133 14.5924 17.248 14.8057C17.0773 15.0404 16.8213 15.4564 16.48 16.0537C16.16 16.651 15.776 17.3764 15.328 18.2297C14.9013 19.083 14.4427 20.0217 13.952 21.0457C13.4613 22.0484 12.9813 23.083 12.512 24.1497C11.296 26.859 10.4107 28.9924 9.856 30.5497C9.32267 32.107 9.056 33.1844 9.056 33.7817C9.35467 33.8884 9.71733 33.963 10.144 34.0057C10.5707 34.0484 11.0293 34.0697 11.52 34.0697C13.248 34.0697 14.88 33.675 16.416 32.8857C17.9733 32.075 19.328 30.9977 20.48 29.6537C21.6533 28.3097 22.5707 26.7524 23.232 24.9817C23.9147 23.1897 24.256 21.3124 24.256 19.3497C24.256 17.1524 23.5733 15.4457 22.208 14.2297C20.8427 13.0137 18.9973 12.4057 16.672 12.4057ZM36.5268 33.7177C36.1214 33.3764 35.8441 32.9497 35.6948 32.4377C35.5668 31.9257 35.5028 31.4884 35.5028 31.1257C35.5028 30.6777 35.5561 30.2937 35.6628 29.9737C35.5774 29.9737 35.3854 30.1444 35.0868 30.4857C34.7881 30.827 34.4574 31.2324 34.0948 31.7017C33.7534 32.171 33.4121 32.6297 33.0708 33.0777C32.7294 33.5257 32.4734 33.8564 32.3028 34.0697C32.0254 34.3684 31.7588 34.603 31.5028 34.7737C31.2681 34.9444 31.0761 35.0404 30.9268 35.0617C30.5854 35.0404 30.2228 34.9657 29.8388 34.8377C29.4761 34.731 29.1241 34.571 28.7828 34.3577C28.4628 34.1444 28.1748 33.8884 27.9188 33.5897C27.6841 33.291 27.5241 32.9497 27.4388 32.5657C27.4388 31.9684 27.4494 31.4777 27.4708 31.0937C27.5134 30.7097 27.5881 30.2937 27.6948 29.8457C27.8868 29.035 28.1641 28.1177 28.5268 27.0937C28.9108 26.0697 29.3481 25.067 29.8388 24.0857C30.3294 23.083 30.8734 22.155 31.4708 21.3017C32.0894 20.427 32.7401 19.7444 33.4228 19.2537C33.6148 19.2537 33.8388 19.275 34.0948 19.3177C34.3508 19.339 34.6068 19.3924 34.8628 19.4777C35.1401 19.563 35.3961 19.6697 35.6308 19.7977C35.8868 19.9044 36.1001 20.0537 36.2708 20.2457C36.0788 20.459 35.5881 21.1737 34.7988 22.3897C34.0308 23.6057 33.1668 25.355 32.2068 27.6377C32.1001 27.8724 31.9721 28.2137 31.8228 28.6617C31.6734 29.1097 31.5241 29.579 31.3748 30.0697C31.2254 30.5604 31.0974 31.0404 30.9908 31.5097C30.9054 31.979 30.8628 32.3524 30.8628 32.6297C30.8628 32.8004 30.8841 32.9284 30.9268 33.0137C30.9908 33.099 31.0441 33.163 31.0868 33.2057C31.4068 33.0777 31.8121 32.7257 32.3028 32.1497C32.7934 31.5737 33.4761 30.6884 34.3508 29.4937C34.5641 29.195 34.8094 28.8537 35.0868 28.4697C35.3854 28.0857 35.6841 27.6804 35.9828 27.2537C36.2814 26.8057 36.5588 26.347 36.8148 25.8777C37.0921 25.4084 37.3161 24.939 37.4868 24.4697C37.5721 24.2137 37.6788 23.915 37.8068 23.5737C37.9561 23.211 38.1268 22.8377 38.3188 22.4537C38.5321 22.0697 38.7668 21.6857 39.0228 21.3017C39.3001 20.8964 39.6201 20.523 39.9828 20.1817C40.2601 20.1817 40.5588 20.2137 40.8787 20.2777C41.1988 20.3417 41.4974 20.427 41.7748 20.5337C42.0734 20.619 42.3294 20.7257 42.5428 20.8537C42.7561 20.9604 42.9161 21.0777 43.0228 21.2057C42.6388 22.1444 42.2121 23.0724 41.7428 23.9897C41.2734 24.907 40.8361 25.8137 40.4308 26.7097C40.0254 27.5844 39.6841 28.459 39.4068 29.3337C39.1294 30.2084 38.9908 31.0617 38.9908 31.8937C38.9908 32.3417 39.0228 32.7364 39.0868 33.0777C39.1721 33.3977 39.2574 33.675 39.3428 33.9097C39.4281 34.123 39.5028 34.3044 39.5668 34.4537C39.6521 34.603 39.6948 34.731 39.6948 34.8377C39.6948 34.859 39.6734 34.891 39.6308 34.9337C39.6094 34.955 39.5881 34.9657 39.5668 34.9657C39.4174 34.9657 39.2254 34.9337 38.9908 34.8697C38.7561 34.8057 38.4894 34.7097 38.1908 34.5817C37.9134 34.475 37.6254 34.347 37.3268 34.1977C37.0494 34.0484 36.7828 33.8884 36.5268 33.7177ZM48.8193 18.9017C49.3739 19.0724 49.8966 19.4564 50.3873 20.0537C50.8779 20.6297 51.2406 21.2697 51.4753 21.9737C51.2406 22.5497 50.8779 23.243 50.3873 24.0537C49.8966 24.8644 49.4059 25.6964 48.9153 26.5497C48.4246 27.3817 47.9766 28.1817 47.5713 28.9497C47.1873 29.6964 46.9633 30.315 46.8993 30.8057C47.2406 30.443 47.6139 30.027 48.0193 29.5577C48.4459 29.067 48.8513 28.587 49.2353 28.1177C49.6406 27.627 50.0139 27.1897 50.3553 26.8057C50.6966 26.4004 50.9633 26.1017 51.1553 25.9097C51.5606 25.483 52.0406 24.9924 52.5953 24.4377C53.1499 23.8617 53.7259 23.3284 54.3233 22.8377C54.9419 22.3257 55.5606 21.899 56.1793 21.5577C56.7979 21.195 57.3633 21.0137 57.8753 21.0137C58.4299 21.0137 58.8886 21.2057 59.2513 21.5897C59.6353 21.9524 59.9339 22.3364 60.1473 22.7417C60.1473 22.7844 60.0619 22.8484 59.8913 22.9337C59.7419 22.9977 59.5179 23.2004 59.2193 23.5417C58.9206 23.9257 58.5793 24.459 58.1953 25.1417C57.8326 25.803 57.4699 26.5284 57.1073 27.3177C56.7659 28.0857 56.4779 28.875 56.2433 29.6857C56.0086 30.4964 55.8913 31.2324 55.8913 31.8937C55.8913 32.427 55.9553 32.7684 56.0833 32.9177C56.2326 33.067 56.4353 33.1417 56.6912 33.1417C56.9259 33.1417 57.1713 33.0884 57.4272 32.9817C57.6833 32.875 57.8859 32.8217 58.0353 32.8217C58.1206 32.8644 58.1846 32.9604 58.2273 33.1097C58.2913 33.2377 58.3233 33.355 58.3233 33.4617C58.1526 33.611 57.9499 33.7604 57.7153 33.9097C57.4806 34.059 57.2353 34.1977 56.9792 34.3257C56.7233 34.4537 56.4673 34.5604 56.2113 34.6457C55.9766 34.731 55.7633 34.7737 55.5713 34.7737C54.9526 34.7737 54.4406 34.6777 54.0353 34.4857C53.6513 34.315 53.3419 34.0804 53.1073 33.7817C52.8939 33.483 52.7446 33.131 52.6593 32.7257C52.5739 32.299 52.5313 31.851 52.5313 31.3817C52.5313 31.1257 52.5526 30.8377 52.5953 30.5177C52.6379 30.1977 52.7233 29.8244 52.8513 29.3977C52.9793 28.9497 53.1606 28.427 53.3953 27.8297C53.6299 27.211 53.9286 26.475 54.2913 25.6217C54.2486 25.6217 53.9606 25.771 53.4273 26.0697C52.8939 26.3684 52.3179 26.827 51.6993 27.4457C50.6966 28.4057 49.7899 29.355 48.9792 30.2937C48.1899 31.2324 47.3793 32.2777 46.5473 33.4297C46.0779 34.091 45.6619 34.6457 45.2993 35.0937C44.9579 35.563 44.6593 35.8724 44.4033 36.0217C43.9553 35.7657 43.6246 35.403 43.4113 34.9337C43.1979 34.4857 43.0379 34.0164 42.9313 33.5257C42.9313 33.1204 42.9846 32.6084 43.0913 31.9897C43.2193 31.371 43.3793 30.6884 43.5713 29.9417C43.7846 29.1737 44.0406 28.3737 44.3393 27.5417C44.6379 26.7097 44.9686 25.8777 45.3313 25.0457C46.1419 23.1684 46.8779 21.6964 47.5393 20.6297C48.2219 19.563 48.6486 18.987 48.8193 18.9017ZM54.4525 43.9577C54.4525 43.8297 54.4952 43.7124 54.5805 43.6057C54.6658 43.499 54.7618 43.3924 54.8685 43.2857C55.1245 43.5204 55.3485 43.7017 55.5405 43.8297C55.7112 43.9577 55.8818 44.0644 56.0525 44.1497C56.2018 44.235 56.3618 44.2884 56.5325 44.3097C56.7032 44.331 56.9058 44.3417 57.1405 44.3417C58.2498 44.3417 59.3058 44.043 60.3085 43.4457C61.3112 42.8697 62.2498 42.027 63.1245 40.9177C64.0205 39.8084 64.8312 38.4537 65.5565 36.8537C66.2818 35.2537 66.9218 33.4404 67.4765 31.4137C67.2205 31.6697 66.9005 31.9577 66.5165 32.2777C66.1538 32.5764 65.7698 32.8644 65.3645 33.1417C64.9592 33.419 64.5538 33.675 64.1485 33.9097C63.7645 34.1444 63.4338 34.315 63.1565 34.4217C62.7938 34.3577 62.4525 34.2084 62.1325 33.9737C61.8338 33.7177 61.5672 33.4084 61.3325 33.0457C61.0978 32.683 60.9165 32.2777 60.7885 31.8297C60.6605 31.3604 60.5965 30.8697 60.5965 30.3577C60.5965 29.5257 60.7458 28.6724 61.0445 27.7977C61.3645 26.923 61.7805 26.0697 62.2925 25.2377C62.8045 24.3844 63.4018 23.5844 64.0845 22.8377C64.7885 22.091 65.5245 21.4404 66.2925 20.8857C67.0818 20.331 67.8712 19.8937 68.6605 19.5737C69.4712 19.2324 70.2605 19.0617 71.0285 19.0617C71.7752 19.0617 72.3298 19.2217 72.6925 19.5417C73.0765 19.8404 73.3538 20.363 73.5245 21.1097C73.2898 20.9817 72.9912 20.9177 72.6285 20.9177C72.1165 20.9177 71.5192 21.1204 70.8365 21.5257C70.1752 21.931 69.4925 22.4644 68.7885 23.1257C68.1058 23.7657 67.4232 24.5124 66.7405 25.3657C66.0578 26.1977 65.4498 27.051 64.9165 27.9257C64.4045 28.8004 63.9778 29.6537 63.6365 30.4857C63.3165 31.3177 63.1565 32.0644 63.1565 32.7257C63.1565 32.875 63.1672 32.971 63.1885 33.0137C63.2098 33.035 63.2418 33.0457 63.2845 33.0457C63.4765 33.0457 63.7325 32.939 64.0525 32.7257C64.3938 32.5124 64.7672 32.2457 65.1725 31.9257C65.5992 31.5844 66.0365 31.2004 66.4845 30.7737C66.9325 30.3257 67.3592 29.8777 67.7645 29.4297C68.6818 28.4057 69.5138 27.2644 70.2605 26.0057C71.0285 24.7257 71.6365 23.4884 72.0845 22.2937C72.6605 22.3364 73.1725 22.4324 73.6205 22.5817C74.0685 22.731 74.3778 22.891 74.5485 23.0617C73.8232 24.7257 73.2365 26.123 72.7885 27.2537C72.3618 28.3844 71.9885 29.387 71.6685 30.2617C71.0925 31.7977 70.5485 33.195 70.0365 34.4537C69.5458 35.7337 69.0338 36.907 68.5005 37.9737C67.9885 39.0617 67.4232 40.0644 66.8045 40.9817C66.2072 41.9204 65.5245 42.8164 64.7565 43.6697C64.3938 44.075 63.9778 44.427 63.5085 44.7257C63.0605 45.0457 62.5912 45.3124 62.1005 45.5257C61.6312 45.739 61.1618 45.899 60.6925 46.0057C60.2445 46.1124 59.8285 46.1657 59.4445 46.1657C58.9325 46.1657 58.4098 46.1017 57.8765 45.9737C57.3432 45.867 56.8525 45.707 56.4045 45.4937C55.9352 45.3017 55.5298 45.067 55.1885 44.7897C54.8472 44.5337 54.6018 44.2564 54.4525 43.9577ZM86.7788 21.1737C86.6934 22.4964 86.4588 23.6377 86.0748 24.5977C85.6908 25.5364 85.1361 26.3684 84.4108 27.0937C83.7068 27.7977 82.8428 28.4377 81.8188 29.0137C80.7948 29.5897 79.6001 30.1444 78.2348 30.6777C78.2348 30.8057 78.2241 30.9444 78.2028 31.0937C78.2028 31.2217 78.2028 31.3604 78.2028 31.5097C78.2028 31.787 78.2241 32.075 78.2668 32.3737C78.3094 32.6724 78.3841 32.9497 78.4908 33.2057C78.5974 33.4617 78.7468 33.675 78.9388 33.8457C79.1308 33.995 79.3761 34.0697 79.6748 34.0697C80.2508 34.0697 80.8161 33.9417 81.3708 33.6857C81.9254 33.4297 82.4481 33.1204 82.9388 32.7577C83.4508 32.3737 83.9201 31.9684 84.3468 31.5417C84.7948 31.0937 85.1894 30.6884 85.5308 30.3257C85.7441 30.5177 85.9254 30.699 86.0748 30.8697C85.1148 32.1497 84.0588 33.2164 82.9068 34.0697C81.7761 34.9017 80.6988 35.435 79.6748 35.6697C78.2028 35.499 77.0508 34.9657 76.2188 34.0697C75.4081 33.1524 75.0028 32.0537 75.0028 30.7737C75.0028 29.899 75.1201 29.0137 75.3548 28.1177C75.6108 27.2004 75.9521 26.3257 76.3788 25.4937C76.8268 24.6404 77.3388 23.8404 77.9148 23.0937C78.5121 22.347 79.1414 21.6964 79.8028 21.1417C80.4854 20.587 81.1788 20.1497 81.8828 19.8297C82.6081 19.5097 83.3228 19.3497 84.0268 19.3497C85.0081 19.4777 85.9254 20.0857 86.7788 21.1737ZM84.5708 22.2297C83.9948 22.315 83.3974 22.5497 82.7788 22.9337C82.1601 23.3177 81.5734 23.8297 81.0188 24.4697C80.4854 25.1097 79.9948 25.8564 79.5468 26.7097C79.0988 27.563 78.7468 28.4804 78.4908 29.4617C80.1974 28.6084 81.6161 27.563 82.7468 26.3257C83.8774 25.067 84.4854 23.7017 84.5708 22.2297ZM92.0363 35.5417C90.8203 35.4137 89.8496 34.8804 89.1243 33.9417C88.3989 33.003 88.0363 31.8084 88.0363 30.3577C88.0363 29.5044 88.1643 28.619 88.4203 27.7017C88.6763 26.7844 89.0389 25.899 89.5083 25.0457C89.9776 24.171 90.5323 23.3497 91.1723 22.5817C91.8123 21.8137 92.5056 21.1524 93.2523 20.5977C94.4256 19.723 95.5243 19.2857 96.5483 19.2857C97.2309 19.6484 97.9029 20.4057 98.5643 21.5577C98.6709 21.5577 98.7669 21.5577 98.8523 21.5577C98.9376 21.5364 99.0336 21.5257 99.1403 21.5257C100.271 21.5257 100.836 22.5284 100.836 24.5337C100.836 25.8777 100.612 27.1577 100.164 28.3737C99.7376 29.5684 99.1296 30.6564 98.3403 31.6377C97.5723 32.619 96.6443 33.451 95.5563 34.1337C94.4896 34.795 93.3163 35.2644 92.0363 35.5417ZM93.6683 25.4617C93.3056 25.9524 92.9643 26.4857 92.6443 27.0617C92.3243 27.6377 92.0469 28.2244 91.8123 28.8217C91.5776 29.3977 91.3963 29.963 91.2683 30.5177C91.1403 31.051 91.0763 31.531 91.0763 31.9577C91.0763 32.4697 91.1616 32.9604 91.3323 33.4297C91.5029 33.899 91.6949 34.1657 91.9083 34.2297C92.8683 34.0164 93.7429 33.6217 94.5323 33.0457C95.3429 32.4484 96.0363 31.7124 96.6123 30.8377C97.2096 29.963 97.6683 28.971 97.9883 27.8617C98.3296 26.7524 98.5003 25.5684 98.5003 24.3097C98.5003 23.755 98.4683 23.3177 98.4043 22.9977C98.3403 22.6777 98.2336 22.4004 98.0843 22.1657C97.1456 22.443 96.3029 22.891 95.5563 23.5097C94.8309 24.1284 94.2016 24.779 93.6683 25.4617ZM107.569 18.9017C108.124 19.0724 108.647 19.4564 109.137 20.0537C109.628 20.6297 109.991 21.2697 110.225 21.9737C109.991 22.5497 109.628 23.243 109.137 24.0537C108.647 24.8644 108.156 25.6964 107.665 26.5497C107.175 27.3817 106.727 28.1817 106.321 28.9497C105.937 29.6964 105.713 30.315 105.649 30.8057C105.991 30.443 106.364 30.027 106.769 29.5577C107.196 29.067 107.601 28.587 107.985 28.1177C108.391 27.627 108.764 27.1897 109.105 26.8057C109.447 26.4004 109.713 26.1017 109.905 25.9097C110.311 25.483 110.791 24.9924 111.345 24.4377C111.9 23.8617 112.476 23.3284 113.073 22.8377C113.692 22.3257 114.311 21.899 114.929 21.5577C115.548 21.195 116.113 21.0137 116.625 21.0137C117.18 21.0137 117.639 21.2057 118.001 21.5897C118.385 21.9524 118.684 22.3364 118.897 22.7417C118.897 22.7844 118.812 22.8484 118.641 22.9337C118.492 22.9977 118.268 23.2004 117.969 23.5417C117.671 23.9257 117.329 24.459 116.945 25.1417C116.583 25.803 116.22 26.5284 115.857 27.3177C115.516 28.0857 115.228 28.875 114.993 29.6857C114.759 30.4964 114.641 31.2324 114.641 31.8937C114.641 32.427 114.705 32.7684 114.833 32.9177C114.983 33.067 115.185 33.1417 115.441 33.1417C115.676 33.1417 115.921 33.0884 116.177 32.9817C116.433 32.875 116.636 32.8217 116.785 32.8217C116.871 32.8644 116.935 32.9604 116.977 33.1097C117.041 33.2377 117.073 33.355 117.073 33.4617C116.903 33.611 116.7 33.7604 116.465 33.9097C116.231 34.059 115.985 34.1977 115.729 34.3257C115.473 34.4537 115.217 34.5604 114.961 34.6457C114.727 34.731 114.513 34.7737 114.321 34.7737C113.703 34.7737 113.191 34.6777 112.785 34.4857C112.401 34.315 112.092 34.0804 111.857 33.7817C111.644 33.483 111.495 33.131 111.409 32.7257C111.324 32.299 111.281 31.851 111.281 31.3817C111.281 31.1257 111.303 30.8377 111.345 30.5177C111.388 30.1977 111.473 29.8244 111.601 29.3977C111.729 28.9497 111.911 28.427 112.145 27.8297C112.38 27.211 112.679 26.475 113.041 25.6217C112.999 25.6217 112.711 25.771 112.177 26.0697C111.644 26.3684 111.068 26.827 110.449 27.4457C109.447 28.4057 108.54 29.355 107.729 30.2937C106.94 31.2324 106.129 32.2777 105.297 33.4297C104.828 34.091 104.412 34.6457 104.049 35.0937C103.708 35.563 103.409 35.8724 103.153 36.0217C102.705 35.7657 102.375 35.403 102.161 34.9337C101.948 34.4857 101.788 34.0164 101.681 33.5257C101.681 33.1204 101.735 32.6084 101.841 31.9897C101.969 31.371 102.129 30.6884 102.321 29.9417C102.535 29.1737 102.791 28.3737 103.089 27.5417C103.388 26.7097 103.719 25.8777 104.081 25.0457C104.892 23.1684 105.628 21.6964 106.289 20.6297C106.972 19.563 107.399 18.987 107.569 18.9017ZM130.707 21.6857C130.685 22.091 130.611 22.5177 130.483 22.9657C130.376 23.3924 130.237 23.787 130.067 24.1497C129.896 24.491 129.715 24.779 129.523 25.0137C129.331 25.2484 129.149 25.3657 128.979 25.3657C128.744 25.3444 128.605 25.1844 128.563 24.8857C128.563 24.8217 128.584 24.7257 128.627 24.5977C128.691 24.4484 128.755 24.2884 128.819 24.1177C128.883 23.947 128.936 23.7764 128.979 23.6057C129.043 23.435 129.075 23.2857 129.075 23.1577C129.075 22.859 129 22.6137 128.851 22.4217C128.723 22.2084 128.541 22.1017 128.307 22.1017C127.453 22.1017 126.803 22.635 126.355 23.7017C125.907 24.7684 125.683 26.3364 125.683 28.4057C125.683 28.619 125.693 28.747 125.715 28.7897C126.163 28.7684 126.557 28.7577 126.899 28.7577C127.261 28.7364 127.613 28.7257 127.955 28.7257C127.976 28.7684 127.987 28.8537 127.987 28.9817C127.987 29.1737 127.944 29.3124 127.859 29.3977C127.368 29.5044 126.973 29.6004 126.675 29.6857C126.397 29.7497 126.184 29.8137 126.035 29.8777C125.885 29.9417 125.789 30.0164 125.747 30.1017C125.725 30.1657 125.715 30.2617 125.715 30.3897C125.715 30.5604 125.715 30.731 125.715 30.9017C125.736 31.0724 125.747 31.2857 125.747 31.5417C125.747 33.3337 125.256 34.7737 124.275 35.8617C123.315 36.9497 121.971 37.579 120.243 37.7497C119.944 37.7284 119.635 37.643 119.315 37.4937C118.995 37.3444 118.685 37.1524 118.387 36.9177C118.109 36.683 117.864 36.4164 117.651 36.1177C117.437 35.8404 117.288 35.5524 117.203 35.2537C117.203 34.443 117.373 33.675 117.715 32.9497C118.056 32.203 118.515 31.5524 119.091 30.9977C119.688 30.4217 120.381 29.963 121.171 29.6217C121.981 29.259 122.856 29.0457 123.795 28.9817C123.795 28.4484 123.741 27.9257 123.635 27.4137C123.528 26.9017 123.411 26.411 123.283 25.9417C123.176 25.451 123.069 24.9817 122.963 24.5337C122.856 24.0644 122.803 23.6057 122.803 23.1577C122.803 22.5817 122.92 22.0164 123.155 21.4617C123.389 20.8857 123.699 20.363 124.083 19.8937C124.467 19.403 124.915 18.987 125.427 18.6457C125.939 18.3044 126.472 18.0697 127.027 17.9417C127.261 18.0057 127.571 18.1977 127.955 18.5177C128.36 18.8164 128.755 19.1577 129.139 19.5417C129.523 19.9257 129.864 20.3204 130.163 20.7257C130.461 21.1097 130.643 21.4297 130.707 21.6857ZM120.147 36.2777C120.659 36.0644 121.139 35.755 121.587 35.3497C122.056 34.9444 122.461 34.4857 122.803 33.9737C123.144 33.4617 123.411 32.9177 123.603 32.3417C123.816 31.7657 123.923 31.2004 123.923 30.6457C123.496 30.7097 123.027 30.9124 122.515 31.2537C122.003 31.5737 121.523 31.9684 121.075 32.4377C120.627 32.8857 120.253 33.355 119.955 33.8457C119.656 34.3364 119.507 34.763 119.507 35.1257C119.507 35.595 119.72 35.979 120.147 36.2777Z" fill="black"/>
<path d="M33.59 66.806C32.566 66.5073 31.8513 66.2086 31.446 65.91C31.062 65.6113 30.87 65.238 30.87 64.79C30.87 64.4486 30.966 63.9686 31.158 63.35C31.35 62.7313 31.6273 62.006 31.99 61.174C32.374 60.3206 32.822 59.382 33.334 58.358C33.8673 57.334 34.4646 56.2353 35.126 55.062C34.5713 55.0406 34.07 55.03 33.622 55.03C33.1953 55.0086 32.8433 54.998 32.566 54.998C32.694 54.678 33.0566 54.4006 33.654 54.166C34.2513 53.9313 35.0406 53.7286 36.022 53.558C36.854 52.1713 37.7393 50.8486 38.678 49.59C39.638 48.3313 40.598 47.1793 41.558 46.134C42.518 45.0673 43.478 44.1393 44.438 43.35C45.398 42.5393 46.3153 41.8993 47.19 41.43C47.2113 41.2806 47.222 41.1526 47.222 41.046C47.2433 40.9393 47.254 40.8646 47.254 40.822C47.5526 40.822 47.9473 40.8966 48.438 41.046C48.95 41.1953 49.4406 41.3766 49.91 41.59C50.4006 41.8033 50.8273 42.0273 51.19 42.262C51.574 42.4753 51.7873 42.6566 51.83 42.806C51.126 44.0433 50.4326 45.8993 49.75 48.374C49.0673 50.8273 48.502 53.7713 48.054 57.206C47.9473 58.0593 47.8513 59.03 47.766 60.118C47.702 61.206 47.67 62.422 47.67 63.766C47.67 64.2353 47.67 64.7153 47.67 65.206C47.67 65.6966 47.6913 66.2086 47.734 66.742C47.6913 66.7633 47.6486 66.774 47.606 66.774C47.5633 66.774 47.478 66.774 47.35 66.774C47.0513 66.774 46.6993 66.7206 46.294 66.614C45.91 66.5286 45.526 66.4113 45.142 66.262C44.7793 66.134 44.4593 65.9846 44.182 65.814C43.926 65.6433 43.766 65.494 43.702 65.366C43.6806 65.0886 43.67 64.8113 43.67 64.534C43.67 64.278 43.67 64.0006 43.67 63.702C43.67 62.3793 43.7126 61.0353 43.798 59.67C43.9046 58.3046 44.0753 56.8966 44.31 55.446C44.0113 55.4246 43.6166 55.4033 43.126 55.382C42.6353 55.3393 42.0806 55.3073 41.462 55.286C40.8646 55.2646 40.214 55.2433 39.51 55.222C38.8273 55.1793 38.1553 55.1473 37.494 55.126C36.982 56.086 36.502 57.046 36.054 58.006C35.606 58.9446 35.222 59.894 34.902 60.854C34.5393 61.878 34.2406 62.902 34.006 63.926C33.7926 64.95 33.654 65.91 33.59 66.806ZM45.942 47.574C46.0273 47.2753 46.1233 46.87 46.23 46.358C46.358 45.8246 46.4753 45.27 46.582 44.694C46.0486 44.886 45.4513 45.238 44.79 45.75C44.15 46.262 43.478 46.902 42.774 47.67C42.0913 48.4166 41.3873 49.27 40.662 50.23C39.958 51.1686 39.2753 52.1713 38.614 53.238C40.406 53.0886 42.4433 52.9926 44.726 52.95C44.8966 52.054 45.078 51.1686 45.27 50.294C45.4833 49.398 45.7073 48.4913 45.942 47.574ZM63.3745 51.638C63.3531 52.0433 63.2785 52.47 63.1505 52.918C63.0438 53.3446 62.9051 53.7393 62.7345 54.102C62.5638 54.4433 62.3825 54.7313 62.1905 54.966C61.9985 55.2006 61.8171 55.318 61.6465 55.318C61.4118 55.2966 61.2731 55.1366 61.2305 54.838C61.2305 54.774 61.2518 54.678 61.2945 54.55C61.3585 54.4006 61.4225 54.2406 61.4865 54.07C61.5505 53.8993 61.6038 53.7286 61.6465 53.558C61.7105 53.3873 61.7425 53.238 61.7425 53.11C61.7425 52.8113 61.6678 52.566 61.5185 52.374C61.3905 52.1606 61.2091 52.054 60.9745 52.054C60.1211 52.054 59.4705 52.5873 59.0225 53.654C58.5745 54.7206 58.3505 56.2886 58.3505 58.358C58.3505 58.5713 58.3611 58.6993 58.3825 58.742C58.8305 58.7206 59.2251 58.71 59.5665 58.71C59.9291 58.6886 60.2811 58.678 60.6225 58.678C60.6438 58.7206 60.6545 58.806 60.6545 58.934C60.6545 59.126 60.6118 59.2646 60.5265 59.35C60.0358 59.4566 59.6411 59.5526 59.3425 59.638C59.0651 59.702 58.8518 59.766 58.7025 59.83C58.5531 59.894 58.4571 59.9686 58.4145 60.054C58.3931 60.118 58.3825 60.214 58.3825 60.342C58.3825 60.5126 58.3825 60.6833 58.3825 60.854C58.4038 61.0246 58.4145 61.238 58.4145 61.494C58.4145 63.286 57.9238 64.726 56.9425 65.814C55.9825 66.902 54.6385 67.5313 52.9105 67.702C52.6118 67.6806 52.3025 67.5953 51.9825 67.446C51.6625 67.2966 51.3531 67.1046 51.0545 66.87C50.7771 66.6353 50.5318 66.3686 50.3185 66.07C50.1051 65.7926 49.9558 65.5046 49.8705 65.206C49.8705 64.3953 50.0411 63.6273 50.3825 62.902C50.7238 62.1553 51.1825 61.5046 51.7585 60.95C52.3558 60.374 53.0491 59.9153 53.8385 59.574C54.6491 59.2113 55.5238 58.998 56.4625 58.934C56.4625 58.4006 56.4091 57.878 56.3025 57.366C56.1958 56.854 56.0785 56.3633 55.9505 55.894C55.8438 55.4033 55.7371 54.934 55.6305 54.486C55.5238 54.0166 55.4705 53.558 55.4705 53.11C55.4705 52.534 55.5878 51.9686 55.8225 51.414C56.0571 50.838 56.3665 50.3153 56.7505 49.846C57.1345 49.3553 57.5825 48.9393 58.0945 48.598C58.6065 48.2566 59.1398 48.022 59.6945 47.894C59.9291 47.958 60.2385 48.15 60.6225 48.47C61.0278 48.7686 61.4225 49.11 61.8065 49.494C62.1905 49.878 62.5318 50.2726 62.8305 50.678C63.1291 51.062 63.3105 51.382 63.3745 51.638ZM52.8145 66.23C53.3265 66.0166 53.8065 65.7073 54.2545 65.302C54.7238 64.8966 55.1291 64.438 55.4705 63.926C55.8118 63.414 56.0785 62.87 56.2705 62.294C56.4838 61.718 56.5905 61.1526 56.5905 60.598C56.1638 60.662 55.6945 60.8646 55.1825 61.206C54.6705 61.526 54.1905 61.9206 53.7425 62.39C53.2945 62.838 52.9211 63.3073 52.6225 63.798C52.3238 64.2886 52.1745 64.7153 52.1745 65.078C52.1745 65.5473 52.3878 65.9313 52.8145 66.23ZM72.101 63.67C71.6956 63.3286 71.4183 62.902 71.269 62.39C71.141 61.878 71.077 61.4406 71.077 61.078C71.077 60.63 71.1303 60.246 71.237 59.926C71.1516 59.926 70.9596 60.0966 70.661 60.438C70.3623 60.7793 70.0316 61.1846 69.669 61.654C69.3276 62.1233 68.9863 62.582 68.645 63.03C68.3036 63.478 68.0476 63.8086 67.877 64.022C67.5996 64.3206 67.333 64.5553 67.077 64.726C66.8423 64.8966 66.6503 64.9926 66.501 65.014C66.1596 64.9926 65.797 64.918 65.413 64.79C65.0503 64.6833 64.6983 64.5233 64.357 64.31C64.037 64.0966 63.749 63.8406 63.493 63.542C63.2583 63.2433 63.0983 62.902 63.013 62.518C63.013 61.9206 63.0236 61.43 63.045 61.046C63.0876 60.662 63.1623 60.246 63.269 59.798C63.461 58.9873 63.7383 58.07 64.101 57.046C64.485 56.022 64.9223 55.0193 65.413 54.038C65.9036 53.0353 66.4476 52.1073 67.045 51.254C67.6636 50.3793 68.3143 49.6966 68.997 49.206C69.189 49.206 69.413 49.2273 69.669 49.27C69.925 49.2913 70.181 49.3446 70.437 49.43C70.7143 49.5153 70.9703 49.622 71.205 49.75C71.461 49.8566 71.6743 50.006 71.845 50.198C71.653 50.4113 71.1623 51.126 70.373 52.342C69.605 53.558 68.741 55.3073 67.781 57.59C67.6743 57.8246 67.5463 58.166 67.397 58.614C67.2476 59.062 67.0983 59.5313 66.949 60.022C66.7996 60.5126 66.6716 60.9926 66.565 61.462C66.4796 61.9313 66.437 62.3046 66.437 62.582C66.437 62.7526 66.4583 62.8806 66.501 62.966C66.565 63.0513 66.6183 63.1153 66.661 63.158C66.981 63.03 67.3863 62.678 67.877 62.102C68.3676 61.526 69.0503 60.6406 69.925 59.446C70.1383 59.1473 70.3836 58.806 70.661 58.422C70.9596 58.038 71.2583 57.6326 71.557 57.206C71.8556 56.758 72.133 56.2993 72.389 55.83C72.6663 55.3606 72.8903 54.8913 73.061 54.422C73.1463 54.166 73.253 53.8673 73.381 53.526C73.5303 53.1633 73.701 52.79 73.893 52.406C74.1063 52.022 74.341 51.638 74.597 51.254C74.8743 50.8486 75.1943 50.4753 75.557 50.134C75.8343 50.134 76.133 50.166 76.453 50.23C76.773 50.294 77.0716 50.3793 77.349 50.486C77.6476 50.5713 77.9036 50.678 78.117 50.806C78.3303 50.9126 78.4903 51.03 78.597 51.158C78.213 52.0966 77.7863 53.0246 77.317 53.942C76.8476 54.8593 76.4103 55.766 76.005 56.662C75.5996 57.5366 75.2583 58.4113 74.981 59.286C74.7036 60.1606 74.565 61.014 74.565 61.846C74.565 62.294 74.597 62.6886 74.661 63.03C74.7463 63.35 74.8316 63.6273 74.917 63.862C75.0023 64.0753 75.077 64.2566 75.141 64.406C75.2263 64.5553 75.269 64.6833 75.269 64.79C75.269 64.8113 75.2476 64.8433 75.205 64.886C75.1836 64.9073 75.1623 64.918 75.141 64.918C74.9916 64.918 74.7996 64.886 74.565 64.822C74.3303 64.758 74.0636 64.662 73.765 64.534C73.4876 64.4273 73.1996 64.2993 72.901 64.15C72.6236 64.0006 72.357 63.8406 72.101 63.67ZM84.3935 48.854C84.9481 49.0246 85.4708 49.4086 85.9615 50.006C86.4521 50.582 86.8148 51.222 87.0495 51.926C86.8148 52.502 86.4521 53.1953 85.9615 54.006C85.4708 54.8166 84.9801 55.6486 84.4895 56.502C83.9988 57.334 83.5508 58.134 83.1455 58.902C82.7615 59.6486 82.5375 60.2673 82.4735 60.758C82.8148 60.3953 83.1881 59.9793 83.5935 59.51C84.0201 59.0193 84.4255 58.5393 84.8095 58.07C85.2148 57.5793 85.5881 57.142 85.9295 56.758C86.2708 56.3526 86.5375 56.054 86.7295 55.862C87.1348 55.4353 87.6148 54.9446 88.1695 54.39C88.7241 53.814 89.3001 53.2806 89.8975 52.79C90.5161 52.278 91.1348 51.8513 91.7535 51.51C92.3721 51.1473 92.9375 50.966 93.4495 50.966C94.0041 50.966 94.4628 51.158 94.8255 51.542C95.2095 51.9046 95.5081 52.2886 95.7215 52.694C95.7215 52.7366 95.6361 52.8006 95.4655 52.886C95.3161 52.95 95.0921 53.1526 94.7935 53.494C94.4948 53.878 94.1535 54.4113 93.7695 55.094C93.4068 55.7553 93.0441 56.4806 92.6815 57.27C92.3401 58.038 92.0521 58.8273 91.8175 59.638C91.5828 60.4486 91.4655 61.1846 91.4655 61.846C91.4655 62.3793 91.5295 62.7206 91.6575 62.87C91.8068 63.0193 92.0095 63.094 92.2655 63.094C92.5001 63.094 92.7455 63.0406 93.0015 62.934C93.2575 62.8273 93.4601 62.774 93.6095 62.774C93.6948 62.8166 93.7588 62.9126 93.8015 63.062C93.8655 63.19 93.8975 63.3073 93.8975 63.414C93.7268 63.5633 93.5241 63.7126 93.2895 63.862C93.0548 64.0113 92.8095 64.15 92.5535 64.278C92.2975 64.406 92.0415 64.5126 91.7855 64.598C91.5508 64.6833 91.3375 64.726 91.1455 64.726C90.5268 64.726 90.0148 64.63 89.6095 64.438C89.2255 64.2673 88.9161 64.0326 88.6815 63.734C88.4681 63.4353 88.3188 63.0833 88.2335 62.678C88.1481 62.2513 88.1055 61.8033 88.1055 61.334C88.1055 61.078 88.1268 60.79 88.1695 60.47C88.2121 60.15 88.2975 59.7766 88.4255 59.35C88.5535 58.902 88.7348 58.3793 88.9695 57.782C89.2041 57.1633 89.5028 56.4273 89.8655 55.574C89.8228 55.574 89.5348 55.7233 89.0015 56.022C88.4681 56.3206 87.8921 56.7793 87.2735 57.398C86.2708 58.358 85.3641 59.3073 84.5535 60.246C83.7641 61.1846 82.9535 62.23 82.1215 63.382C81.6521 64.0433 81.2361 64.598 80.8735 65.046C80.5321 65.5153 80.2335 65.8246 79.9775 65.974C79.5295 65.718 79.1988 65.3553 78.9855 64.886C78.7721 64.438 78.6121 63.9686 78.5055 63.478C78.5055 63.0726 78.5588 62.5606 78.6655 61.942C78.7935 61.3233 78.9535 60.6406 79.1455 59.894C79.3588 59.126 79.6148 58.326 79.9135 57.494C80.2121 56.662 80.5428 55.83 80.9055 54.998C81.7161 53.1206 82.4521 51.6486 83.1135 50.582C83.7961 49.5153 84.2228 48.9393 84.3935 48.854Z" fill="#24BE74"/>
<path d="M19.3234 52.074C18.5634 51.994 17.9568 51.6606 17.5034 51.074C17.0501 50.4873 16.8234 49.7406 16.8234 48.834C16.8234 48.3006 16.9034 47.7473 17.0634 47.174C17.2234 46.6006 17.4501 46.0473 17.7434 45.514C18.0368 44.9673 18.3834 44.454 18.7834 43.974C19.1834 43.494 19.6168 43.0806 20.0834 42.734C20.8168 42.1873 21.5034 41.914 22.1434 41.914C22.5701 42.1406 22.9901 42.614 23.4034 43.334C23.4701 43.334 23.5301 43.334 23.5834 43.334C23.6368 43.3206 23.6968 43.314 23.7634 43.314C24.4701 43.314 24.8234 43.9406 24.8234 45.194C24.8234 46.034 24.6834 46.834 24.4034 47.594C24.1368 48.3406 23.7568 49.0206 23.2634 49.634C22.7834 50.2473 22.2034 50.7673 21.5234 51.194C20.8568 51.6073 20.1234 51.9006 19.3234 52.074ZM20.3434 45.774C20.1168 46.0806 19.9034 46.414 19.7034 46.774C19.5034 47.134 19.3301 47.5006 19.1834 47.874C19.0368 48.234 18.9234 48.5873 18.8434 48.934C18.7634 49.2673 18.7234 49.5673 18.7234 49.834C18.7234 50.154 18.7768 50.4606 18.8834 50.754C18.9901 51.0473 19.1101 51.214 19.2434 51.254C19.8434 51.1206 20.3901 50.874 20.8834 50.514C21.3901 50.1406 21.8234 49.6806 22.1834 49.134C22.5568 48.5873 22.8434 47.9673 23.0434 47.274C23.2568 46.5806 23.3634 45.8406 23.3634 45.054C23.3634 44.7073 23.3434 44.434 23.3034 44.234C23.2634 44.034 23.1968 43.8606 23.1034 43.714C22.5168 43.8873 21.9901 44.1673 21.5234 44.554C21.0701 44.9406 20.6768 45.3473 20.3434 45.774ZM26.5986 57.154C26.2653 57.0206 26.0653 56.7673 25.9986 56.394C25.9453 56.034 25.7186 55.7406 25.3186 55.514C25.4253 54.834 25.5453 54.1473 25.6786 53.454C25.8119 52.7606 25.9786 51.974 26.1786 51.094C26.3919 50.2006 26.6519 49.1673 26.9586 47.994C27.2786 46.8073 27.6786 45.374 28.1586 43.694C27.7186 43.694 27.3719 43.7006 27.1186 43.714C26.8653 43.7273 26.6186 43.754 26.3786 43.794C26.3253 43.7406 26.2786 43.6673 26.2386 43.574C26.2119 43.4806 26.1986 43.394 26.1986 43.314C26.3319 43.2606 26.6053 43.194 27.0186 43.114C27.4319 43.0206 27.8853 42.9406 28.3786 42.874C28.6986 41.8606 29.0653 40.954 29.4786 40.154C29.8919 39.3406 30.3386 38.6473 30.8186 38.074C31.2986 37.5006 31.8053 37.0606 32.3386 36.754C32.8719 36.4473 33.4119 36.294 33.9586 36.294C34.1186 36.294 34.2719 36.3073 34.4186 36.334C34.5653 36.3473 34.6786 36.354 34.7586 36.354C34.8786 36.2606 35.0386 36.1806 35.2386 36.114C35.4386 36.034 35.6119 35.994 35.7586 35.994C35.9186 35.994 36.1253 36.0806 36.3786 36.254C36.2719 36.4406 36.1586 36.694 36.0386 37.014C35.9186 37.334 35.8186 37.6473 35.7386 37.954C35.4053 38.9406 35.0519 39.5806 34.6786 39.874C34.5319 39.874 34.4519 39.6806 34.4386 39.294C34.4253 39.014 34.3853 38.7406 34.3186 38.474C34.2653 38.354 34.2253 38.2473 34.1986 38.154C34.1853 38.0606 34.1786 37.9406 34.1786 37.794C34.1786 37.714 34.1853 37.6206 34.1986 37.514C34.2119 37.394 34.2386 37.2006 34.2786 36.934C34.0519 36.934 33.7986 37.074 33.5186 37.354C33.2519 37.634 32.9653 38.034 32.6586 38.554C32.3653 39.0606 32.0653 39.6673 31.7586 40.374C31.4519 41.0806 31.1586 41.8606 30.8786 42.714L32.5586 42.654C32.6253 42.7206 32.6786 42.874 32.7186 43.114C32.7719 43.3406 32.8053 43.5806 32.8186 43.834L30.6186 43.714C30.1119 45.2206 29.6386 46.6606 29.1986 48.034C28.7586 49.4073 28.3653 50.674 28.0186 51.834C27.6719 52.994 27.3719 54.0273 27.1186 54.934C26.8786 55.854 26.7053 56.594 26.5986 57.154Z" fill="var(--backgroundColor)"/>
</svg>
