<svg width="147" height="70" viewBox="0 0 147 70" fill="none" xmlns="http://www.w3.org/2000/svg">
<path d="M5.376 32.4483C5.696 31.7443 6.08 30.8376 6.528 29.7283C6.976 28.619 7.44533 27.4243 7.936 26.1443C8.42667 24.843 8.928 23.5203 9.44 22.1763C9.952 20.811 10.432 19.5203 10.88 18.3043C11.328 17.0883 11.712 16.0003 12.032 15.0403C12.3733 14.0803 12.6187 13.3443 12.768 12.8323C11.424 13.387 10.272 14.2296 9.312 15.3603C8.352 16.491 7.62667 17.9096 7.136 19.6163C6.64533 19.4456 6.19733 19.147 5.792 18.7203C5.38667 18.2723 5.12 17.7176 4.992 17.0563C5.20533 16.075 5.6 15.179 6.176 14.3683C6.77333 13.5576 7.52 12.8643 8.416 12.2883C9.312 11.7123 10.3467 11.275 11.52 10.9763C12.6933 10.6563 13.952 10.4963 15.296 10.4963C17.0027 10.4963 18.5707 10.7523 20 11.2643C21.4293 11.755 22.656 12.4483 23.68 13.3443C24.704 14.2403 25.504 15.3176 26.08 16.5763C26.656 17.835 26.944 19.2323 26.944 20.7683C26.944 22.859 26.56 24.8536 25.792 26.7523C25.024 28.651 23.9787 30.3256 22.656 31.7763C21.3547 33.227 19.84 34.379 18.112 35.2323C16.384 36.107 14.5707 36.5443 12.672 36.5443C10.9227 36.5443 9.41867 36.1923 8.16 35.4883C6.92267 34.8056 5.99467 33.7923 5.376 32.4483ZM16.672 12.0963C15.6053 12.0963 14.592 12.2456 13.632 12.5443C14.5707 12.8856 15.3493 13.2483 15.968 13.6323C16.5867 13.995 17.0133 14.283 17.248 14.4963C17.0773 14.731 16.8213 15.147 16.48 15.7443C16.16 16.3416 15.776 17.067 15.328 17.9203C14.9013 18.7736 14.4427 19.7123 13.952 20.7363C13.4613 21.739 12.9813 22.7736 12.512 23.8403C11.296 26.5496 10.4107 28.683 9.856 30.2403C9.32267 31.7976 9.056 32.875 9.056 33.4723C9.35467 33.579 9.71733 33.6536 10.144 33.6963C10.5707 33.739 11.0293 33.7603 11.52 33.7603C13.248 33.7603 14.88 33.3656 16.416 32.5763C17.9733 31.7656 19.328 30.6883 20.48 29.3443C21.6533 28.0003 22.5707 26.443 23.232 24.6723C23.9147 22.8803 24.256 21.003 24.256 19.0403C24.256 16.843 23.5733 15.1363 22.208 13.9203C20.8427 12.7043 18.9973 12.0963 16.672 12.0963ZM36.5268 33.4083C36.1214 33.067 35.8441 32.6403 35.6948 32.1283C35.5668 31.6163 35.5028 31.179 35.5028 30.8163C35.5028 30.3683 35.5561 29.9843 35.6628 29.6643C35.5774 29.6643 35.3854 29.835 35.0868 30.1763C34.7881 30.5176 34.4574 30.923 34.0948 31.3923C33.7534 31.8616 33.4121 32.3203 33.0708 32.7683C32.7294 33.2163 32.4734 33.547 32.3028 33.7603C32.0254 34.059 31.7588 34.2936 31.5028 34.4643C31.2681 34.635 31.0761 34.731 30.9268 34.7523C30.5854 34.731 30.2228 34.6563 29.8388 34.5283C29.4761 34.4216 29.1241 34.2616 28.7828 34.0483C28.4628 33.835 28.1748 33.579 27.9188 33.2803C27.6841 32.9816 27.5241 32.6403 27.4388 32.2563C27.4388 31.659 27.4494 31.1683 27.4708 30.7843C27.5134 30.4003 27.5881 29.9843 27.6948 29.5363C27.8868 28.7256 28.1641 27.8083 28.5268 26.7843C28.9108 25.7603 29.3481 24.7576 29.8388 23.7763C30.3294 22.7736 30.8734 21.8456 31.4708 20.9923C32.0894 20.1176 32.7401 19.435 33.4228 18.9443C33.6148 18.9443 33.8388 18.9656 34.0948 19.0083C34.3508 19.0296 34.6068 19.083 34.8628 19.1683C35.1401 19.2536 35.3961 19.3603 35.6308 19.4883C35.8868 19.595 36.1001 19.7443 36.2708 19.9363C36.0788 20.1496 35.5881 20.8643 34.7988 22.0803C34.0308 23.2963 33.1668 25.0456 32.2068 27.3283C32.1001 27.563 31.9721 27.9043 31.8228 28.3523C31.6734 28.8003 31.5241 29.2696 31.3748 29.7603C31.2254 30.251 31.0974 30.731 30.9908 31.2003C30.9054 31.6696 30.8628 32.043 30.8628 32.3203C30.8628 32.491 30.8841 32.619 30.9268 32.7043C30.9908 32.7896 31.0441 32.8536 31.0868 32.8963C31.4068 32.7683 31.8121 32.4163 32.3028 31.8403C32.7934 31.2643 33.4761 30.379 34.3508 29.1843C34.5641 28.8856 34.8094 28.5443 35.0868 28.1603C35.3854 27.7763 35.6841 27.371 35.9828 26.9443C36.2814 26.4963 36.5588 26.0376 36.8148 25.5683C37.0921 25.099 37.3161 24.6296 37.4868 24.1603C37.5721 23.9043 37.6788 23.6056 37.8068 23.2643C37.9561 22.9016 38.1268 22.5283 38.3188 22.1443C38.5321 21.7603 38.7668 21.3763 39.0228 20.9923C39.3001 20.587 39.6201 20.2136 39.9828 19.8723C40.2601 19.8723 40.5588 19.9043 40.8787 19.9683C41.1988 20.0323 41.4974 20.1176 41.7748 20.2243C42.0734 20.3096 42.3294 20.4163 42.5428 20.5443C42.7561 20.651 42.9161 20.7683 43.0228 20.8963C42.6388 21.835 42.2121 22.763 41.7428 23.6803C41.2734 24.5976 40.8361 25.5043 40.4308 26.4003C40.0254 27.275 39.6841 28.1496 39.4068 29.0243C39.1294 29.899 38.9908 30.7523 38.9908 31.5843C38.9908 32.0323 39.0228 32.427 39.0868 32.7683C39.1721 33.0883 39.2574 33.3656 39.3428 33.6003C39.4281 33.8136 39.5028 33.995 39.5668 34.1443C39.6521 34.2936 39.6948 34.4216 39.6948 34.5283C39.6948 34.5496 39.6734 34.5816 39.6308 34.6243C39.6094 34.6456 39.5881 34.6563 39.5668 34.6563C39.4174 34.6563 39.2254 34.6243 38.9908 34.5603C38.7561 34.4963 38.4894 34.4003 38.1908 34.2723C37.9134 34.1656 37.6254 34.0376 37.3268 33.8883C37.0494 33.739 36.7828 33.579 36.5268 33.4083ZM48.8193 18.5923C49.3739 18.763 49.8966 19.147 50.3873 19.7443C50.8779 20.3203 51.2406 20.9603 51.4753 21.6643C51.2406 22.2403 50.8779 22.9336 50.3873 23.7443C49.8966 24.555 49.4059 25.387 48.9153 26.2403C48.4246 27.0723 47.9766 27.8723 47.5713 28.6403C47.1873 29.387 46.9633 30.0056 46.8993 30.4963C47.2406 30.1336 47.6139 29.7176 48.0193 29.2483C48.4459 28.7576 48.8513 28.2776 49.2353 27.8083C49.6406 27.3176 50.0139 26.8803 50.3553 26.4963C50.6966 26.091 50.9633 25.7923 51.1553 25.6003C51.5606 25.1736 52.0406 24.683 52.5953 24.1283C53.1499 23.5523 53.7259 23.019 54.3233 22.5283C54.9419 22.0163 55.5606 21.5896 56.1793 21.2483C56.7979 20.8856 57.3633 20.7043 57.8753 20.7043C58.4299 20.7043 58.8886 20.8963 59.2513 21.2803C59.6353 21.643 59.9339 22.027 60.1473 22.4323C60.1473 22.475 60.0619 22.539 59.8913 22.6243C59.7419 22.6883 59.5179 22.891 59.2193 23.2323C58.9206 23.6163 58.5793 24.1496 58.1953 24.8323C57.8326 25.4936 57.4699 26.219 57.1073 27.0083C56.7659 27.7763 56.4779 28.5656 56.2433 29.3763C56.0086 30.187 55.8913 30.923 55.8913 31.5843C55.8913 32.1176 55.9553 32.459 56.0833 32.6083C56.2326 32.7576 56.4353 32.8323 56.6912 32.8323C56.9259 32.8323 57.1713 32.779 57.4272 32.6723C57.6833 32.5656 57.8859 32.5123 58.0353 32.5123C58.1206 32.555 58.1846 32.651 58.2273 32.8003C58.2913 32.9283 58.3233 33.0456 58.3233 33.1523C58.1526 33.3016 57.9499 33.451 57.7153 33.6003C57.4806 33.7496 57.2353 33.8883 56.9792 34.0163C56.7233 34.1443 56.4673 34.251 56.2113 34.3363C55.9766 34.4216 55.7633 34.4643 55.5713 34.4643C54.9526 34.4643 54.4406 34.3683 54.0353 34.1763C53.6513 34.0056 53.3419 33.771 53.1073 33.4723C52.8939 33.1736 52.7446 32.8216 52.6593 32.4163C52.5739 31.9896 52.5313 31.5416 52.5313 31.0723C52.5313 30.8163 52.5526 30.5283 52.5953 30.2083C52.6379 29.8883 52.7233 29.515 52.8513 29.0883C52.9793 28.6403 53.1606 28.1176 53.3953 27.5203C53.6299 26.9016 53.9286 26.1656 54.2913 25.3123C54.2486 25.3123 53.9606 25.4616 53.4273 25.7603C52.8939 26.059 52.3179 26.5176 51.6993 27.1363C50.6966 28.0963 49.7899 29.0456 48.9792 29.9843C48.1899 30.923 47.3793 31.9683 46.5473 33.1203C46.0779 33.7816 45.6619 34.3363 45.2993 34.7843C44.9579 35.2536 44.6593 35.563 44.4033 35.7123C43.9553 35.4563 43.6246 35.0936 43.4113 34.6243C43.1979 34.1763 43.0379 33.707 42.9313 33.2163C42.9313 32.811 42.9846 32.299 43.0913 31.6803C43.2193 31.0616 43.3793 30.379 43.5713 29.6323C43.7846 28.8643 44.0406 28.0643 44.3393 27.2323C44.6379 26.4003 44.9686 25.5683 45.3313 24.7363C46.1419 22.859 46.8779 21.387 47.5393 20.3203C48.2219 19.2536 48.6486 18.6776 48.8193 18.5923ZM54.4525 43.6483C54.4525 43.5203 54.4952 43.403 54.5805 43.2963C54.6658 43.1896 54.7618 43.083 54.8685 42.9763C55.1245 43.211 55.3485 43.3923 55.5405 43.5203C55.7112 43.6483 55.8818 43.755 56.0525 43.8403C56.2018 43.9256 56.3618 43.979 56.5325 44.0003C56.7032 44.0216 56.9058 44.0323 57.1405 44.0323C58.2498 44.0323 59.3058 43.7336 60.3085 43.1363C61.3112 42.5603 62.2498 41.7176 63.1245 40.6083C64.0205 39.499 64.8312 38.1443 65.5565 36.5443C66.2818 34.9443 66.9218 33.131 67.4765 31.1043C67.2205 31.3603 66.9005 31.6483 66.5165 31.9683C66.1538 32.267 65.7698 32.555 65.3645 32.8323C64.9592 33.1096 64.5538 33.3656 64.1485 33.6003C63.7645 33.835 63.4338 34.0056 63.1565 34.1123C62.7938 34.0483 62.4525 33.899 62.1325 33.6643C61.8338 33.4083 61.5672 33.099 61.3325 32.7363C61.0978 32.3736 60.9165 31.9683 60.7885 31.5203C60.6605 31.051 60.5965 30.5603 60.5965 30.0483C60.5965 29.2163 60.7458 28.363 61.0445 27.4883C61.3645 26.6136 61.7805 25.7603 62.2925 24.9283C62.8045 24.075 63.4018 23.275 64.0845 22.5283C64.7885 21.7816 65.5245 21.131 66.2925 20.5763C67.0818 20.0216 67.8712 19.5843 68.6605 19.2643C69.4712 18.923 70.2605 18.7523 71.0285 18.7523C71.7752 18.7523 72.3298 18.9123 72.6925 19.2323C73.0765 19.531 73.3538 20.0536 73.5245 20.8003C73.2898 20.6723 72.9912 20.6083 72.6285 20.6083C72.1165 20.6083 71.5192 20.811 70.8365 21.2163C70.1752 21.6216 69.4925 22.155 68.7885 22.8163C68.1058 23.4563 67.4232 24.203 66.7405 25.0563C66.0578 25.8883 65.4498 26.7416 64.9165 27.6163C64.4045 28.491 63.9778 29.3443 63.6365 30.1763C63.3165 31.0083 63.1565 31.755 63.1565 32.4163C63.1565 32.5656 63.1672 32.6616 63.1885 32.7043C63.2098 32.7256 63.2418 32.7363 63.2845 32.7363C63.4765 32.7363 63.7325 32.6296 64.0525 32.4163C64.3938 32.203 64.7672 31.9363 65.1725 31.6163C65.5992 31.275 66.0365 30.891 66.4845 30.4643C66.9325 30.0163 67.3592 29.5683 67.7645 29.1203C68.6818 28.0963 69.5138 26.955 70.2605 25.6963C71.0285 24.4163 71.6365 23.179 72.0845 21.9843C72.6605 22.027 73.1725 22.123 73.6205 22.2723C74.0685 22.4216 74.3778 22.5816 74.5485 22.7523C73.8232 24.4163 73.2365 25.8136 72.7885 26.9443C72.3618 28.075 71.9885 29.0776 71.6685 29.9523C71.0925 31.4883 70.5485 32.8856 70.0365 34.1443C69.5458 35.4243 69.0338 36.5976 68.5005 37.6643C67.9885 38.7523 67.4232 39.755 66.8045 40.6723C66.2072 41.611 65.5245 42.507 64.7565 43.3603C64.3938 43.7656 63.9778 44.1176 63.5085 44.4163C63.0605 44.7363 62.5912 45.003 62.1005 45.2163C61.6312 45.4296 61.1618 45.5896 60.6925 45.6963C60.2445 45.803 59.8285 45.8563 59.4445 45.8563C58.9325 45.8563 58.4098 45.7923 57.8765 45.6643C57.3432 45.5576 56.8525 45.3976 56.4045 45.1843C55.9352 44.9923 55.5298 44.7576 55.1885 44.4803C54.8472 44.2243 54.6018 43.947 54.4525 43.6483ZM86.7788 20.8643C86.6934 22.187 86.4588 23.3283 86.0748 24.2883C85.6908 25.227 85.1361 26.059 84.4108 26.7843C83.7068 27.4883 82.8428 28.1283 81.8188 28.7043C80.7948 29.2803 79.6001 29.835 78.2348 30.3683C78.2348 30.4963 78.2241 30.635 78.2028 30.7843C78.2028 30.9123 78.2028 31.051 78.2028 31.2003C78.2028 31.4776 78.2241 31.7656 78.2668 32.0643C78.3094 32.363 78.3841 32.6403 78.4908 32.8963C78.5974 33.1523 78.7468 33.3656 78.9388 33.5363C79.1308 33.6856 79.3761 33.7603 79.6748 33.7603C80.2508 33.7603 80.8161 33.6323 81.3708 33.3763C81.9254 33.1203 82.4481 32.811 82.9388 32.4483C83.4508 32.0643 83.9201 31.659 84.3468 31.2323C84.7948 30.7843 85.1894 30.379 85.5308 30.0163C85.7441 30.2083 85.9254 30.3896 86.0748 30.5603C85.1148 31.8403 84.0588 32.907 82.9068 33.7603C81.7761 34.5923 80.6988 35.1256 79.6748 35.3603C78.2028 35.1896 77.0508 34.6563 76.2188 33.7603C75.4081 32.843 75.0028 31.7443 75.0028 30.4643C75.0028 29.5896 75.1201 28.7043 75.3548 27.8083C75.6108 26.891 75.9521 26.0163 76.3788 25.1843C76.8268 24.331 77.3388 23.531 77.9148 22.7843C78.5121 22.0376 79.1414 21.387 79.8028 20.8323C80.4854 20.2776 81.1788 19.8403 81.8828 19.5203C82.6081 19.2003 83.3228 19.0403 84.0268 19.0403C85.0081 19.1683 85.9254 19.7763 86.7788 20.8643ZM84.5708 21.9203C83.9948 22.0056 83.3974 22.2403 82.7788 22.6243C82.1601 23.0083 81.5734 23.5203 81.0188 24.1603C80.4854 24.8003 79.9948 25.547 79.5468 26.4003C79.0988 27.2536 78.7468 28.171 78.4908 29.1523C80.1974 28.299 81.6161 27.2536 82.7468 26.0163C83.8774 24.7576 84.4854 23.3923 84.5708 21.9203ZM92.0363 35.2323C90.8203 35.1043 89.8496 34.571 89.1243 33.6323C88.3989 32.6936 88.0363 31.499 88.0363 30.0483C88.0363 29.195 88.1643 28.3096 88.4203 27.3923C88.6763 26.475 89.0389 25.5896 89.5083 24.7363C89.9776 23.8616 90.5323 23.0403 91.1723 22.2723C91.8123 21.5043 92.5056 20.843 93.2523 20.2883C94.4256 19.4136 95.5243 18.9763 96.5483 18.9763C97.2309 19.339 97.9029 20.0963 98.5643 21.2483C98.6709 21.2483 98.7669 21.2483 98.8523 21.2483C98.9376 21.227 99.0336 21.2163 99.1403 21.2163C100.271 21.2163 100.836 22.219 100.836 24.2243C100.836 25.5683 100.612 26.8483 100.164 28.0643C99.7376 29.259 99.1296 30.347 98.3403 31.3283C97.5723 32.3096 96.6443 33.1416 95.5563 33.8243C94.4896 34.4856 93.3163 34.955 92.0363 35.2323ZM93.6683 25.1523C93.3056 25.643 92.9643 26.1763 92.6443 26.7523C92.3243 27.3283 92.0469 27.915 91.8123 28.5123C91.5776 29.0883 91.3963 29.6536 91.2683 30.2083C91.1403 30.7416 91.0763 31.2216 91.0763 31.6483C91.0763 32.1603 91.1616 32.651 91.3323 33.1203C91.5029 33.5896 91.6949 33.8563 91.9083 33.9203C92.8683 33.707 93.7429 33.3123 94.5323 32.7363C95.3429 32.139 96.0363 31.403 96.6123 30.5283C97.2096 29.6536 97.6683 28.6616 97.9883 27.5523C98.3296 26.443 98.5003 25.259 98.5003 24.0003C98.5003 23.4456 98.4683 23.0083 98.4043 22.6883C98.3403 22.3683 98.2336 22.091 98.0843 21.8563C97.1456 22.1336 96.3029 22.5816 95.5563 23.2003C94.8309 23.819 94.2016 24.4696 93.6683 25.1523ZM107.569 18.5923C108.124 18.763 108.647 19.147 109.137 19.7443C109.628 20.3203 109.991 20.9603 110.225 21.6643C109.991 22.2403 109.628 22.9336 109.137 23.7443C108.647 24.555 108.156 25.387 107.665 26.2403C107.175 27.0723 106.727 27.8723 106.321 28.6403C105.937 29.387 105.713 30.0056 105.649 30.4963C105.991 30.1336 106.364 29.7176 106.769 29.2483C107.196 28.7576 107.601 28.2776 107.985 27.8083C108.391 27.3176 108.764 26.8803 109.105 26.4963C109.447 26.091 109.713 25.7923 109.905 25.6003C110.311 25.1736 110.791 24.683 111.345 24.1283C111.9 23.5523 112.476 23.019 113.073 22.5283C113.692 22.0163 114.311 21.5896 114.929 21.2483C115.548 20.8856 116.113 20.7043 116.625 20.7043C117.18 20.7043 117.639 20.8963 118.001 21.2803C118.385 21.643 118.684 22.027 118.897 22.4323C118.897 22.475 118.812 22.539 118.641 22.6243C118.492 22.6883 118.268 22.891 117.969 23.2323C117.671 23.6163 117.329 24.1496 116.945 24.8323C116.583 25.4936 116.22 26.219 115.857 27.0083C115.516 27.7763 115.228 28.5656 114.993 29.3763C114.759 30.187 114.641 30.923 114.641 31.5843C114.641 32.1176 114.705 32.459 114.833 32.6083C114.983 32.7576 115.185 32.8323 115.441 32.8323C115.676 32.8323 115.921 32.779 116.177 32.6723C116.433 32.5656 116.636 32.5123 116.785 32.5123C116.871 32.555 116.935 32.651 116.977 32.8003C117.041 32.9283 117.073 33.0456 117.073 33.1523C116.903 33.3016 116.7 33.451 116.465 33.6003C116.231 33.7496 115.985 33.8883 115.729 34.0163C115.473 34.1443 115.217 34.251 114.961 34.3363C114.727 34.4216 114.513 34.4643 114.321 34.4643C113.703 34.4643 113.191 34.3683 112.785 34.1763C112.401 34.0056 112.092 33.771 111.857 33.4723C111.644 33.1736 111.495 32.8216 111.409 32.4163C111.324 31.9896 111.281 31.5416 111.281 31.0723C111.281 30.8163 111.303 30.5283 111.345 30.2083C111.388 29.8883 111.473 29.515 111.601 29.0883C111.729 28.6403 111.911 28.1176 112.145 27.5203C112.38 26.9016 112.679 26.1656 113.041 25.3123C112.999 25.3123 112.711 25.4616 112.177 25.7603C111.644 26.059 111.068 26.5176 110.449 27.1363C109.447 28.0963 108.54 29.0456 107.729 29.9843C106.94 30.923 106.129 31.9683 105.297 33.1203C104.828 33.7816 104.412 34.3363 104.049 34.7843C103.708 35.2536 103.409 35.563 103.153 35.7123C102.705 35.4563 102.375 35.0936 102.161 34.6243C101.948 34.1763 101.788 33.707 101.681 33.2163C101.681 32.811 101.735 32.299 101.841 31.6803C101.969 31.0616 102.129 30.379 102.321 29.6323C102.535 28.8643 102.791 28.0643 103.089 27.2323C103.388 26.4003 103.719 25.5683 104.081 24.7363C104.892 22.859 105.628 21.387 106.289 20.3203C106.972 19.2536 107.399 18.6776 107.569 18.5923ZM130.707 21.3763C130.685 21.7816 130.611 22.2083 130.483 22.6563C130.376 23.083 130.237 23.4776 130.067 23.8403C129.896 24.1816 129.715 24.4696 129.523 24.7043C129.331 24.939 129.149 25.0563 128.979 25.0563C128.744 25.035 128.605 24.875 128.563 24.5763C128.563 24.5123 128.584 24.4163 128.627 24.2883C128.691 24.139 128.755 23.979 128.819 23.8083C128.883 23.6376 128.936 23.467 128.979 23.2963C129.043 23.1256 129.075 22.9763 129.075 22.8483C129.075 22.5496 129 22.3043 128.851 22.1123C128.723 21.899 128.541 21.7923 128.307 21.7923C127.453 21.7923 126.803 22.3256 126.355 23.3923C125.907 24.459 125.683 26.027 125.683 28.0963C125.683 28.3096 125.693 28.4376 125.715 28.4803C126.163 28.459 126.557 28.4483 126.899 28.4483C127.261 28.427 127.613 28.4163 127.955 28.4163C127.976 28.459 127.987 28.5443 127.987 28.6723C127.987 28.8643 127.944 29.003 127.859 29.0883C127.368 29.195 126.973 29.291 126.675 29.3763C126.397 29.4403 126.184 29.5043 126.035 29.5683C125.885 29.6323 125.789 29.707 125.747 29.7923C125.725 29.8563 125.715 29.9523 125.715 30.0803C125.715 30.251 125.715 30.4216 125.715 30.5923C125.736 30.763 125.747 30.9763 125.747 31.2323C125.747 33.0243 125.256 34.4643 124.275 35.5523C123.315 36.6403 121.971 37.2696 120.243 37.4403C119.944 37.419 119.635 37.3336 119.315 37.1843C118.995 37.035 118.685 36.843 118.387 36.6083C118.109 36.3736 117.864 36.107 117.651 35.8083C117.437 35.531 117.288 35.243 117.203 34.9443C117.203 34.1336 117.373 33.3656 117.715 32.6403C118.056 31.8936 118.515 31.243 119.091 30.6883C119.688 30.1123 120.381 29.6536 121.171 29.3123C121.981 28.9496 122.856 28.7363 123.795 28.6723C123.795 28.139 123.741 27.6163 123.635 27.1043C123.528 26.5923 123.411 26.1016 123.283 25.6323C123.176 25.1416 123.069 24.6723 122.963 24.2243C122.856 23.755 122.803 23.2963 122.803 22.8483C122.803 22.2723 122.92 21.707 123.155 21.1523C123.389 20.5763 123.699 20.0536 124.083 19.5843C124.467 19.0936 124.915 18.6776 125.427 18.3363C125.939 17.995 126.472 17.7603 127.027 17.6323C127.261 17.6963 127.571 17.8883 127.955 18.2083C128.36 18.507 128.755 18.8483 129.139 19.2323C129.523 19.6163 129.864 20.011 130.163 20.4163C130.461 20.8003 130.643 21.1203 130.707 21.3763ZM120.147 35.9683C120.659 35.755 121.139 35.4456 121.587 35.0403C122.056 34.635 122.461 34.1763 122.803 33.6643C123.144 33.1523 123.411 32.6083 123.603 32.0323C123.816 31.4563 123.923 30.891 123.923 30.3363C123.496 30.4003 123.027 30.603 122.515 30.9443C122.003 31.2643 121.523 31.659 121.075 32.1283C120.627 32.5763 120.253 33.0456 119.955 33.5363C119.656 34.027 119.507 34.4536 119.507 34.8163C119.507 35.2856 119.72 35.6696 120.147 35.9683Z" fill="white"/>
<path d="M33.59 66.4966C32.566 66.1979 31.8513 65.8992 31.446 65.6006C31.062 65.3019 30.87 64.9286 30.87 64.4806C30.87 64.1392 30.966 63.6592 31.158 63.0406C31.35 62.4219 31.6273 61.6966 31.99 60.8646C32.374 60.0112 32.822 59.0726 33.334 58.0486C33.8673 57.0246 34.4646 55.9259 35.126 54.7526C34.5713 54.7312 34.07 54.7206 33.622 54.7206C33.1953 54.6992 32.8433 54.6886 32.566 54.6886C32.694 54.3686 33.0566 54.0912 33.654 53.8566C34.2513 53.6219 35.0406 53.4192 36.022 53.2486C36.854 51.8619 37.7393 50.5392 38.678 49.2806C39.638 48.0219 40.598 46.8699 41.558 45.8246C42.518 44.7579 43.478 43.8299 44.438 43.0406C45.398 42.2299 46.3153 41.5899 47.19 41.1206C47.2113 40.9712 47.222 40.8432 47.222 40.7366C47.2433 40.6299 47.254 40.5552 47.254 40.5126C47.5526 40.5126 47.9473 40.5872 48.438 40.7366C48.95 40.8859 49.4406 41.0672 49.91 41.2806C50.4006 41.4939 50.8273 41.7179 51.19 41.9526C51.574 42.1659 51.7873 42.3472 51.83 42.4966C51.126 43.7339 50.4326 45.5899 49.75 48.0646C49.0673 50.5179 48.502 53.4619 48.054 56.8966C47.9473 57.7499 47.8513 58.7206 47.766 59.8086C47.702 60.8966 47.67 62.1126 47.67 63.4566C47.67 63.9259 47.67 64.4059 47.67 64.8966C47.67 65.3872 47.6913 65.8992 47.734 66.4326C47.6913 66.4539 47.6486 66.4646 47.606 66.4646C47.5633 66.4646 47.478 66.4646 47.35 66.4646C47.0513 66.4646 46.6993 66.4112 46.294 66.3046C45.91 66.2192 45.526 66.1019 45.142 65.9526C44.7793 65.8246 44.4593 65.6752 44.182 65.5046C43.926 65.3339 43.766 65.1846 43.702 65.0566C43.6806 64.7792 43.67 64.5019 43.67 64.2246C43.67 63.9686 43.67 63.6912 43.67 63.3926C43.67 62.0699 43.7126 60.7259 43.798 59.3606C43.9046 57.9952 44.0753 56.5872 44.31 55.1366C44.0113 55.1152 43.6166 55.0939 43.126 55.0726C42.6353 55.0299 42.0806 54.9979 41.462 54.9766C40.8646 54.9552 40.214 54.9339 39.51 54.9126C38.8273 54.8699 38.1553 54.8379 37.494 54.8166C36.982 55.7766 36.502 56.7366 36.054 57.6966C35.606 58.6352 35.222 59.5846 34.902 60.5446C34.5393 61.5686 34.2406 62.5926 34.006 63.6166C33.7926 64.6406 33.654 65.6006 33.59 66.4966ZM45.942 47.2646C46.0273 46.9659 46.1233 46.5606 46.23 46.0486C46.358 45.5152 46.4753 44.9606 46.582 44.3846C46.0486 44.5766 45.4513 44.9286 44.79 45.4406C44.15 45.9526 43.478 46.5926 42.774 47.3606C42.0913 48.1072 41.3873 48.9606 40.662 49.9206C39.958 50.8592 39.2753 51.8619 38.614 52.9286C40.406 52.7792 42.4433 52.6832 44.726 52.6406C44.8966 51.7446 45.078 50.8592 45.27 49.9846C45.4833 49.0886 45.7073 48.1819 45.942 47.2646ZM63.3745 51.3286C63.3531 51.7339 63.2785 52.1606 63.1505 52.6086C63.0438 53.0352 62.9051 53.4299 62.7345 53.7926C62.5638 54.1339 62.3825 54.4219 62.1905 54.6566C61.9985 54.8912 61.8171 55.0086 61.6465 55.0086C61.4118 54.9872 61.2731 54.8272 61.2305 54.5286C61.2305 54.4646 61.2518 54.3686 61.2945 54.2406C61.3585 54.0912 61.4225 53.9312 61.4865 53.7606C61.5505 53.5899 61.6038 53.4192 61.6465 53.2486C61.7105 53.0779 61.7425 52.9286 61.7425 52.8006C61.7425 52.5019 61.6678 52.2566 61.5185 52.0646C61.3905 51.8512 61.2091 51.7446 60.9745 51.7446C60.1211 51.7446 59.4705 52.2779 59.0225 53.3446C58.5745 54.4112 58.3505 55.9792 58.3505 58.0486C58.3505 58.2619 58.3611 58.3899 58.3825 58.4326C58.8305 58.4112 59.2251 58.4006 59.5665 58.4006C59.9291 58.3792 60.2811 58.3686 60.6225 58.3686C60.6438 58.4112 60.6545 58.4966 60.6545 58.6246C60.6545 58.8166 60.6118 58.9552 60.5265 59.0406C60.0358 59.1472 59.6411 59.2432 59.3425 59.3286C59.0651 59.3926 58.8518 59.4566 58.7025 59.5206C58.5531 59.5846 58.4571 59.6592 58.4145 59.7446C58.3931 59.8086 58.3825 59.9046 58.3825 60.0326C58.3825 60.2032 58.3825 60.3739 58.3825 60.5446C58.4038 60.7152 58.4145 60.9286 58.4145 61.1846C58.4145 62.9766 57.9238 64.4166 56.9425 65.5046C55.9825 66.5926 54.6385 67.2219 52.9105 67.3926C52.6118 67.3712 52.3025 67.2859 51.9825 67.1366C51.6625 66.9872 51.3531 66.7952 51.0545 66.5606C50.7771 66.3259 50.5318 66.0592 50.3185 65.7606C50.1051 65.4832 49.9558 65.1952 49.8705 64.8966C49.8705 64.0859 50.0411 63.3179 50.3825 62.5926C50.7238 61.8459 51.1825 61.1952 51.7585 60.6406C52.3558 60.0646 53.0491 59.6059 53.8385 59.2646C54.6491 58.9019 55.5238 58.6886 56.4625 58.6246C56.4625 58.0912 56.4091 57.5686 56.3025 57.0566C56.1958 56.5446 56.0785 56.0539 55.9505 55.5846C55.8438 55.0939 55.7371 54.6246 55.6305 54.1766C55.5238 53.7072 55.4705 53.2486 55.4705 52.8006C55.4705 52.2246 55.5878 51.6592 55.8225 51.1046C56.0571 50.5286 56.3665 50.0059 56.7505 49.5366C57.1345 49.0459 57.5825 48.6299 58.0945 48.2886C58.6065 47.9472 59.1398 47.7126 59.6945 47.5846C59.9291 47.6486 60.2385 47.8406 60.6225 48.1606C61.0278 48.4592 61.4225 48.8006 61.8065 49.1846C62.1905 49.5686 62.5318 49.9632 62.8305 50.3686C63.1291 50.7526 63.3105 51.0726 63.3745 51.3286ZM52.8145 65.9206C53.3265 65.7072 53.8065 65.3979 54.2545 64.9926C54.7238 64.5872 55.1291 64.1286 55.4705 63.6166C55.8118 63.1046 56.0785 62.5606 56.2705 61.9846C56.4838 61.4086 56.5905 60.8432 56.5905 60.2886C56.1638 60.3526 55.6945 60.5552 55.1825 60.8966C54.6705 61.2166 54.1905 61.6112 53.7425 62.0806C53.2945 62.5286 52.9211 62.9979 52.6225 63.4886C52.3238 63.9792 52.1745 64.4059 52.1745 64.7686C52.1745 65.2379 52.3878 65.6219 52.8145 65.9206ZM72.101 63.3606C71.6956 63.0192 71.4183 62.5926 71.269 62.0806C71.141 61.5686 71.077 61.1312 71.077 60.7686C71.077 60.3206 71.1303 59.9366 71.237 59.6166C71.1516 59.6166 70.9596 59.7872 70.661 60.1286C70.3623 60.4699 70.0316 60.8752 69.669 61.3446C69.3276 61.8139 68.9863 62.2726 68.645 62.7206C68.3036 63.1686 68.0476 63.4992 67.877 63.7126C67.5996 64.0112 67.333 64.2459 67.077 64.4166C66.8423 64.5872 66.6503 64.6832 66.501 64.7046C66.1596 64.6832 65.797 64.6086 65.413 64.4806C65.0503 64.3739 64.6983 64.2139 64.357 64.0006C64.037 63.7872 63.749 63.5312 63.493 63.2326C63.2583 62.9339 63.0983 62.5926 63.013 62.2086C63.013 61.6112 63.0236 61.1206 63.045 60.7366C63.0876 60.3526 63.1623 59.9366 63.269 59.4886C63.461 58.6779 63.7383 57.7606 64.101 56.7366C64.485 55.7126 64.9223 54.7099 65.413 53.7286C65.9036 52.7259 66.4476 51.7979 67.045 50.9446C67.6636 50.0699 68.3143 49.3872 68.997 48.8966C69.189 48.8966 69.413 48.9179 69.669 48.9606C69.925 48.9819 70.181 49.0352 70.437 49.1206C70.7143 49.2059 70.9703 49.3126 71.205 49.4406C71.461 49.5472 71.6743 49.6966 71.845 49.8886C71.653 50.1019 71.1623 50.8166 70.373 52.0326C69.605 53.2486 68.741 54.9979 67.781 57.2806C67.6743 57.5152 67.5463 57.8566 67.397 58.3046C67.2476 58.7526 67.0983 59.2219 66.949 59.7126C66.7996 60.2032 66.6716 60.6832 66.565 61.1526C66.4796 61.6219 66.437 61.9952 66.437 62.2726C66.437 62.4432 66.4583 62.5712 66.501 62.6566C66.565 62.7419 66.6183 62.8059 66.661 62.8486C66.981 62.7206 67.3863 62.3686 67.877 61.7926C68.3676 61.2166 69.0503 60.3312 69.925 59.1366C70.1383 58.8379 70.3836 58.4966 70.661 58.1126C70.9596 57.7286 71.2583 57.3232 71.557 56.8966C71.8556 56.4486 72.133 55.9899 72.389 55.5206C72.6663 55.0512 72.8903 54.5819 73.061 54.1126C73.1463 53.8566 73.253 53.5579 73.381 53.2166C73.5303 52.8539 73.701 52.4806 73.893 52.0966C74.1063 51.7126 74.341 51.3286 74.597 50.9446C74.8743 50.5392 75.1943 50.1659 75.557 49.8246C75.8343 49.8246 76.133 49.8566 76.453 49.9206C76.773 49.9846 77.0716 50.0699 77.349 50.1766C77.6476 50.2619 77.9036 50.3686 78.117 50.4966C78.3303 50.6032 78.4903 50.7206 78.597 50.8486C78.213 51.7872 77.7863 52.7152 77.317 53.6326C76.8476 54.5499 76.4103 55.4566 76.005 56.3526C75.5996 57.2272 75.2583 58.1019 74.981 58.9766C74.7036 59.8512 74.565 60.7046 74.565 61.5366C74.565 61.9846 74.597 62.3792 74.661 62.7206C74.7463 63.0406 74.8316 63.3179 74.917 63.5526C75.0023 63.7659 75.077 63.9472 75.141 64.0966C75.2263 64.2459 75.269 64.3739 75.269 64.4806C75.269 64.5019 75.2476 64.5339 75.205 64.5766C75.1836 64.5979 75.1623 64.6086 75.141 64.6086C74.9916 64.6086 74.7996 64.5766 74.565 64.5126C74.3303 64.4486 74.0636 64.3526 73.765 64.2246C73.4876 64.1179 73.1996 63.9899 72.901 63.8406C72.6236 63.6912 72.357 63.5312 72.101 63.3606ZM84.3935 48.5446C84.9481 48.7152 85.4708 49.0992 85.9615 49.6966C86.4521 50.2726 86.8148 50.9126 87.0495 51.6166C86.8148 52.1926 86.4521 52.8859 85.9615 53.6966C85.4708 54.5072 84.9801 55.3392 84.4895 56.1926C83.9988 57.0246 83.5508 57.8246 83.1455 58.5926C82.7615 59.3392 82.5375 59.9579 82.4735 60.4486C82.8148 60.0859 83.1881 59.6699 83.5935 59.2006C84.0201 58.7099 84.4255 58.2299 84.8095 57.7606C85.2148 57.2699 85.5881 56.8326 85.9295 56.4486C86.2708 56.0432 86.5375 55.7446 86.7295 55.5526C87.1348 55.1259 87.6148 54.6352 88.1695 54.0806C88.7241 53.5046 89.3001 52.9712 89.8975 52.4806C90.5161 51.9686 91.1348 51.5419 91.7535 51.2006C92.3721 50.8379 92.9375 50.6566 93.4495 50.6566C94.0041 50.6566 94.4628 50.8486 94.8255 51.2326C95.2095 51.5952 95.5081 51.9792 95.7215 52.3846C95.7215 52.4272 95.6361 52.4912 95.4655 52.5766C95.3161 52.6406 95.0921 52.8432 94.7935 53.1846C94.4948 53.5686 94.1535 54.1019 93.7695 54.7846C93.4068 55.4459 93.0441 56.1712 92.6815 56.9606C92.3401 57.7286 92.0521 58.5179 91.8175 59.3286C91.5828 60.1392 91.4655 60.8752 91.4655 61.5366C91.4655 62.0699 91.5295 62.4112 91.6575 62.5606C91.8068 62.7099 92.0095 62.7846 92.2655 62.7846C92.5001 62.7846 92.7455 62.7312 93.0015 62.6246C93.2575 62.5179 93.4601 62.4646 93.6095 62.4646C93.6948 62.5072 93.7588 62.6032 93.8015 62.7526C93.8655 62.8806 93.8975 62.9979 93.8975 63.1046C93.7268 63.2539 93.5241 63.4032 93.2895 63.5526C93.0548 63.7019 92.8095 63.8406 92.5535 63.9686C92.2975 64.0966 92.0415 64.2032 91.7855 64.2886C91.5508 64.3739 91.3375 64.4166 91.1455 64.4166C90.5268 64.4166 90.0148 64.3206 89.6095 64.1286C89.2255 63.9579 88.9161 63.7232 88.6815 63.4246C88.4681 63.1259 88.3188 62.7739 88.2335 62.3686C88.1481 61.9419 88.1055 61.4939 88.1055 61.0246C88.1055 60.7686 88.1268 60.4806 88.1695 60.1606C88.2121 59.8406 88.2975 59.4672 88.4255 59.0406C88.5535 58.5926 88.7348 58.0699 88.9695 57.4726C89.2041 56.8539 89.5028 56.1179 89.8655 55.2646C89.8228 55.2646 89.5348 55.4139 89.0015 55.7126C88.4681 56.0112 87.8921 56.4699 87.2735 57.0886C86.2708 58.0486 85.3641 58.9979 84.5535 59.9366C83.7641 60.8752 82.9535 61.9206 82.1215 63.0726C81.6521 63.7339 81.2361 64.2886 80.8735 64.7366C80.5321 65.2059 80.2335 65.5152 79.9775 65.6646C79.5295 65.4086 79.1988 65.0459 78.9855 64.5766C78.7721 64.1286 78.6121 63.6592 78.5055 63.1686C78.5055 62.7632 78.5588 62.2512 78.6655 61.6326C78.7935 61.0139 78.9535 60.3312 79.1455 59.5846C79.3588 58.8166 79.6148 58.0166 79.9135 57.1846C80.2121 56.3526 80.5428 55.5206 80.9055 54.6886C81.7161 52.8112 82.4521 51.3392 83.1135 50.2726C83.7961 49.2059 84.2228 48.6299 84.3935 48.5446Z" fill="#24BE74"/>
<path d="M19.3234 51.7646C18.5634 51.6846 17.9568 51.3512 17.5034 50.7646C17.0501 50.1779 16.8234 49.4312 16.8234 48.5246C16.8234 47.9912 16.9034 47.4379 17.0634 46.8646C17.2234 46.2912 17.4501 45.7379 17.7434 45.2046C18.0368 44.6579 18.3834 44.1446 18.7834 43.6646C19.1834 43.1846 19.6168 42.7712 20.0834 42.4246C20.8168 41.8779 21.5034 41.6046 22.1434 41.6046C22.5701 41.8312 22.9901 42.3046 23.4034 43.0246C23.4701 43.0246 23.5301 43.0246 23.5834 43.0246C23.6368 43.0112 23.6968 43.0046 23.7634 43.0046C24.4701 43.0046 24.8234 43.6312 24.8234 44.8846C24.8234 45.7246 24.6834 46.5246 24.4034 47.2846C24.1368 48.0312 23.7568 48.7112 23.2634 49.3246C22.7834 49.9379 22.2034 50.4579 21.5234 50.8846C20.8568 51.2979 20.1234 51.5912 19.3234 51.7646ZM20.3434 45.4646C20.1168 45.7712 19.9034 46.1046 19.7034 46.4646C19.5034 46.8246 19.3301 47.1912 19.1834 47.5646C19.0368 47.9246 18.9234 48.2779 18.8434 48.6246C18.7634 48.9579 18.7234 49.2579 18.7234 49.5246C18.7234 49.8446 18.7768 50.1512 18.8834 50.4446C18.9901 50.7379 19.1101 50.9046 19.2434 50.9446C19.8434 50.8112 20.3901 50.5646 20.8834 50.2046C21.3901 49.8312 21.8234 49.3712 22.1834 48.8246C22.5568 48.2779 22.8434 47.6579 23.0434 46.9646C23.2568 46.2712 23.3634 45.5312 23.3634 44.7446C23.3634 44.3979 23.3434 44.1246 23.3034 43.9246C23.2634 43.7246 23.1968 43.5512 23.1034 43.4046C22.5168 43.5779 21.9901 43.8579 21.5234 44.2446C21.0701 44.6312 20.6768 45.0379 20.3434 45.4646ZM26.5986 56.8446C26.2653 56.7112 26.0653 56.4579 25.9986 56.0846C25.9453 55.7246 25.7186 55.4312 25.3186 55.2046C25.4253 54.5246 25.5453 53.8379 25.6786 53.1446C25.8119 52.4512 25.9786 51.6646 26.1786 50.7846C26.3919 49.8912 26.6519 48.8579 26.9586 47.6846C27.2786 46.4979 27.6786 45.0646 28.1586 43.3846C27.7186 43.3846 27.3719 43.3912 27.1186 43.4046C26.8653 43.4179 26.6186 43.4446 26.3786 43.4846C26.3253 43.4312 26.2786 43.3579 26.2386 43.2646C26.2119 43.1712 26.1986 43.0846 26.1986 43.0046C26.3319 42.9512 26.6053 42.8846 27.0186 42.8046C27.4319 42.7112 27.8853 42.6312 28.3786 42.5646C28.6986 41.5512 29.0653 40.6446 29.4786 39.8446C29.8919 39.0312 30.3386 38.3379 30.8186 37.7646C31.2986 37.1912 31.8053 36.7512 32.3386 36.4446C32.8719 36.1379 33.4119 35.9846 33.9586 35.9846C34.1186 35.9846 34.2719 35.9979 34.4186 36.0246C34.5653 36.0379 34.6786 36.0446 34.7586 36.0446C34.8786 35.9512 35.0386 35.8712 35.2386 35.8046C35.4386 35.7246 35.6119 35.6846 35.7586 35.6846C35.9186 35.6846 36.1253 35.7712 36.3786 35.9446C36.2719 36.1312 36.1586 36.3846 36.0386 36.7046C35.9186 37.0246 35.8186 37.3379 35.7386 37.6446C35.4053 38.6312 35.0519 39.2712 34.6786 39.5646C34.5319 39.5646 34.4519 39.3712 34.4386 38.9846C34.4253 38.7046 34.3853 38.4312 34.3186 38.1646C34.2653 38.0446 34.2253 37.9379 34.1986 37.8446C34.1853 37.7512 34.1786 37.6312 34.1786 37.4846C34.1786 37.4046 34.1853 37.3112 34.1986 37.2046C34.2119 37.0846 34.2386 36.8912 34.2786 36.6246C34.0519 36.6246 33.7986 36.7646 33.5186 37.0446C33.2519 37.3246 32.9653 37.7246 32.6586 38.2446C32.3653 38.7512 32.0653 39.3579 31.7586 40.0646C31.4519 40.7712 31.1586 41.5512 30.8786 42.4046L32.5586 42.3446C32.6253 42.4112 32.6786 42.5646 32.7186 42.8046C32.7719 43.0312 32.8053 43.2712 32.8186 43.5246L30.6186 43.4046C30.1119 44.9112 29.6386 46.3512 29.1986 47.7246C28.7586 49.0979 28.3653 50.3646 28.0186 51.5246C27.6719 52.6846 27.3719 53.7179 27.1186 54.6246C26.8786 55.5446 26.7053 56.2846 26.5986 56.8446Z" fill="#A5A8AB"/>
</svg>
