<svg width="24" height="25" viewBox="0 0 24 25" fill="none" xmlns="http://www.w3.org/2000/svg">
<g id="tabler:heart-filled" clip-path="url(#clip0_372_6263)">
<g id="Group">
<path id="Vector" d="M6.9801 4.05009C7.86517 3.89928 8.77279 3.94903 9.63607 4.19566C10.4993 4.44228 11.2963 4.8795 11.9681 5.47509L12.0051 5.50809L12.0391 5.47809C12.6803 4.91538 13.4341 4.49588 14.2503 4.24757C15.0664 3.99926 15.9262 3.92784 16.7721 4.03809L17.0181 4.07409C18.0844 4.2582 19.0811 4.72724 19.9026 5.43156C20.7241 6.13587 21.3398 7.04923 21.6845 8.07492C22.0293 9.10061 22.0903 10.2004 21.861 11.258C21.6317 12.3155 21.1207 13.2913 20.3821 14.0821L20.2021 14.2671L20.1541 14.3081L12.7041 21.6871C12.5322 21.8572 12.3044 21.9593 12.063 21.9744C11.8216 21.9895 11.5829 21.9165 11.3911 21.7691L11.2971 21.6871L3.8041 14.2651C3.01032 13.4927 2.4458 12.5158 2.17306 11.4424C1.90032 10.3689 1.93 9.24098 2.25882 8.1834C2.58764 7.12582 3.20276 6.17988 4.03607 5.45036C4.86937 4.72083 5.88833 4.23618 6.9801 4.05009Z" fill="black"/>
</g>
</g>
<defs>
<clipPath id="clip0_372_6263">
<rect width="24" height="24" fill="white" transform="translate(0 0.976074)"/>
</clipPath>
</defs>
</svg>
